<?xml version="1.0" standalone="no"?><!DOCTYPE svg PUBLIC "-//W3C//DTD SVG 1.1//EN" "http://www.w3.org/Graphics/SVG/1.1/DTD/svg11.dtd" ><svg version="1.1" xmlns="http://www.w3.org/2000/svg"><defs><font horiz-adv-x="0" id="font"><font-face ascent="1536" bbox="-69 -234 2114 1749" cap-height="1536" descent="-205" font-family="Digestive v0.9" font-stretch="normal" font-weight="400" units-per-em="2048" x-height="1331" /><missing-glyph horiz-adv-x="1024" /><glyph d="M304 309V338H716V309ZM304 362V391H716V362ZM403 1258 367 496C350 176 382 -3 498 -3C606 -3 674 112 649 493L601 1293C594 1377 557 1426 504 1426C445 1426 411 1393 403 1258ZM903 -1C764 -1 636 -24 497 -24C387 -24 343 -1 253 -1C170 -1 106 -11 -5 -31L-7 -27C91 1 156 55 233 501L352 1261C404 1504 464 1560 633 1560C827 1560 943 1502 978 1292L1078 503C1125 126 1219 2 1322 -27L1321 -31C1159 -7 1046 -1 903 -1ZM607 1535Z" glyph-name="A" horiz-adv-x="1307" unicode="A" /><glyph d="M304 309V338H716V309ZM304 362V391H716V362ZM403 1258 367 496C350 176 382 -3 498 -3C606 -3 674 112 649 493L601 1293C594 1377 557 1426 504 1426C445 1426 411 1393 403 1258ZM903 -1C764 -1 636 -24 497 -24C387 -24 343 -1 253 -1C170 -1 106 -11 -5 -31L-7 -27C91 1 156 55 233 501L352 1261C404 1504 464 1560 633 1560C827 1560 943 1502 978 1292L1078 503C1125 126 1219 2 1322 -27L1321 -31C1159 -7 1046 -1 903 -1ZM607 1535ZM936 1655C859 1599 706 1579 597 1579C461 1579 386 1619 348 1655L354 1661C396 1632 482 1615 556 1615C680 1615 814 1663 865 1739ZM604 1534ZM607 1534Z" glyph-name="Aacute" horiz-adv-x="1300" unicode="&#193;" /><glyph d="M304 309V338H716V309ZM304 362V391H716V362ZM403 1258 367 496C350 176 382 -3 498 -3C606 -3 674 112 649 493L601 1293C594 1377 557 1426 504 1426C445 1426 411 1393 403 1258ZM903 -1C764 -1 636 -24 497 -24C387 -24 343 -1 253 -1C170 -1 106 -11 -5 -31L-7 -27C91 1 156 55 233 501L352 1261C404 1504 464 1560 633 1560C827 1560 943 1502 978 1292L1078 503C1125 126 1219 2 1322 -27L1321 -31C1159 -7 1046 -1 903 -1ZM607 1535ZM608 1644C342 1644 237 1663 229 1725H221C221 1653 263 1580 608 1580C953 1580 993 1653 993 1725H985C979 1663 874 1644 608 1644ZM607 1535Z" glyph-name="Abreve" horiz-adv-x="1307" unicode="&#258;" /><glyph d="M304 309V338H716V309ZM304 362V391H716V362ZM403 1258 367 496C350 176 382 -3 498 -3C606 -3 674 112 649 493L601 1293C594 1377 557 1426 504 1426C445 1426 411 1393 403 1258ZM903 -1C764 -1 636 -24 497 -24C387 -24 343 -1 253 -1C170 -1 106 -11 -5 -31L-7 -27C91 1 156 55 233 501L352 1261C404 1504 464 1560 633 1560C827 1560 943 1502 978 1292L1078 503C1125 126 1219 2 1322 -27L1321 -31C1159 -7 1046 -1 903 -1ZM607 1535ZM222 1577C445 1601 556 1628 595 1675C600 1681 602 1685 607 1685C612 1685 614 1681 620 1675C659 1628 795 1601 992 1577L1049 1640C699 1652 625 1706 612 1741H603C589 1706 541 1653 159 1640ZM607 1534Z" glyph-name="Acircumflex" horiz-adv-x="1300" unicode="&#194;" /><glyph d="M304 309V338H716V309ZM304 362V391H716V362ZM403 1258 367 496C350 176 382 -3 498 -3C606 -3 674 112 649 493L601 1293C594 1377 557 1426 504 1426C445 1426 411 1393 403 1258ZM903 -1C764 -1 636 -24 497 -24C387 -24 343 -1 253 -1C170 -1 106 -11 -5 -31L-7 -27C91 1 156 55 233 501L352 1261C404 1504 464 1560 633 1560C827 1560 943 1502 978 1292L1078 503C1125 126 1219 2 1322 -27L1321 -31C1159 -7 1046 -1 903 -1ZM607 1535ZM855 1618C946 1618 993 1634 993 1665C993 1694 946 1710 855 1710C769 1710 722 1694 722 1665C722 1634 769 1618 855 1618ZM361 1618C452 1618 493 1634 493 1665C493 1694 452 1710 361 1710C270 1710 223 1694 223 1665C223 1634 270 1618 361 1618ZM608 1534Z" glyph-name="Adieresis" horiz-adv-x="1300" unicode="&#196;" /><glyph d="M304 309V338H716V309ZM304 362V391H716V362ZM403 1258 367 496C350 176 382 -3 498 -3C606 -3 674 112 649 493L601 1293C594 1377 557 1426 504 1426C445 1426 411 1393 403 1258ZM903 -1C764 -1 636 -24 497 -24C387 -24 343 -1 253 -1C170 -1 106 -11 -5 -31L-7 -27C91 1 156 55 233 501L352 1261C404 1504 464 1560 633 1560C827 1560 943 1502 978 1292L1078 503C1125 126 1219 2 1322 -27L1321 -31C1159 -7 1046 -1 903 -1ZM607 1535ZM276 1655C353 1599 506 1579 615 1579C751 1579 826 1619 864 1655L858 1661C816 1632 730 1615 656 1615C532 1615 398 1663 347 1739ZM608 1534Z" glyph-name="Agrave" horiz-adv-x="1300" unicode="&#192;" /><glyph d="M304 309V338H716V309ZM304 362V391H716V362ZM403 1258 367 496C350 176 382 -3 498 -3C606 -3 674 112 649 493L601 1293C594 1377 557 1426 504 1426C445 1426 411 1393 403 1258ZM903 -1C764 -1 636 -24 497 -24C387 -24 343 -1 253 -1C170 -1 106 -11 -5 -31L-7 -27C91 1 156 55 233 501L352 1261C404 1504 464 1560 633 1560C827 1560 943 1502 978 1292L1078 503C1125 126 1219 2 1322 -27L1321 -31C1159 -7 1046 -1 903 -1ZM607 1535ZM233 1650C215 1660 199 1668 187 1695L193 1699C209 1684 240 1672 309 1672H906C974 1672 1005 1684 1021 1699L1027 1695C1015 1668 1000 1660 982 1650C1000 1639 1015 1631 1027 1604L1021 1600C1005 1615 974 1627 906 1627H309C240 1627 209 1615 193 1600L187 1604C199 1631 215 1639 233 1650ZM607 1535Z" glyph-name="Amacron" horiz-adv-x="1307" unicode="&#256;" /><glyph d="M304 309V338H716V309ZM304 362V391H716V362ZM403 1258 367 496C350 176 382 -3 498 -3C606 -3 674 112 649 493L601 1293C594 1377 557 1426 504 1426C445 1426 411 1393 403 1258ZM903 -1C764 -1 636 -24 497 -24C387 -24 343 -1 253 -1C170 -1 106 -11 -5 -31L-7 -27C91 1 156 55 233 501L352 1261C404 1504 464 1560 633 1560C827 1560 943 1502 978 1292L1078 503C1125 126 1219 2 1322 -27L1321 -31C1159 -7 1046 -1 903 -1ZM607 1535ZM817 1660C817 1637 764 1625 610 1625C455 1625 399 1637 399 1660C399 1682 432 1695 610 1695C784 1695 817 1682 817 1660ZM308 1658C308 1619 349 1578 610 1578C869 1578 908 1619 908 1658C908 1699 857 1725 610 1725C361 1725 308 1699 308 1658ZM607 1535Z" glyph-name="Aring" horiz-adv-x="1307" unicode="&#197;" /><glyph d="M304 309V338H716V309ZM304 362V391H716V362ZM403 1258 367 496C350 176 382 -3 498 -3C606 -3 674 112 649 493L601 1293C594 1377 557 1426 504 1426C445 1426 411 1393 403 1258ZM903 -1C764 -1 636 -24 497 -24C387 -24 343 -1 253 -1C170 -1 106 -11 -5 -31L-7 -27C91 1 156 55 233 501L352 1261C404 1504 464 1560 633 1560C827 1560 943 1502 978 1292L1078 503C1125 126 1219 2 1322 -27L1321 -31C1159 -7 1046 -1 903 -1ZM607 1535ZM339 1665C469 1665 671 1579 853 1579C948 1579 992 1616 992 1654C992 1695 928 1717 875 1724L872 1717C915 1708 927 1689 927 1675C927 1651 906 1638 869 1638C739 1638 537 1724 354 1724C260 1724 216 1688 216 1649C216 1608 280 1586 333 1579L336 1586C293 1595 281 1614 281 1628C281 1652 302 1665 339 1665ZM608 1534Z" glyph-name="Atilde" horiz-adv-x="1300" unicode="&#195;" /><glyph d="M1317 167C1317 20 1102 -26 789 -26C635 -26 507 0 390 0H188V1479L373 1536C489 1536 617 1561 745 1561C1119 1561 1255 1514 1255 1370C1255 1328 1252 1246 1252 1184C1252 1090 1317 1010 1317 946C1317 840 1223 811 852 811C744 811 706 808 706 774C706 739 744 735 870 735C1201 735 1308 716 1308 601C1308 534 1270 443 1270 365C1270 289 1317 218 1317 167ZM578 483C578 75 622 3 768 3C865 3 895 28 895 97C895 162 843 261 843 369C843 495 984 564 984 640C984 676 956 703 858 705C703 708 676 730 676 771C676 823 715 837 841 842C935 846 953 867 953 900C953 959 825 1032 825 1161C825 1272 877 1365 877 1440C877 1505 848 1532 757 1532C639 1532 578 1505 578 1061ZM373 1536 188 1036C188 1481 114 1532 12 1561L13 1565C153 1544 251 1536 373 1536ZM373 0C251 0 152 -8 12 -29L11 -25C114 4 187 55 187 500Z" glyph-name="B" horiz-adv-x="1378" unicode="B" /><glyph d="M626 1561C773 1561 891 1538 996 1538C1050 1538 1100 1546 1152 1564L1155 1560C1065 1490 1022 1387 1022 1203C1022 1083 1022 991 1040 895L1031 894C980 1094 895 1270 825 1384C741 1499 702 1532 643 1532C539 1532 505 1473 505 788C505 89 533 3 629 3C693 3 743 53 829 169C906 295 1009 496 1069 722L1078 721C1055 600 1034 485 1034 301C1034 147 1064 40 1129 -25L1126 -28C1076 -11 1023 -4 973 -4C881 -4 778 -26 650 -26C294 -26 43 77 43 786C43 1466 305 1561 626 1561ZM681 1534ZM657 0Z" glyph-name="C" horiz-adv-x="1171" unicode="C" /><glyph d="M637 -26C286 -26 66 33 66 219C66 310 144 375 144 471C144 589 53 677 53 772C53 867 164 945 164 1065C164 1161 121 1245 121 1343C121 1498 316 1561 638 1561C802 1561 908 1538 1005 1538C1052 1538 1099 1547 1149 1564L1152 1560C1076 1495 1031 1352 1031 1168C1031 1047 1036 974 1049 895L1038 893C987 1093 897 1275 829 1384C762 1475 695 1528 598 1528C519 1528 481 1511 481 1457C481 1370 655 1328 655 1149C655 850 86 904 86 770C86 641 652 747 652 393C652 209 464 167 464 80C464 22 505 3 574 3C697 3 777 64 856 169C934 292 1037 496 1097 722L1106 721C1082 600 1062 485 1062 301C1062 147 1091 34 1157 -25L1154 -28C1104 -11 1051 -4 1001 -4C907 -4 804 -26 637 -26ZM631 0Z" glyph-name="C.2" horiz-adv-x="1178" /><glyph d="M1010 1655C933 1599 780 1579 671 1579C535 1579 460 1619 422 1655L428 1661C470 1632 556 1615 630 1615C754 1615 888 1663 939 1739ZM678 1534ZM681 1534ZM626 1561C773 1561 891 1538 996 1538C1050 1538 1100 1546 1152 1564L1155 1560C1065 1490 1022 1387 1022 1203C1022 1083 1022 991 1040 895L1031 894C980 1094 895 1270 825 1384C741 1499 702 1532 643 1532C539 1532 505 1473 505 788C505 89 533 3 629 3C693 3 743 53 829 169C906 295 1009 496 1069 722L1078 721C1055 600 1034 485 1034 301C1034 147 1064 40 1129 -25L1126 -28C1076 -11 1023 -4 973 -4C881 -4 778 -26 650 -26C294 -26 43 77 43 786C43 1466 305 1561 626 1561ZM681 1534ZM657 0Z" glyph-name="Cacute" horiz-adv-x="1171" unicode="&#262;" /><glyph d="M937 1657C860 1601 707 1581 598 1581C462 1581 387 1621 349 1657L355 1663C397 1634 483 1617 557 1617C681 1617 815 1665 866 1741ZM605 1536ZM608 1536ZM637 -26C286 -26 66 33 66 219C66 310 144 375 144 471C144 589 53 677 53 772C53 867 164 945 164 1065C164 1161 121 1245 121 1343C121 1498 316 1561 638 1561C802 1561 908 1538 1005 1538C1052 1538 1099 1547 1149 1564L1152 1560C1076 1495 1031 1352 1031 1168C1031 1047 1036 974 1049 895L1038 893C987 1093 897 1275 829 1384C762 1475 695 1528 598 1528C519 1528 481 1511 481 1457C481 1370 655 1328 655 1149C655 850 86 904 86 770C86 641 652 747 652 393C652 209 464 167 464 80C464 22 505 3 574 3C697 3 777 64 856 169C934 292 1037 496 1097 722L1106 721C1082 600 1062 485 1062 301C1062 147 1091 34 1157 -25L1154 -28C1104 -11 1051 -4 1001 -4C907 -4 804 -26 637 -26ZM631 0Z" glyph-name="Cacute.2" horiz-adv-x="1178" /><glyph d="M358 1739 295 1677C624 1666 663 1610 676 1576H685C698 1610 760 1667 1060 1677L1003 1739C838 1720 724 1686 693 1642C688 1635 685 1632 680 1632C676 1632 673 1635 668 1642C637 1687 545 1720 358 1739ZM680 1534ZM626 1561C773 1561 891 1538 996 1538C1050 1538 1100 1546 1152 1564L1155 1560C1065 1490 1022 1387 1022 1203C1022 1083 1022 991 1040 895L1031 894C980 1094 895 1270 825 1384C741 1499 702 1532 643 1532C539 1532 505 1473 505 788C505 89 533 3 629 3C693 3 743 53 829 169C906 295 1009 496 1069 722L1078 721C1055 600 1034 485 1034 301C1034 147 1064 40 1129 -25L1126 -28C1076 -11 1023 -4 973 -4C881 -4 778 -26 650 -26C294 -26 43 77 43 786C43 1466 305 1561 626 1561ZM681 1534ZM657 0Z" glyph-name="Ccaron" horiz-adv-x="1171" unicode="&#268;" /><glyph d="M345 1741 282 1679C611 1668 650 1612 663 1578H672C685 1612 747 1669 1047 1679L990 1741C825 1722 711 1688 680 1644C675 1637 672 1634 667 1634C663 1634 660 1637 655 1644C624 1689 532 1722 345 1741ZM667 1536ZM637 -26C286 -26 66 33 66 219C66 310 144 375 144 471C144 589 53 677 53 772C53 867 164 945 164 1065C164 1161 121 1245 121 1343C121 1498 316 1561 638 1561C802 1561 908 1538 1005 1538C1052 1538 1099 1547 1149 1564L1152 1560C1076 1495 1031 1352 1031 1168C1031 1047 1036 974 1049 895L1038 893C987 1093 897 1275 829 1384C762 1475 695 1528 598 1528C519 1528 481 1511 481 1457C481 1370 655 1328 655 1149C655 850 86 904 86 770C86 641 652 747 652 393C652 209 464 167 464 80C464 22 505 3 574 3C697 3 777 64 856 169C934 292 1037 496 1097 722L1106 721C1082 600 1062 485 1062 301C1062 147 1091 34 1157 -25L1154 -28C1104 -11 1051 -4 1001 -4C907 -4 804 -26 637 -26ZM631 0Z" glyph-name="Ccaron.2" horiz-adv-x="1178" /><glyph d="M626 1561C773 1561 891 1538 996 1538C1050 1538 1100 1546 1152 1564L1155 1560C1065 1490 1022 1387 1022 1203C1022 1083 1022 991 1040 895L1031 894C980 1094 895 1270 825 1384C741 1499 702 1532 643 1532C539 1532 505 1473 505 788C505 89 533 3 629 3C693 3 743 53 829 169C906 295 1009 496 1069 722L1078 721C1055 600 1034 485 1034 301C1034 147 1064 40 1129 -25L1126 -28C1076 -11 1023 -4 973 -4C881 -4 778 -26 650 -26C294 -26 43 77 43 786C43 1466 305 1561 626 1561ZM681 1534ZM657 0ZM857 -110C857 -90 840 -78 796 -78C732 -78 697 -94 650 -124C617 -146 584 -165 550 -165C505 -165 489 -126 518 -100L636 0H678L548 -111C534 -123 546 -134 559 -134C575 -134 586 -128 601 -117C671 -71 721 -49 801 -49C893 -49 918 -80 918 -118C918 -183 786 -233 573 -233C399 -233 287 -206 221 -170L297 -86C364 -153 450 -188 578 -188C733 -188 857 -149 857 -110ZM657 0Z" glyph-name="Ccedilla" horiz-adv-x="1171" unicode="&#199;" /><glyph d="M637 -26C286 -26 66 33 66 219C66 310 144 375 144 471C144 589 53 677 53 772C53 867 164 945 164 1065C164 1161 121 1245 121 1343C121 1498 316 1561 638 1561C802 1561 908 1538 1005 1538C1052 1538 1099 1547 1149 1564L1152 1560C1076 1495 1031 1352 1031 1168C1031 1047 1036 974 1049 895L1038 893C987 1093 897 1275 829 1384C762 1475 695 1528 598 1528C519 1528 481 1511 481 1457C481 1370 655 1328 655 1149C655 850 86 904 86 770C86 641 652 747 652 393C652 209 464 167 464 80C464 22 505 3 574 3C697 3 777 64 856 169C934 292 1037 496 1097 722L1106 721C1082 600 1062 485 1062 301C1062 147 1091 34 1157 -25L1154 -28C1104 -11 1051 -4 1001 -4C907 -4 804 -26 637 -26ZM631 0ZM817 -110C817 -90 800 -78 756 -78C692 -78 657 -94 610 -124C577 -146 544 -165 510 -165C465 -165 449 -126 478 -100L596 0H638L508 -111C494 -123 506 -134 519 -134C535 -134 546 -128 561 -117C631 -71 681 -49 761 -49C853 -49 878 -80 878 -118C878 -183 746 -233 533 -233C359 -233 247 -206 181 -170L257 -86C324 -153 410 -188 538 -188C693 -188 817 -149 817 -110ZM617 0Z" glyph-name="Ccedilla.2" horiz-adv-x="1178" /><glyph d="M296 1577C519 1601 630 1628 669 1675C674 1681 676 1685 681 1685C686 1685 688 1681 694 1675C733 1628 869 1601 1066 1577L1123 1640C773 1652 699 1706 686 1741H677C663 1706 615 1653 233 1640ZM681 1534ZM626 1561C773 1561 891 1538 996 1538C1050 1538 1100 1546 1152 1564L1155 1560C1065 1490 1022 1387 1022 1203C1022 1083 1022 991 1040 895L1031 894C980 1094 895 1270 825 1384C741 1499 702 1532 643 1532C539 1532 505 1473 505 788C505 89 533 3 629 3C693 3 743 53 829 169C906 295 1009 496 1069 722L1078 721C1055 600 1034 485 1034 301C1034 147 1064 40 1129 -25L1126 -28C1076 -11 1023 -4 973 -4C881 -4 778 -26 650 -26C294 -26 43 77 43 786C43 1466 305 1561 626 1561ZM681 1534ZM657 0Z" glyph-name="Ccircumflex" horiz-adv-x="1171" unicode="&#264;" /><glyph d="M257 1579C480 1603 591 1630 630 1677C635 1683 637 1687 642 1687C647 1687 649 1683 655 1677C694 1630 830 1603 1027 1579L1084 1642C734 1654 660 1708 647 1743H638C624 1708 576 1655 194 1642ZM642 1536ZM637 -26C286 -26 66 33 66 219C66 310 144 375 144 471C144 589 53 677 53 772C53 867 164 945 164 1065C164 1161 121 1245 121 1343C121 1498 316 1561 638 1561C802 1561 908 1538 1005 1538C1052 1538 1099 1547 1149 1564L1152 1560C1076 1495 1031 1352 1031 1168C1031 1047 1036 974 1049 895L1038 893C987 1093 897 1275 829 1384C762 1475 695 1528 598 1528C519 1528 481 1511 481 1457C481 1370 655 1328 655 1149C655 850 86 904 86 770C86 641 652 747 652 393C652 209 464 167 464 80C464 22 505 3 574 3C697 3 777 64 856 169C934 292 1037 496 1097 722L1106 721C1082 600 1062 485 1062 301C1062 147 1091 34 1157 -25L1154 -28C1104 -11 1051 -4 1001 -4C907 -4 804 -26 637 -26ZM631 0Z" glyph-name="Ccircumflex.2" horiz-adv-x="1178" /><glyph d="M758 -26C648 -26 513 0 390 0H188V1479L373 1536C498 1536 643 1561 756 1561C1133 1561 1347 1498 1347 1343C1347 1250 1305 1170 1305 1080C1305 951 1416 867 1416 772C1416 677 1325 581 1325 456C1325 365 1403 305 1403 217C1403 33 1154 -26 758 -26ZM759 7C934 7 1005 26 1005 83C1005 169 816 209 816 393C816 747 1383 641 1383 770C1383 904 813 850 813 1149C813 1327 988 1367 988 1453C988 1509 922 1528 758 1528C647 1528 578 1504 578 1061V483C578 76 625 7 759 7ZM373 1536 188 1036C188 1481 114 1532 12 1561L13 1565C153 1544 251 1536 373 1536ZM373 0C251 0 152 -8 12 -29L11 -25C114 4 187 55 187 500Z" glyph-name="D" horiz-adv-x="1469" unicode="D" /><glyph d="M493 805C699 837 753 902 851 1232L860 1231C819 956 807 621 860 330L851 329C753 686 699 759 493 788ZM626 1561C798 1561 938 1538 1061 1538C1115 1538 1166 1543 1217 1561L1220 1558C1130 1495 1087 1386 1087 1203C1087 1083 1087 991 1104 895L1096 894C1045 1094 962 1274 890 1384C812 1485 749 1532 655 1532C525 1532 505 1473 505 788C505 88 528 2 638 2C740 2 805 57 893 169C973 292 1074 496 1134 722L1143 721C1119 600 1099 485 1099 301C1099 147 1128 34 1193 -25L1191 -27C1141 -9 1088 -4 1038 -4C926 -4 804 -27 650 -27C294 -27 43 76 43 786C43 1466 305 1561 626 1561ZM687 1534Z" glyph-name="E" horiz-adv-x="1236" unicode="E" /><glyph d="M652 396C652 553 493 617 315 658C142 696 108 716 108 742C108 759 133 766 193 766H384C648 766 726 669 824 313L833 314C782 595 793 948 833 1215L824 1217C726 888 648 795 384 795H193C133 795 108 803 108 819C108 846 141 865 317 906C490 941 655 996 655 1149C655 1328 481 1370 481 1457C481 1511 519 1528 601 1528C700 1528 770 1475 837 1384C905 1275 995 1093 1046 893L1057 895C1043 974 1039 1047 1039 1168C1039 1352 1084 1495 1160 1560L1157 1564C1107 1547 1060 1538 1013 1538C914 1538 807 1561 641 1561C318 1561 121 1498 121 1343C121 1245 164 1161 164 1065C164 950 53 874 53 782C53 684 144 594 144 471C144 375 66 310 66 219C66 33 287 -25 640 -25C810 -25 914 -4 1009 -4C1059 -4 1112 -11 1162 -28L1165 -25C1099 34 1070 147 1070 301C1070 485 1090 600 1114 721L1105 722C1045 496 942 292 865 169C784 64 703 4 578 4C506 4 464 22 464 80C464 167 652 209 652 396ZM661 1534Z" glyph-name="E.2" horiz-adv-x="1185" /><glyph d="M81 855C81 807 106 791 213 791H722C810 791 827 804 827 838C827 970 844 1111 862 1240L852 1241C747 895 644 820 398 820H211C150 820 135 824 135 841C135 866 160 883 302 918C475 954 644 1004 644 1149C644 1328 470 1370 470 1457C470 1511 509 1528 590 1528C690 1528 759 1475 826 1384C894 1275 984 1093 1035 893L1046 895C1032 974 1028 1047 1028 1168C1028 1352 1073 1495 1149 1560L1146 1564C1096 1547 1049 1538 1002 1538C903 1538 796 1561 631 1561C307 1561 111 1498 111 1343C111 1245 153 1161 153 1065C153 971 81 913 81 855ZM81 697C81 636 135 571 135 470C135 375 62 303 62 209C62 33 281 -26 633 -26C802 -26 906 -4 1001 -4C1051 -4 1104 -11 1154 -28L1157 -25C1090 35 1058 147 1058 301C1058 473 1076 580 1099 692L1090 693C1031 479 932 286 856 169C777 64 695 3 570 3C499 3 455 21 455 80C455 166 643 208 643 392C643 542 474 595 300 633C166 661 135 688 135 709C134 728 149 732 211 732H398C644 732 747 658 852 311L862 312C844 441 827 582 827 714C827 748 810 761 722 761H213C106 761 81 745 81 697ZM694 1534Z" glyph-name="E.3" horiz-adv-x="1174" /><glyph d="M1015 1655C938 1599 785 1579 676 1579C540 1579 465 1619 427 1655L433 1661C475 1632 561 1615 635 1615C759 1615 893 1663 944 1739ZM683 1534ZM686 1534ZM493 805C699 837 753 902 851 1232L860 1231C819 956 807 621 860 330L851 329C753 686 699 759 493 788ZM626 1561C798 1561 938 1538 1061 1538C1115 1538 1166 1543 1217 1561L1220 1558C1130 1495 1087 1386 1087 1203C1087 1083 1087 991 1104 895L1096 894C1045 1094 962 1274 890 1384C812 1485 749 1532 655 1532C525 1532 505 1473 505 788C505 88 528 2 638 2C740 2 805 57 893 169C973 292 1074 496 1134 722L1143 721C1119 600 1099 485 1099 301C1099 147 1128 34 1193 -25L1191 -27C1141 -9 1088 -4 1038 -4C926 -4 804 -27 650 -27C294 -27 43 76 43 786C43 1466 305 1561 626 1561ZM687 1534Z" glyph-name="Eacute" horiz-adv-x="1236" unicode="&#201;" /><glyph d="M925 1657C848 1601 695 1581 586 1581C450 1581 375 1621 337 1657L343 1663C385 1634 471 1617 545 1617C669 1617 803 1665 854 1741ZM593 1536ZM596 1536ZM652 396C652 553 493 617 315 658C142 696 108 716 108 742C108 759 133 766 193 766H384C648 766 726 669 824 313L833 314C782 595 793 948 833 1215L824 1217C726 888 648 795 384 795H193C133 795 108 803 108 819C108 846 141 865 317 906C490 941 655 996 655 1149C655 1328 481 1370 481 1457C481 1511 519 1528 601 1528C700 1528 770 1475 837 1384C905 1275 995 1093 1046 893L1057 895C1043 974 1039 1047 1039 1168C1039 1352 1084 1495 1160 1560L1157 1564C1107 1547 1060 1538 1013 1538C914 1538 807 1561 641 1561C318 1561 121 1498 121 1343C121 1245 164 1161 164 1065C164 950 53 874 53 782C53 684 144 594 144 471C144 375 66 310 66 219C66 33 287 -25 640 -25C810 -25 914 -4 1009 -4C1059 -4 1112 -11 1162 -28L1165 -25C1099 34 1070 147 1070 301C1070 485 1090 600 1114 721L1105 722C1045 496 942 292 865 169C784 64 703 4 578 4C506 4 464 22 464 80C464 167 652 209 652 396ZM661 1534Z" glyph-name="Eacute.2" horiz-adv-x="1185" /><glyph d="M923 1657C846 1601 693 1581 584 1581C448 1581 373 1621 335 1657L341 1663C383 1634 469 1617 543 1617C667 1617 801 1665 852 1741ZM591 1536ZM594 1536ZM81 855C81 807 106 791 213 791H722C810 791 827 804 827 838C827 970 844 1111 862 1240L852 1241C747 895 644 820 398 820H211C150 820 135 824 135 841C135 866 160 883 302 918C475 954 644 1004 644 1149C644 1328 470 1370 470 1457C470 1511 509 1528 590 1528C690 1528 759 1475 826 1384C894 1275 984 1093 1035 893L1046 895C1032 974 1028 1047 1028 1168C1028 1352 1073 1495 1149 1560L1146 1564C1096 1547 1049 1538 1002 1538C903 1538 796 1561 631 1561C307 1561 111 1498 111 1343C111 1245 153 1161 153 1065C153 971 81 913 81 855ZM81 697C81 636 135 571 135 470C135 375 62 303 62 209C62 33 281 -26 633 -26C802 -26 906 -4 1001 -4C1051 -4 1104 -11 1154 -28L1157 -25C1090 35 1058 147 1058 301C1058 473 1076 580 1099 692L1090 693C1031 479 932 286 856 169C777 64 695 3 570 3C499 3 455 21 455 80C455 166 643 208 643 392C643 542 474 595 300 633C166 661 135 688 135 709C134 728 149 732 211 732H398C644 732 747 658 852 311L862 312C844 441 827 582 827 714C827 748 810 761 722 761H213C106 761 81 745 81 697ZM694 1534Z" glyph-name="Eacute.3" horiz-adv-x="1174" /><glyph d="M493 805C699 837 753 902 851 1232L860 1231C819 956 807 621 860 330L851 329C753 686 699 759 493 788ZM626 1561C798 1561 938 1538 1061 1538C1115 1538 1166 1543 1217 1561L1220 1558C1130 1495 1087 1386 1087 1203C1087 1083 1087 991 1104 895L1096 894C1045 1094 962 1274 890 1384C812 1485 749 1532 655 1532C525 1532 505 1473 505 788C505 88 528 2 638 2C740 2 805 57 893 169C973 292 1074 496 1134 722L1143 721C1119 600 1099 485 1099 301C1099 147 1128 34 1193 -25L1191 -27C1141 -9 1088 -4 1038 -4C926 -4 804 -27 650 -27C294 -27 43 76 43 786C43 1466 305 1561 626 1561ZM687 1534ZM688 1643C422 1643 317 1662 309 1724H301C301 1652 343 1579 688 1579C1033 1579 1073 1652 1073 1724H1065C1059 1662 954 1643 688 1643ZM687 1534Z" glyph-name="Ebreve" horiz-adv-x="1236" unicode="&#276;" /><glyph d="M364 1739 301 1677C630 1666 669 1610 682 1576H691C704 1610 766 1667 1066 1677L1009 1739C844 1720 730 1686 699 1642C694 1635 691 1632 686 1632C682 1632 679 1635 674 1642C643 1687 551 1720 364 1739ZM686 1534ZM493 805C699 837 753 902 851 1232L860 1231C819 956 807 621 860 330L851 329C753 686 699 759 493 788ZM626 1561C798 1561 938 1538 1061 1538C1115 1538 1166 1543 1217 1561L1220 1558C1130 1495 1087 1386 1087 1203C1087 1083 1087 991 1104 895L1096 894C1045 1094 962 1274 890 1384C812 1485 749 1532 655 1532C525 1532 505 1473 505 788C505 88 528 2 638 2C740 2 805 57 893 169C973 292 1074 496 1134 722L1143 721C1119 600 1099 485 1099 301C1099 147 1128 34 1193 -25L1191 -27C1141 -9 1088 -4 1038 -4C926 -4 804 -27 650 -27C294 -27 43 76 43 786C43 1466 305 1561 626 1561ZM687 1534Z" glyph-name="Ecaron" horiz-adv-x="1236" unicode="&#282;" /><glyph d="M312 1741 249 1679C578 1668 617 1612 630 1578H639C652 1612 714 1669 1014 1679L957 1741C792 1722 678 1688 647 1644C642 1637 639 1634 634 1634C630 1634 627 1637 622 1644C591 1689 499 1722 312 1741ZM634 1536ZM652 396C652 553 493 617 315 658C142 696 108 716 108 742C108 759 133 766 193 766H384C648 766 726 669 824 313L833 314C782 595 793 948 833 1215L824 1217C726 888 648 795 384 795H193C133 795 108 803 108 819C108 846 141 865 317 906C490 941 655 996 655 1149C655 1328 481 1370 481 1457C481 1511 519 1528 601 1528C700 1528 770 1475 837 1384C905 1275 995 1093 1046 893L1057 895C1043 974 1039 1047 1039 1168C1039 1352 1084 1495 1160 1560L1157 1564C1107 1547 1060 1538 1013 1538C914 1538 807 1561 641 1561C318 1561 121 1498 121 1343C121 1245 164 1161 164 1065C164 950 53 874 53 782C53 684 144 594 144 471C144 375 66 310 66 219C66 33 287 -25 640 -25C810 -25 914 -4 1009 -4C1059 -4 1112 -11 1162 -28L1165 -25C1099 34 1070 147 1070 301C1070 485 1090 600 1114 721L1105 722C1045 496 942 292 865 169C784 64 703 4 578 4C506 4 464 22 464 80C464 167 652 209 652 396ZM661 1534Z" glyph-name="Ecaron.2" horiz-adv-x="1185" /><glyph d="M288 1741 225 1679C554 1668 593 1612 606 1578H615C628 1612 690 1669 990 1679L933 1741C768 1722 654 1688 623 1644C618 1637 615 1634 610 1634C606 1634 603 1637 598 1644C567 1689 475 1722 288 1741ZM610 1536ZM81 855C81 807 106 791 213 791H722C810 791 827 804 827 838C827 970 844 1111 862 1240L852 1241C747 895 644 820 398 820H211C150 820 135 824 135 841C135 866 160 883 302 918C475 954 644 1004 644 1149C644 1328 470 1370 470 1457C470 1511 509 1528 590 1528C690 1528 759 1475 826 1384C894 1275 984 1093 1035 893L1046 895C1032 974 1028 1047 1028 1168C1028 1352 1073 1495 1149 1560L1146 1564C1096 1547 1049 1538 1002 1538C903 1538 796 1561 631 1561C307 1561 111 1498 111 1343C111 1245 153 1161 153 1065C153 971 81 913 81 855ZM81 697C81 636 135 571 135 470C135 375 62 303 62 209C62 33 281 -26 633 -26C802 -26 906 -4 1001 -4C1051 -4 1104 -11 1154 -28L1157 -25C1090 35 1058 147 1058 301C1058 473 1076 580 1099 692L1090 693C1031 479 932 286 856 169C777 64 695 3 570 3C499 3 455 21 455 80C455 166 643 208 643 392C643 542 474 595 300 633C166 661 135 688 135 709C134 728 149 732 211 732H398C644 732 747 658 852 311L862 312C844 441 827 582 827 714C827 748 810 761 722 761H213C106 761 81 745 81 697ZM694 1534Z" glyph-name="Ecaron.3" horiz-adv-x="1174" /><glyph d="M302 1577C525 1601 636 1628 675 1675C680 1681 682 1685 687 1685C692 1685 694 1681 700 1675C739 1628 875 1601 1072 1577L1129 1640C779 1652 705 1706 692 1741H683C669 1706 621 1653 239 1640ZM687 1534ZM493 805C699 837 753 902 851 1232L860 1231C819 956 807 621 860 330L851 329C753 686 699 759 493 788ZM626 1561C798 1561 938 1538 1061 1538C1115 1538 1166 1543 1217 1561L1220 1558C1130 1495 1087 1386 1087 1203C1087 1083 1087 991 1104 895L1096 894C1045 1094 962 1274 890 1384C812 1485 749 1532 655 1532C525 1532 505 1473 505 788C505 88 528 2 638 2C740 2 805 57 893 169C973 292 1074 496 1134 722L1143 721C1119 600 1099 485 1099 301C1099 147 1128 34 1193 -25L1191 -27C1141 -9 1088 -4 1038 -4C926 -4 804 -27 650 -27C294 -27 43 76 43 786C43 1466 305 1561 626 1561ZM687 1534Z" glyph-name="Ecircumflex" horiz-adv-x="1236" unicode="&#202;" /><glyph d="M244 1579C467 1603 578 1630 617 1677C622 1683 624 1687 629 1687C634 1687 636 1683 642 1677C681 1630 817 1603 1014 1579L1071 1642C721 1654 647 1708 634 1743H625C611 1708 563 1655 181 1642ZM629 1536ZM652 396C652 553 493 617 315 658C142 696 108 716 108 742C108 759 133 766 193 766H384C648 766 726 669 824 313L833 314C782 595 793 948 833 1215L824 1217C726 888 648 795 384 795H193C133 795 108 803 108 819C108 846 141 865 317 906C490 941 655 996 655 1149C655 1328 481 1370 481 1457C481 1511 519 1528 601 1528C700 1528 770 1475 837 1384C905 1275 995 1093 1046 893L1057 895C1043 974 1039 1047 1039 1168C1039 1352 1084 1495 1160 1560L1157 1564C1107 1547 1060 1538 1013 1538C914 1538 807 1561 641 1561C318 1561 121 1498 121 1343C121 1245 164 1161 164 1065C164 950 53 874 53 782C53 684 144 594 144 471C144 375 66 310 66 219C66 33 287 -25 640 -25C810 -25 914 -4 1009 -4C1059 -4 1112 -11 1162 -28L1165 -25C1099 34 1070 147 1070 301C1070 485 1090 600 1114 721L1105 722C1045 496 942 292 865 169C784 64 703 4 578 4C506 4 464 22 464 80C464 167 652 209 652 396ZM661 1534Z" glyph-name="Ecircumflex.2" horiz-adv-x="1185" /><glyph d="M242 1579C465 1603 576 1630 615 1677C620 1683 622 1687 627 1687C632 1687 634 1683 640 1677C679 1630 815 1603 1012 1579L1069 1642C719 1654 645 1708 632 1743H623C609 1708 561 1655 179 1642ZM627 1536ZM81 855C81 807 106 791 213 791H722C810 791 827 804 827 838C827 970 844 1111 862 1240L852 1241C747 895 644 820 398 820H211C150 820 135 824 135 841C135 866 160 883 302 918C475 954 644 1004 644 1149C644 1328 470 1370 470 1457C470 1511 509 1528 590 1528C690 1528 759 1475 826 1384C894 1275 984 1093 1035 893L1046 895C1032 974 1028 1047 1028 1168C1028 1352 1073 1495 1149 1560L1146 1564C1096 1547 1049 1538 1002 1538C903 1538 796 1561 631 1561C307 1561 111 1498 111 1343C111 1245 153 1161 153 1065C153 971 81 913 81 855ZM81 697C81 636 135 571 135 470C135 375 62 303 62 209C62 33 281 -26 633 -26C802 -26 906 -4 1001 -4C1051 -4 1104 -11 1154 -28L1157 -25C1090 35 1058 147 1058 301C1058 473 1076 580 1099 692L1090 693C1031 479 932 286 856 169C777 64 695 3 570 3C499 3 455 21 455 80C455 166 643 208 643 392C643 542 474 595 300 633C166 661 135 688 135 709C134 728 149 732 211 732H398C644 732 747 658 852 311L862 312C844 441 827 582 827 714C827 748 810 761 722 761H213C106 761 81 745 81 697ZM694 1534Z" glyph-name="Ecircumflex.3" horiz-adv-x="1174" /><glyph d="M934 1618C1025 1618 1072 1634 1072 1665C1072 1694 1025 1710 934 1710C848 1710 801 1694 801 1665C801 1634 848 1618 934 1618ZM440 1618C531 1618 572 1634 572 1665C572 1694 531 1710 440 1710C349 1710 302 1694 302 1665C302 1634 349 1618 440 1618ZM687 1534ZM493 805C699 837 753 902 851 1232L860 1231C819 956 807 621 860 330L851 329C753 686 699 759 493 788ZM626 1561C798 1561 938 1538 1061 1538C1115 1538 1166 1543 1217 1561L1220 1558C1130 1495 1087 1386 1087 1203C1087 1083 1087 991 1104 895L1096 894C1045 1094 962 1274 890 1384C812 1485 749 1532 655 1532C525 1532 505 1473 505 788C505 88 528 2 638 2C740 2 805 57 893 169C973 292 1074 496 1134 722L1143 721C1119 600 1099 485 1099 301C1099 147 1128 34 1193 -25L1191 -27C1141 -9 1088 -4 1038 -4C926 -4 804 -27 650 -27C294 -27 43 76 43 786C43 1466 305 1561 626 1561ZM687 1534Z" glyph-name="Edieresis" horiz-adv-x="1236" unicode="&#203;" /><glyph d="M881 1620C972 1620 1019 1636 1019 1667C1019 1696 972 1712 881 1712C795 1712 748 1696 748 1667C748 1636 795 1620 881 1620ZM387 1620C478 1620 519 1636 519 1667C519 1696 478 1712 387 1712C296 1712 249 1696 249 1667C249 1636 296 1620 387 1620ZM634 1536ZM652 396C652 553 493 617 315 658C142 696 108 716 108 742C108 759 133 766 193 766H384C648 766 726 669 824 313L833 314C782 595 793 948 833 1215L824 1217C726 888 648 795 384 795H193C133 795 108 803 108 819C108 846 141 865 317 906C490 941 655 996 655 1149C655 1328 481 1370 481 1457C481 1511 519 1528 601 1528C700 1528 770 1475 837 1384C905 1275 995 1093 1046 893L1057 895C1043 974 1039 1047 1039 1168C1039 1352 1084 1495 1160 1560L1157 1564C1107 1547 1060 1538 1013 1538C914 1538 807 1561 641 1561C318 1561 121 1498 121 1343C121 1245 164 1161 164 1065C164 950 53 874 53 782C53 684 144 594 144 471C144 375 66 310 66 219C66 33 287 -25 640 -25C810 -25 914 -4 1009 -4C1059 -4 1112 -11 1162 -28L1165 -25C1099 34 1070 147 1070 301C1070 485 1090 600 1114 721L1105 722C1045 496 942 292 865 169C784 64 703 4 578 4C506 4 464 22 464 80C464 167 652 209 652 396ZM661 1534Z" glyph-name="Edieresis.2" horiz-adv-x="1185" /><glyph d="M871 1620C962 1620 1009 1636 1009 1667C1009 1696 962 1712 871 1712C785 1712 738 1696 738 1667C738 1636 785 1620 871 1620ZM377 1620C468 1620 509 1636 509 1667C509 1696 468 1712 377 1712C286 1712 239 1696 239 1667C239 1636 286 1620 377 1620ZM624 1536ZM81 855C81 807 106 791 213 791H722C810 791 827 804 827 838C827 970 844 1111 862 1240L852 1241C747 895 644 820 398 820H211C150 820 135 824 135 841C135 866 160 883 302 918C475 954 644 1004 644 1149C644 1328 470 1370 470 1457C470 1511 509 1528 590 1528C690 1528 759 1475 826 1384C894 1275 984 1093 1035 893L1046 895C1032 974 1028 1047 1028 1168C1028 1352 1073 1495 1149 1560L1146 1564C1096 1547 1049 1538 1002 1538C903 1538 796 1561 631 1561C307 1561 111 1498 111 1343C111 1245 153 1161 153 1065C153 971 81 913 81 855ZM81 697C81 636 135 571 135 470C135 375 62 303 62 209C62 33 281 -26 633 -26C802 -26 906 -4 1001 -4C1051 -4 1104 -11 1154 -28L1157 -25C1090 35 1058 147 1058 301C1058 473 1076 580 1099 692L1090 693C1031 479 932 286 856 169C777 64 695 3 570 3C499 3 455 21 455 80C455 166 643 208 643 392C643 542 474 595 300 633C166 661 135 688 135 709C134 728 149 732 211 732H398C644 732 747 658 852 311L862 312C844 441 827 582 827 714C827 748 810 761 722 761H213C106 761 81 745 81 697ZM694 1534Z" glyph-name="Edieresis.3" horiz-adv-x="1174" /><glyph d="M493 805C699 837 753 902 851 1232L860 1231C819 956 807 621 860 330L851 329C753 686 699 759 493 788ZM626 1561C798 1561 938 1538 1061 1538C1115 1538 1166 1543 1217 1561L1220 1558C1130 1495 1087 1386 1087 1203C1087 1083 1087 991 1104 895L1096 894C1045 1094 962 1274 890 1384C812 1485 749 1532 655 1532C525 1532 505 1473 505 788C505 88 528 2 638 2C740 2 805 57 893 169C973 292 1074 496 1134 722L1143 721C1119 600 1099 485 1099 301C1099 147 1128 34 1193 -25L1191 -27C1141 -9 1088 -4 1038 -4C926 -4 804 -27 650 -27C294 -27 43 76 43 786C43 1466 305 1561 626 1561ZM687 1534ZM355 1655C432 1599 585 1579 694 1579C830 1579 905 1619 943 1655L937 1661C895 1632 809 1615 735 1615C611 1615 477 1663 426 1739ZM687 1534Z" glyph-name="Egrave" horiz-adv-x="1236" unicode="&#200;" /><glyph d="M652 396C652 553 493 617 315 658C142 696 108 716 108 742C108 759 133 766 193 766H384C648 766 726 669 824 313L833 314C782 595 793 948 833 1215L824 1217C726 888 648 795 384 795H193C133 795 108 803 108 819C108 846 141 865 317 906C490 941 655 996 655 1149C655 1328 481 1370 481 1457C481 1511 519 1528 601 1528C700 1528 770 1475 837 1384C905 1275 995 1093 1046 893L1057 895C1043 974 1039 1047 1039 1168C1039 1352 1084 1495 1160 1560L1157 1564C1107 1547 1060 1538 1013 1538C914 1538 807 1561 641 1561C318 1561 121 1498 121 1343C121 1245 164 1161 164 1065C164 950 53 874 53 782C53 684 144 594 144 471C144 375 66 310 66 219C66 33 287 -25 640 -25C810 -25 914 -4 1009 -4C1059 -4 1112 -11 1162 -28L1165 -25C1099 34 1070 147 1070 301C1070 485 1090 600 1114 721L1105 722C1045 496 942 292 865 169C784 64 703 4 578 4C506 4 464 22 464 80C464 167 652 209 652 396ZM661 1534ZM280 1665C357 1609 510 1589 619 1589C755 1589 830 1629 868 1665L862 1671C820 1642 734 1625 660 1625C536 1625 402 1673 351 1749ZM612 1544Z" glyph-name="Egrave.2" horiz-adv-x="1185" /><glyph d="M81 855C81 807 106 791 213 791H722C810 791 827 804 827 838C827 970 844 1111 862 1240L852 1241C747 895 644 820 398 820H211C150 820 135 824 135 841C135 866 160 883 302 918C475 954 644 1004 644 1149C644 1328 470 1370 470 1457C470 1511 509 1528 590 1528C690 1528 759 1475 826 1384C894 1275 984 1093 1035 893L1046 895C1032 974 1028 1047 1028 1168C1028 1352 1073 1495 1149 1560L1146 1564C1096 1547 1049 1538 1002 1538C903 1538 796 1561 631 1561C307 1561 111 1498 111 1343C111 1245 153 1161 153 1065C153 971 81 913 81 855ZM81 697C81 636 135 571 135 470C135 375 62 303 62 209C62 33 281 -26 633 -26C802 -26 906 -4 1001 -4C1051 -4 1104 -11 1154 -28L1157 -25C1090 35 1058 147 1058 301C1058 473 1076 580 1099 692L1090 693C1031 479 932 286 856 169C777 64 695 3 570 3C499 3 455 21 455 80C455 166 643 208 643 392C643 542 474 595 300 633C166 661 135 688 135 709C134 728 149 732 211 732H398C644 732 747 658 852 311L862 312C844 441 827 582 827 714C827 748 810 761 722 761H213C106 761 81 745 81 697ZM694 1534ZM290 1657C367 1601 520 1581 629 1581C765 1581 840 1621 878 1657L872 1663C830 1634 744 1617 670 1617C546 1617 412 1665 361 1741ZM622 1536Z" glyph-name="Egrave.3" horiz-adv-x="1174" /><glyph d="M493 805C699 837 753 902 851 1232L860 1231C819 956 807 621 860 330L851 329C753 686 699 759 493 788ZM626 1561C798 1561 938 1538 1061 1538C1115 1538 1166 1543 1217 1561L1220 1558C1130 1495 1087 1386 1087 1203C1087 1083 1087 991 1104 895L1096 894C1045 1094 962 1274 890 1384C812 1485 749 1532 655 1532C525 1532 505 1473 505 788C505 88 528 2 638 2C740 2 805 57 893 169C973 292 1074 496 1134 722L1143 721C1119 600 1099 485 1099 301C1099 147 1128 34 1193 -25L1191 -27C1141 -9 1088 -4 1038 -4C926 -4 804 -27 650 -27C294 -27 43 76 43 786C43 1466 305 1561 626 1561ZM687 1534ZM313 1649C295 1659 279 1667 267 1694L273 1698C289 1683 320 1671 389 1671H986C1054 1671 1085 1683 1101 1698L1107 1694C1095 1667 1080 1659 1062 1649C1080 1638 1095 1630 1107 1603L1101 1599C1085 1614 1054 1626 986 1626H389C320 1626 289 1614 273 1599L267 1603C279 1630 295 1638 313 1649ZM687 1534Z" glyph-name="Emacron" horiz-adv-x="1236" unicode="&#274;" /><glyph d="M551 765C750 796 799 863 896 1192L906 1191C864 916 852 581 906 290L896 288C799 644 750 720 551 748ZM692 1527C615 1527 578 1506 578 1360V1H188V1537H379C509 1537 603 1556 691 1556C846 1556 1003 1537 1128 1537C1178 1537 1231 1542 1282 1560L1284 1557C1207 1492 1163 1385 1163 1195C1163 974 1175 816 1207 648L1196 646C1116 941 1013 1204 927 1364C860 1480 780 1527 692 1527ZM373 1536 188 1036C188 1481 114 1532 12 1561L13 1565C153 1544 251 1536 373 1536ZM390 0 575 500C575 55 649 4 751 -25L750 -29C610 -8 512 0 390 0ZM373 0C251 0 152 -8 12 -29L11 -25C114 4 187 55 187 500Z" glyph-name="F" horiz-adv-x="1303" unicode="F" /><glyph d="M53 772C53 867 164 945 164 1065C164 1161 121 1245 121 1343C121 1498 321 1561 651 1561C833 1561 950 1538 1057 1538C1104 1538 1151 1544 1201 1561L1204 1559C1127 1494 1083 1352 1083 1168C1083 1047 1087 974 1100 895L1090 893C1040 1088 938 1250 874 1349C776 1468 672 1528 586 1528C521 1528 481 1511 481 1457C481 1370 655 1328 655 1149C655 850 86 904 86 770C86 641 652 747 652 393C652 209 464 169 464 83C464 24 530 6 688 6C852 6 921 52 921 130C921 215 814 328 814 498V774H1204V505C1204 314 1230 196 1267 -27H1258C1142 243 1028 358 968 358C937 358 928 341 929 314C929 267 955 186 955 133C955 43 886 -27 688 -27C307 -27 66 31 66 217C66 305 144 365 144 456C144 581 53 677 53 772ZM1019 774C1126 774 1210 783 1336 802L1337 798C1266 769 1204 739 1204 505ZM1001 774 814 498C814 719 761 766 644 798L646 802C784 782 881 774 1001 774Z" glyph-name="G" horiz-adv-x="1338" unicode="G" /><glyph d="M423 791V819H1295V791ZM423 737V766H1295V737ZM188 0V1536H578V0ZM1028 0V1536H1422V0ZM390 0 578 500C578 35 681 -2 808 -2V-23C637 -23 529 0 390 0ZM1216 0C1078 0 969 -23 808 -23V-2C934 -2 1028 35 1028 500ZM390 1536C529 1536 637 1559 808 1559V1538C681 1538 578 1501 578 1036ZM1216 1536 1028 1036C1028 1501 934 1538 808 1538V1559C969 1559 1078 1536 1216 1536ZM373 1536 188 1036C188 1481 114 1532 12 1561L13 1565C153 1544 251 1536 373 1536ZM1234 0 1419 500C1419 55 1493 4 1595 -25L1594 -29C1454 -8 1356 0 1234 0ZM373 0C251 0 152 -8 12 -29L11 -25C114 4 187 55 187 500ZM1233 1536C1355 1536 1454 1544 1594 1565L1595 1561C1492 1532 1419 1481 1419 1036Z" glyph-name="H" horiz-adv-x="1606" unicode="H" /><glyph d="M188 0V1536H578V0ZM390 0 575 500C575 55 649 4 751 -25L750 -29C610 -8 512 0 390 0ZM373 1536 188 1036C188 1481 114 1532 12 1561L13 1565C153 1544 251 1536 373 1536ZM393 1536C515 1536 614 1544 754 1565L755 1561C652 1532 579 1481 579 1036ZM373 0C251 0 152 -8 12 -29L11 -25C114 4 187 55 187 500ZM379 1535Z" glyph-name="I" horiz-adv-x="766" unicode="I" /><glyph d="M188 0V1536H578V0ZM390 0 575 500C575 55 649 4 751 -25L750 -29C610 -8 512 0 390 0ZM373 1536 188 1036C188 1481 114 1532 12 1561L13 1565C153 1544 251 1536 373 1536ZM393 1536C515 1536 614 1544 754 1565L755 1561C652 1532 579 1481 579 1036ZM373 0C251 0 152 -8 12 -29L11 -25C114 4 187 55 187 500ZM379 1535ZM707 1655C630 1599 477 1579 368 1579C232 1579 157 1619 119 1655L125 1661C167 1632 253 1615 327 1615C451 1615 585 1663 636 1739ZM375 1534ZM378 1534Z" glyph-name="Iacute" horiz-adv-x="766" unicode="&#205;" /><glyph d="M188 0V1536H578V0ZM390 0 575 500C575 55 649 4 751 -25L750 -29C610 -8 512 0 390 0ZM373 1536 188 1036C188 1481 114 1532 12 1561L13 1565C153 1544 251 1536 373 1536ZM393 1536C515 1536 614 1544 754 1565L755 1561C652 1532 579 1481 579 1036ZM373 0C251 0 152 -8 12 -29L11 -25C114 4 187 55 187 500ZM379 1535ZM380 1644C114 1644 9 1663 1 1725H-7C-7 1653 35 1580 380 1580C725 1580 765 1653 765 1725H757C751 1663 646 1644 380 1644ZM379 1535Z" glyph-name="Ibreve" horiz-adv-x="766" unicode="&#300;" /><glyph d="M188 0V1536H578V0ZM390 0 575 500C575 55 649 4 751 -25L750 -29C610 -8 512 0 390 0ZM373 1536 188 1036C188 1481 114 1532 12 1561L13 1565C153 1544 251 1536 373 1536ZM393 1536C515 1536 614 1544 754 1565L755 1561C652 1532 579 1481 579 1036ZM373 0C251 0 152 -8 12 -29L11 -25C114 4 187 55 187 500ZM379 1535ZM-6 1577C217 1601 328 1628 367 1675C372 1681 374 1685 379 1685C384 1685 386 1681 392 1675C431 1628 567 1601 764 1577L821 1640C471 1652 397 1706 384 1741H375C361 1706 313 1653 -69 1640ZM379 1534Z" glyph-name="Icircumflex" horiz-adv-x="766" unicode="&#206;" /><glyph d="M188 0V1536H578V0ZM390 0 575 500C575 55 649 4 751 -25L750 -29C610 -8 512 0 390 0ZM373 1536 188 1036C188 1481 114 1532 12 1561L13 1565C153 1544 251 1536 373 1536ZM393 1536C515 1536 614 1544 754 1565L755 1561C652 1532 579 1481 579 1036ZM373 0C251 0 152 -8 12 -29L11 -25C114 4 187 55 187 500ZM379 1535ZM626 1618C717 1618 764 1634 764 1665C764 1694 717 1710 626 1710C540 1710 493 1694 493 1665C493 1634 540 1618 626 1618ZM132 1618C223 1618 264 1634 264 1665C264 1694 223 1710 132 1710C41 1710 -6 1694 -6 1665C-6 1634 41 1618 132 1618ZM379 1534Z" glyph-name="Idieresis" horiz-adv-x="766" unicode="&#207;" /><glyph d="M188 0V1536H578V0ZM390 0 575 500C575 55 649 4 751 -25L750 -29C610 -8 512 0 390 0ZM373 1536 188 1036C188 1481 114 1532 12 1561L13 1565C153 1544 251 1536 373 1536ZM393 1536C515 1536 614 1544 754 1565L755 1561C652 1532 579 1481 579 1036ZM373 0C251 0 152 -8 12 -29L11 -25C114 4 187 55 187 500ZM379 1535ZM47 1655C124 1599 277 1579 386 1579C522 1579 597 1619 635 1655L629 1661C587 1632 501 1615 427 1615C303 1615 169 1663 118 1739ZM379 1534Z" glyph-name="Igrave" horiz-adv-x="766" unicode="&#204;" /><glyph d="M188 0V1536H578V0ZM390 0 575 500C575 55 649 4 751 -25L750 -29C610 -8 512 0 390 0ZM373 1536 188 1036C188 1481 114 1532 12 1561L13 1565C153 1544 251 1536 373 1536ZM393 1536C515 1536 614 1544 754 1565L755 1561C652 1532 579 1481 579 1036ZM373 0C251 0 152 -8 12 -29L11 -25C114 4 187 55 187 500ZM379 1535ZM5 1650C-13 1660 -29 1668 -41 1695L-35 1699C-19 1684 12 1672 81 1672H678C746 1672 777 1684 793 1699L799 1695C787 1668 772 1660 754 1650C772 1639 787 1631 799 1604L793 1600C777 1615 746 1627 678 1627H81C12 1627 -19 1615 -35 1600L-41 1604C-29 1631 -13 1639 5 1650ZM379 1535Z" glyph-name="Imacron" horiz-adv-x="766" unicode="&#298;" /><glyph d="M188 0V1536H578V0ZM390 0 575 500C575 55 649 4 751 -25L750 -29C610 -8 512 0 390 0ZM373 1536 188 1036C188 1481 114 1532 12 1561L13 1565C153 1544 251 1536 373 1536ZM393 1536C515 1536 614 1544 754 1565L755 1561C652 1532 579 1481 579 1036ZM373 0C251 0 152 -8 12 -29L11 -25C114 4 187 55 187 500ZM379 1535ZM110 1665C240 1665 442 1579 624 1579C719 1579 763 1616 763 1654C763 1695 699 1717 646 1724L643 1717C686 1708 698 1689 698 1675C698 1651 677 1638 640 1638C510 1638 308 1724 125 1724C31 1724 -13 1688 -13 1649C-13 1608 51 1586 104 1579L107 1586C64 1595 52 1614 52 1628C52 1652 73 1665 110 1665ZM379 1534Z" glyph-name="Itilde" horiz-adv-x="766" unicode="&#296;" /><glyph d="M309 -27C99 -27 44 22 44 155C44 260 145 577 135 818C135 869 128 913 113 957H144C157 923 169 873 169 818C176 570 77 247 77 149C77 60 129 21 212 21C298 21 344 64 344 157C344 272 259 647 259 960V1536H650V962C650 654 740 347 740 200C740 53 620 -27 309 -27ZM445 1536 260 1036C260 1481 186 1532 84 1561L85 1565C225 1544 323 1536 445 1536ZM465 1536C587 1536 686 1544 826 1565L827 1561C724 1532 651 1481 651 1036Z" glyph-name="J" horiz-adv-x="830" /><glyph d="M334 826 149 556C149 791 88 821 16 850L17 854C143 835 227 826 334 826ZM696 850C588 820 540 771 540 550L352 826C468 826 561 834 694 854ZM1143 751C1143 507 1234 401 1234 253C1234 50 1010 -27 660 -27C466 -27 399 49 399 146C399 211 425 308 425 365C425 392 416 409 386 409C325 409 229 277 95 -27H87C129 219 149 348 149 556V826H540V550C540 361 432 239 432 143C432 57 496 6 660 6C783 6 841 52 841 191C841 316 752 506 752 712V1536H1143ZM937 1536 752 1036C752 1481 678 1532 576 1561L577 1565C717 1544 815 1536 937 1536ZM957 1536C1079 1536 1178 1544 1318 1565L1319 1561C1216 1532 1143 1481 1143 1036Z" glyph-name="J.2" horiz-adv-x="1323" unicode="J" /><glyph d="M188 0V1536H578V0ZM390 1536C520 1536 622 1561 782 1561V1542C670 1542 578 1505 578 1036ZM730 637C796 742 838 848 887 1047C964 1366 925 1542 782 1542V1561C948 1561 1020 1536 1167 1536C1282 1536 1396 1536 1546 1565L1549 1561C1406 1525 1321 1462 1034 1038C891 825 842 755 761 627C752 613 758 606 769 606C785 606 790 612 800 626C1012 940 1122 993 1245 993C1350 993 1408 948 1408 858C1408 611 1147 188 1147 78C1147 36 1164 9 1249 9C1346 9 1405 49 1405 137C1405 225 1363 296 1223 324L1240 346C1377 317 1439 238 1439 139C1439 16 1362 -27 1164 -27C909 -27 755 15 755 175C755 442 1232 775 1232 910C1232 933 1223 945 1194 945C1132 945 1027 889 838 618C820 591 802 575 767 575C729 575 706 598 730 637ZM373 1536 188 1036C188 1481 114 1532 12 1561L13 1565C153 1544 251 1536 373 1536ZM393 0 578 500C578 55 652 4 754 -25L753 -29C613 -8 515 0 393 0ZM373 0C251 0 152 -8 12 -29L11 -25C114 4 187 55 187 500Z" glyph-name="K" horiz-adv-x="1529" unicode="K" /><glyph d="M663 2C732 2 772 51 858 209C929 364 1019 597 1099 890L1110 889C1077 721 1066 563 1066 305C1066 152 1110 45 1186 -20L1184 -23C1134 -5 1081 0 1030 0C925 0 809 -27 662 -27C582 -27 497 0 379 0H188V1536H578V177C578 24 605 2 663 2ZM373 1536 188 1036C188 1481 114 1532 12 1561L13 1565C153 1544 251 1536 373 1536ZM393 1536C515 1536 614 1544 754 1565L755 1561C652 1532 579 1481 579 1036ZM373 0C251 0 152 -8 12 -29L11 -25C114 4 187 55 187 500Z" glyph-name="L" horiz-adv-x="1199" unicode="L" /><glyph d="M233 0C338 0 419 -10 542 -29L543 -25C428 9 337 61 331 466L321 1323C319 1424 345 1459 386 1459C433 1459 457 1433 465 1331C465 1324 523 250 524 240C539 45 598 -21 819 -21C1047 -21 1112 62 1117 270C1117 279 1135 1307 1135 1327C1137 1426 1167 1459 1210 1459C1260 1459 1280 1424 1280 1328L1281 503C1282 59 1236 5 1118 -25L1120 -30C1263 -7 1369 0 1499 0C1641 0 1760 -5 1919 -30L1920 -25C1809 3 1736 85 1704 503L1646 1287C1629 1479 1537 1561 1349 1561C1165 1561 1094 1504 1090 1334C1090 1315 1067 285 1067 267C1062 116 1035 74 978 74C929 74 902 103 893 212C892 231 838 1282 837 1300C824 1504 699 1561 525 1561C345 1561 293 1485 273 1337L187 464C144 59 78 1 -13 -25L-12 -29C92 -9 151 0 233 0Z" glyph-name="M" horiz-adv-x="1907" unicode="M" /><glyph d="M916 1561 914 1556C1020 1527 1090 1449 1175 1038L1305 319C1358 139 1285 81 1221 81C1167 81 1138 99 1104 232L924 1246C868 1484 739 1561 527 1561C306 1561 208 1465 209 1232L211 461C213 51 94 1 8 -25L9 -29C134 -5 211 0 308 0C421 0 503 -8 633 -29L635 -25C508 11 457 47 387 459L278 1218C240 1375 292 1446 357 1446C415 1446 446 1411 476 1289L656 262C706 57 839 -27 1071 -27C1279 -27 1378 74 1369 284L1345 1034C1329 1496 1443 1529 1532 1556L1531 1561C1410 1543 1334 1532 1224 1532C1128 1532 1047 1537 916 1561ZM858 1534Z" glyph-name="N" horiz-adv-x="1544" unicode="N" /><glyph d="M1187 1655C1110 1599 957 1579 848 1579C712 1579 637 1619 599 1655L605 1661C647 1632 733 1615 807 1615C931 1615 1065 1663 1116 1739ZM855 1534ZM858 1534ZM916 1561 914 1556C1020 1527 1090 1449 1175 1038L1305 319C1358 139 1285 81 1221 81C1167 81 1138 99 1104 232L924 1246C868 1484 739 1561 527 1561C306 1561 208 1465 209 1232L211 461C213 51 94 1 8 -25L9 -29C134 -5 211 0 308 0C421 0 503 -8 633 -29L635 -25C508 11 457 47 387 459L278 1218C240 1375 292 1446 357 1446C415 1446 446 1411 476 1289L656 262C706 57 839 -27 1071 -27C1279 -27 1378 74 1369 284L1345 1034C1329 1496 1443 1529 1532 1556L1531 1561C1410 1543 1334 1532 1224 1532C1128 1532 1047 1537 916 1561ZM858 1534Z" glyph-name="Nacute" horiz-adv-x="1544" unicode="&#323;" /><glyph d="M536 1739 473 1677C802 1666 841 1610 854 1576H863C876 1610 938 1667 1238 1677L1181 1739C1016 1720 902 1686 871 1642C866 1635 863 1632 858 1632C854 1632 851 1635 846 1642C815 1687 723 1720 536 1739ZM858 1534ZM916 1561 914 1556C1020 1527 1090 1449 1175 1038L1305 319C1358 139 1285 81 1221 81C1167 81 1138 99 1104 232L924 1246C868 1484 739 1561 527 1561C306 1561 208 1465 209 1232L211 461C213 51 94 1 8 -25L9 -29C134 -5 211 0 308 0C421 0 503 -8 633 -29L635 -25C508 11 457 47 387 459L278 1218C240 1375 292 1446 357 1446C415 1446 446 1411 476 1289L656 262C706 57 839 -27 1071 -27C1279 -27 1378 74 1369 284L1345 1034C1329 1496 1443 1529 1532 1556L1531 1561C1410 1543 1334 1532 1224 1532C1128 1532 1047 1537 916 1561ZM858 1534Z" glyph-name="Ncaron" horiz-adv-x="1544" unicode="&#327;" /><glyph d="M916 1561 914 1556C1020 1527 1090 1449 1175 1038L1305 319C1358 139 1285 81 1221 81C1167 81 1138 99 1104 232L924 1246C868 1484 739 1561 527 1561C306 1561 208 1465 209 1232L211 461C213 51 94 1 8 -25L9 -29C134 -5 211 0 308 0C421 0 503 -8 633 -29L635 -25C508 11 457 47 387 459L278 1218C240 1375 292 1446 357 1446C415 1446 446 1411 476 1289L656 262C706 57 839 -27 1071 -27C1279 -27 1378 74 1369 284L1345 1034C1329 1496 1443 1529 1532 1556L1531 1561C1410 1543 1334 1532 1224 1532C1128 1532 1047 1537 916 1561ZM858 1534ZM590 1665C720 1665 922 1579 1104 1579C1199 1579 1243 1616 1243 1654C1243 1695 1179 1717 1126 1724L1123 1717C1166 1708 1178 1689 1178 1675C1178 1651 1157 1638 1120 1638C990 1638 788 1724 605 1724C511 1724 467 1688 467 1649C467 1608 531 1586 584 1579L587 1586C544 1595 532 1614 532 1628C532 1652 553 1665 590 1665ZM859 1534Z" glyph-name="Ntilde" horiz-adv-x="1544" unicode="&#209;" /><glyph d="M720 -26C320 -26 66 32 66 217C66 305 144 365 144 456C144 581 53 677 53 772C53 867 164 951 164 1080C164 1170 121 1250 121 1343C121 1498 339 1561 720 1561C1102 1561 1321 1498 1321 1343C1321 1250 1278 1170 1278 1080C1278 951 1389 867 1389 772C1389 677 1299 581 1299 456C1299 365 1376 305 1376 217C1376 32 1123 -26 720 -26ZM720 7C902 7 979 25 979 84C979 170 790 210 790 393C790 747 1356 641 1356 770C1356 904 787 850 787 1149C787 1327 962 1367 962 1453C962 1510 890 1528 720 1528C551 1528 481 1510 481 1453C481 1367 655 1327 655 1149C655 850 86 904 86 770C86 641 652 747 652 393C652 210 464 170 464 84C464 25 540 7 720 7ZM719 1534Z" glyph-name="O" horiz-adv-x="1443" unicode="O" /><glyph d="M630 1561C1029 1561 1218 1399 1218 780C1218 141 1033 -26 631 -26C229 -26 43 141 43 780C43 1399 230 1561 630 1561ZM630 1533C533 1533 502 1471 502 782C502 81 534 3 631 3C728 3 759 81 759 782C759 1471 728 1533 630 1533Z" glyph-name="O.2" horiz-adv-x="1261" /><glyph d="M1048 1655C971 1599 818 1579 709 1579C573 1579 498 1619 460 1655L466 1661C508 1632 594 1615 668 1615C792 1615 926 1663 977 1739ZM716 1534ZM719 1534ZM720 -26C320 -26 66 32 66 217C66 305 144 365 144 456C144 581 53 677 53 772C53 867 164 951 164 1080C164 1170 121 1250 121 1343C121 1498 339 1561 720 1561C1102 1561 1321 1498 1321 1343C1321 1250 1278 1170 1278 1080C1278 951 1389 867 1389 772C1389 677 1299 581 1299 456C1299 365 1376 305 1376 217C1376 32 1123 -26 720 -26ZM720 7C902 7 979 25 979 84C979 170 790 210 790 393C790 747 1356 641 1356 770C1356 904 787 850 787 1149C787 1327 962 1367 962 1453C962 1510 890 1528 720 1528C551 1528 481 1510 481 1453C481 1367 655 1327 655 1149C655 850 86 904 86 770C86 641 652 747 652 393C652 210 464 170 464 84C464 25 540 7 720 7ZM719 1534Z" glyph-name="Oacute" horiz-adv-x="1443" unicode="&#211;" /><glyph d="M630 1561C1029 1561 1218 1399 1218 780C1218 141 1033 -26 631 -26C229 -26 43 141 43 780C43 1399 230 1561 630 1561ZM630 1533C533 1533 502 1471 502 782C502 81 534 3 631 3C728 3 759 81 759 782C759 1471 728 1533 630 1533ZM959 1657C882 1601 729 1581 620 1581C484 1581 409 1621 371 1657L377 1663C419 1634 505 1617 579 1617C703 1617 837 1665 888 1741ZM627 1536ZM630 1536Z" glyph-name="Oacute.2" horiz-adv-x="1261" /><glyph d="M720 -26C320 -26 66 32 66 217C66 305 144 365 144 456C144 581 53 677 53 772C53 867 164 951 164 1080C164 1170 121 1250 121 1343C121 1498 339 1561 720 1561C1102 1561 1321 1498 1321 1343C1321 1250 1278 1170 1278 1080C1278 951 1389 867 1389 772C1389 677 1299 581 1299 456C1299 365 1376 305 1376 217C1376 32 1123 -26 720 -26ZM720 7C902 7 979 25 979 84C979 170 790 210 790 393C790 747 1356 641 1356 770C1356 904 787 850 787 1149C787 1327 962 1367 962 1453C962 1510 890 1528 720 1528C551 1528 481 1510 481 1453C481 1367 655 1327 655 1149C655 850 86 904 86 770C86 641 652 747 652 393C652 210 464 170 464 84C464 25 540 7 720 7ZM719 1534ZM721 1643C455 1643 350 1662 342 1724H334C334 1652 376 1579 721 1579C1066 1579 1106 1652 1106 1724H1098C1092 1662 987 1643 721 1643ZM720 1534Z" glyph-name="Obreve" horiz-adv-x="1443" unicode="&#334;" /><glyph d="M334 1577C557 1601 668 1628 707 1675C712 1681 714 1685 719 1685C724 1685 726 1681 732 1675C771 1628 907 1601 1104 1577L1161 1640C811 1652 737 1706 724 1741H715C701 1706 653 1653 271 1640ZM719 1534ZM720 -26C320 -26 66 32 66 217C66 305 144 365 144 456C144 581 53 677 53 772C53 867 164 951 164 1080C164 1170 121 1250 121 1343C121 1498 339 1561 720 1561C1102 1561 1321 1498 1321 1343C1321 1250 1278 1170 1278 1080C1278 951 1389 867 1389 772C1389 677 1299 581 1299 456C1299 365 1376 305 1376 217C1376 32 1123 -26 720 -26ZM720 7C902 7 979 25 979 84C979 170 790 210 790 393C790 747 1356 641 1356 770C1356 904 787 850 787 1149C787 1327 962 1367 962 1453C962 1510 890 1528 720 1528C551 1528 481 1510 481 1453C481 1367 655 1327 655 1149C655 850 86 904 86 770C86 641 652 747 652 393C652 210 464 170 464 84C464 25 540 7 720 7ZM719 1534Z" glyph-name="Ocircumflex" horiz-adv-x="1443" unicode="&#212;" /><glyph d="M630 1561C1029 1561 1218 1399 1218 780C1218 141 1033 -26 631 -26C229 -26 43 141 43 780C43 1399 230 1561 630 1561ZM630 1533C533 1533 502 1471 502 782C502 81 534 3 631 3C728 3 759 81 759 782C759 1471 728 1533 630 1533ZM248 1579C471 1603 582 1630 621 1677C626 1683 628 1687 633 1687C638 1687 640 1683 646 1677C685 1630 821 1603 1018 1579L1075 1642C725 1654 651 1708 638 1743H629C615 1708 567 1655 185 1642ZM633 1536Z" glyph-name="Ocircumflex.2" horiz-adv-x="1261" /><glyph d="M967 1618C1058 1618 1105 1634 1105 1665C1105 1694 1058 1710 967 1710C881 1710 834 1694 834 1665C834 1634 881 1618 967 1618ZM473 1618C564 1618 605 1634 605 1665C605 1694 564 1710 473 1710C382 1710 335 1694 335 1665C335 1634 382 1618 473 1618ZM720 1534ZM720 -26C320 -26 66 32 66 217C66 305 144 365 144 456C144 581 53 677 53 772C53 867 164 951 164 1080C164 1170 121 1250 121 1343C121 1498 339 1561 720 1561C1102 1561 1321 1498 1321 1343C1321 1250 1278 1170 1278 1080C1278 951 1389 867 1389 772C1389 677 1299 581 1299 456C1299 365 1376 305 1376 217C1376 32 1123 -26 720 -26ZM720 7C902 7 979 25 979 84C979 170 790 210 790 393C790 747 1356 641 1356 770C1356 904 787 850 787 1149C787 1327 962 1367 962 1453C962 1510 890 1528 720 1528C551 1528 481 1510 481 1453C481 1367 655 1327 655 1149C655 850 86 904 86 770C86 641 652 747 652 393C652 210 464 170 464 84C464 25 540 7 720 7ZM719 1534Z" glyph-name="Odieresis" horiz-adv-x="1443" unicode="&#214;" /><glyph d="M630 1561C1029 1561 1218 1399 1218 780C1218 141 1033 -26 631 -26C229 -26 43 141 43 780C43 1399 230 1561 630 1561ZM630 1533C533 1533 502 1471 502 782C502 81 534 3 631 3C728 3 759 81 759 782C759 1471 728 1533 630 1533ZM877 1620C968 1620 1015 1636 1015 1667C1015 1696 968 1712 877 1712C791 1712 744 1696 744 1667C744 1636 791 1620 877 1620ZM383 1620C474 1620 515 1636 515 1667C515 1696 474 1712 383 1712C292 1712 245 1696 245 1667C245 1636 292 1620 383 1620ZM630 1536Z" glyph-name="Odieresis.2" horiz-adv-x="1261" /><glyph d="M720 -26C320 -26 66 32 66 217C66 305 144 365 144 456C144 581 53 677 53 772C53 867 164 951 164 1080C164 1170 121 1250 121 1343C121 1498 339 1561 720 1561C1102 1561 1321 1498 1321 1343C1321 1250 1278 1170 1278 1080C1278 951 1389 867 1389 772C1389 677 1299 581 1299 456C1299 365 1376 305 1376 217C1376 32 1123 -26 720 -26ZM720 7C902 7 979 25 979 84C979 170 790 210 790 393C790 747 1356 641 1356 770C1356 904 787 850 787 1149C787 1327 962 1367 962 1453C962 1510 890 1528 720 1528C551 1528 481 1510 481 1453C481 1367 655 1327 655 1149C655 850 86 904 86 770C86 641 652 747 652 393C652 210 464 170 464 84C464 25 540 7 720 7ZM719 1534ZM388 1655C465 1599 618 1579 727 1579C863 1579 938 1619 976 1655L970 1661C928 1632 842 1615 768 1615C644 1615 510 1663 459 1739ZM720 1534Z" glyph-name="Ograve" horiz-adv-x="1443" unicode="&#210;" /><glyph d="M630 1561C1029 1561 1218 1399 1218 780C1218 141 1033 -26 631 -26C229 -26 43 141 43 780C43 1399 230 1561 630 1561ZM630 1533C533 1533 502 1471 502 782C502 81 534 3 631 3C728 3 759 81 759 782C759 1471 728 1533 630 1533ZM279 1657C356 1601 509 1581 618 1581C754 1581 829 1621 867 1657L861 1663C819 1634 733 1617 659 1617C535 1617 401 1665 350 1741ZM611 1536Z" glyph-name="Ograve.2" horiz-adv-x="1261" /><glyph d="M1181 1655C1111 1602 972 1579 874 1579C748 1579 681 1621 645 1655L651 1661C689 1634 766 1615 833 1615C944 1615 1061 1666 1109 1739ZM785 1655C715 1602 576 1579 479 1579C353 1579 285 1621 249 1655L255 1661C293 1634 370 1615 437 1615C548 1615 665 1666 714 1739ZM720 1534ZM720 -26C320 -26 66 32 66 217C66 305 144 365 144 456C144 581 53 677 53 772C53 867 164 951 164 1080C164 1170 121 1250 121 1343C121 1498 339 1561 720 1561C1102 1561 1321 1498 1321 1343C1321 1250 1278 1170 1278 1080C1278 951 1389 867 1389 772C1389 677 1299 581 1299 456C1299 365 1376 305 1376 217C1376 32 1123 -26 720 -26ZM720 7C902 7 979 25 979 84C979 170 790 210 790 393C790 747 1356 641 1356 770C1356 904 787 850 787 1149C787 1327 962 1367 962 1453C962 1510 890 1528 720 1528C551 1528 481 1510 481 1453C481 1367 655 1327 655 1149C655 850 86 904 86 770C86 641 652 747 652 393C652 210 464 170 464 84C464 25 540 7 720 7ZM719 1534Z" glyph-name="Ohungarumlaut" horiz-adv-x="1443" unicode="&#336;" /><glyph d="M630 1561C1029 1561 1218 1399 1218 780C1218 141 1033 -26 631 -26C229 -26 43 141 43 780C43 1399 230 1561 630 1561ZM630 1533C533 1533 502 1471 502 782C502 81 534 3 631 3C728 3 759 81 759 782C759 1471 728 1533 630 1533ZM1100 1657C1030 1604 891 1581 793 1581C667 1581 600 1623 564 1657L570 1663C608 1636 685 1617 752 1617C863 1617 980 1668 1028 1741ZM704 1657C634 1604 495 1581 398 1581C272 1581 204 1623 168 1657L174 1663C212 1636 289 1617 356 1617C467 1617 584 1668 633 1741ZM639 1536Z" glyph-name="Ohungarumlaut.2" horiz-adv-x="1261" /><glyph d="M345 1649C327 1659 311 1667 299 1694L305 1698C321 1683 352 1671 421 1671H1018C1086 1671 1117 1683 1133 1698L1139 1694C1127 1667 1112 1659 1094 1649C1112 1638 1127 1630 1139 1603L1133 1599C1117 1614 1086 1626 1018 1626H421C352 1626 321 1614 305 1599L299 1603C311 1630 327 1638 345 1649ZM719 1534ZM720 -26C320 -26 66 32 66 217C66 305 144 365 144 456C144 581 53 677 53 772C53 867 164 951 164 1080C164 1170 121 1250 121 1343C121 1498 339 1561 720 1561C1102 1561 1321 1498 1321 1343C1321 1250 1278 1170 1278 1080C1278 951 1389 867 1389 772C1389 677 1299 581 1299 456C1299 365 1376 305 1376 217C1376 32 1123 -26 720 -26ZM720 7C902 7 979 25 979 84C979 170 790 210 790 393C790 747 1356 641 1356 770C1356 904 787 850 787 1149C787 1327 962 1367 962 1453C962 1510 890 1528 720 1528C551 1528 481 1510 481 1453C481 1367 655 1327 655 1149C655 850 86 904 86 770C86 641 652 747 652 393C652 210 464 170 464 84C464 25 540 7 720 7ZM719 1534Z" glyph-name="Omacron" horiz-adv-x="1443" unicode="&#332;" /><glyph d="M720 -26C320 -26 66 32 66 217C66 305 144 365 144 456C144 581 53 677 53 772C53 867 164 951 164 1080C164 1170 121 1250 121 1343C121 1498 339 1561 720 1561C1102 1561 1321 1498 1321 1343C1321 1250 1278 1170 1278 1080C1278 951 1389 867 1389 772C1389 677 1299 581 1299 456C1299 365 1376 305 1376 217C1376 32 1123 -26 720 -26ZM720 7C902 7 979 25 979 84C979 170 790 210 790 393C790 747 1356 641 1356 770C1356 904 787 850 787 1149C787 1327 962 1367 962 1453C962 1510 890 1528 720 1528C551 1528 481 1510 481 1453C481 1367 655 1327 655 1149C655 850 86 904 86 770C86 641 652 747 652 393C652 210 464 170 464 84C464 25 540 7 720 7ZM719 1534ZM451 1665C581 1665 783 1579 965 1579C1060 1579 1104 1616 1104 1654C1104 1695 1040 1717 987 1724L984 1717C1027 1708 1039 1689 1039 1675C1039 1651 1018 1638 981 1638C851 1638 649 1724 466 1724C372 1724 328 1688 328 1649C328 1608 392 1586 445 1579L448 1586C405 1595 393 1614 393 1628C393 1652 414 1665 451 1665ZM720 1534Z" glyph-name="Otilde" horiz-adv-x="1443" unicode="&#213;" /><glyph d="M630 1561C1029 1561 1218 1399 1218 780C1218 141 1033 -26 631 -26C229 -26 43 141 43 780C43 1399 230 1561 630 1561ZM630 1533C533 1533 502 1471 502 782C502 81 534 3 631 3C728 3 759 81 759 782C759 1471 728 1533 630 1533ZM364 1667C494 1667 696 1581 878 1581C973 1581 1017 1618 1017 1656C1017 1697 953 1719 900 1726L897 1719C940 1710 952 1691 952 1677C952 1653 931 1640 894 1640C764 1640 562 1726 379 1726C285 1726 241 1690 241 1651C241 1610 305 1588 358 1581L361 1588C318 1597 306 1616 306 1630C306 1654 327 1667 364 1667ZM633 1536Z" glyph-name="Otilde.2" horiz-adv-x="1261" /><glyph d="M811 252C645 252 547 314 499 324C483 327 475 311 493 303C570 276 577 197 614 113C649 24 685 -7 747 -25L746 -29C608 -8 511 0 390 0H188V1479L373 1536C496 1536 634 1561 797 1561C1114 1561 1323 1501 1323 1356C1323 1284 1290 1222 1290 1152C1290 1052 1375 987 1375 912C1375 837 1310 762 1310 665C1310 597 1359 551 1359 485C1359 307 1124 252 811 252ZM792 287C916 287 986 307 986 363C986 441 805 472 805 621C805 894 1342 799 1342 910C1342 1027 803 970 803 1202C803 1345 969 1383 969 1453C969 1509 904 1529 776 1529C643 1529 578 1506 578 1100V725C578 351 657 287 792 287ZM373 1536 188 1036C188 1481 114 1532 12 1561L13 1565C153 1544 251 1536 373 1536ZM373 0C251 0 152 -8 12 -29L11 -25C114 4 187 55 187 500Z" glyph-name="P" horiz-adv-x="1440" unicode="P" /><glyph d="M580 216C141 195 73 246 73 340C73 412 131 461 131 534C131 651 53 737 53 824C53 914 157 995 157 1119C157 1195 121 1264 121 1343C121 1498 339 1561 720 1561C1102 1561 1321 1498 1321 1343C1321 1264 1285 1195 1285 1119C1285 995 1389 914 1389 824C1389 733 1305 642 1305 521C1305 441 1370 388 1370 311C1370 186 1215 151 637 145C356 142 330 132 330 110C330 82 372 80 854 80C1071 80 1257 91 1381 117L1389 110C1335 -110 1220 -205 964 -205C292 -205 70 -165 70 -9C70 122 124 174 637 174C903 174 952 193 952 242C952 311 796 378 796 520C796 796 1356 702 1356 822C1356 947 793 901 793 1175C793 1334 962 1375 962 1453C962 1510 890 1528 720 1528C551 1528 481 1510 481 1453C481 1375 649 1334 649 1175C649 901 86 947 86 822C86 702 646 796 646 520C646 399 535 331 535 273C535 245 546 231 580 224Z" glyph-name="Q" horiz-adv-x="1443" unicode="Q" /><glyph d="M1116 -26C876 -26 724 19 724 159C724 358 979 573 979 647C979 682 954 699 865 700C703 702 676 726 676 768C676 820 715 834 841 839C935 842 953 864 953 896C953 956 825 1031 825 1161C825 1272 877 1365 877 1440C877 1506 848 1533 756 1533C639 1533 578 1506 578 1060V0H188V1479L373 1536C489 1536 617 1561 747 1561C1117 1561 1252 1514 1252 1370C1252 1328 1249 1246 1249 1184C1249 1088 1315 1006 1315 942C1315 840 1226 808 852 808C744 808 706 804 706 770C706 737 756 733 926 733C1271 733 1336 700 1336 585C1336 416 1112 251 1112 90C1112 44 1130 10 1202 10C1299 10 1357 50 1357 138C1357 226 1315 297 1176 325L1192 347C1329 318 1391 239 1391 140C1391 17 1315 -26 1116 -26ZM393 0 578 500C578 55 652 4 754 -25L753 -29C613 -8 515 0 393 0ZM373 1536 188 1036C188 1481 114 1532 12 1561L13 1565C153 1544 251 1536 373 1536ZM373 0C251 0 152 -8 12 -29L11 -25C114 4 187 55 187 500Z" glyph-name="R" horiz-adv-x="1438" unicode="R" /><glyph d="M733 -25C533 -25 381 -4 238 -4C188 -4 139 -11 85 -29L83 -25C145 31 177 137 177 281C177 427 154 519 136 614L145 616C206 432 326 274 415 178C530 76 695 4 793 4C872 4 909 34 909 92C909 147 872 176 791 227C693 286 642 335 642 436C642 522 675 588 704 642C737 699 766 747 766 798C766 834 747 848 714 848C668 848 617 814 554 757C478 690 393 624 285 624C183 624 130 664 130 755C130 860 194 933 194 1079C194 1186 127 1265 127 1364C127 1512 315 1561 545 1561C743 1561 872 1538 1013 1538C1067 1538 1116 1547 1167 1565L1169 1561C1079 1500 1039 1394 1039 1247C1039 1153 1042 1052 1057 977L1047 975C1005 1148 904 1310 819 1396C704 1493 627 1532 569 1532C523 1532 496 1508 496 1468C496 1436 518 1393 556 1337C597 1276 636 1208 636 1105C636 868 328 842 328 743C328 708 350 694 382 694C426 694 478 726 527 772C620 849 743 937 956 937C1112 937 1188 902 1188 793C1188 683 1136 590 1136 463C1136 362 1194 303 1194 211C1194 61 993 -25 733 -25ZM612 0ZM568 1534Z" glyph-name="S" horiz-adv-x="1275" unicode="S" /><glyph d="M589 4C652 4 677 28 677 77C677 125 650 198 606 284L197 1063C133 1181 104 1294 104 1369C104 1505 226 1561 353 1561C547 1561 702 1538 848 1538C898 1538 951 1543 1001 1561L1003 1559C927 1499 873 1370 873 1199C873 1055 878 968 891 874L882 873C824 1083 737 1241 661 1349C567 1472 465 1528 342 1528C240 1528 161 1481 162 1393C162 1216 542 1244 699 989L939 518C1031 370 1055 265 1055 183C1055 54 925 -27 614 -27C437 -27 303 -4 175 -4C125 -4 72 -9 22 -27L20 -25C97 37 149 176 149 357C149 521 149 615 132 723L141 724C216 460 334 245 408 123C457 39 522 4 589 4ZM571 0ZM521 1463Z" glyph-name="S.2" horiz-adv-x="1100" /><glyph d="M897 1655C820 1599 667 1579 558 1579C422 1579 347 1619 309 1655L315 1661C357 1632 443 1615 517 1615C641 1615 775 1663 826 1739ZM565 1534ZM568 1534ZM733 -25C533 -25 381 -4 238 -4C188 -4 139 -11 85 -29L83 -25C145 31 177 137 177 281C177 427 154 519 136 614L145 616C206 432 326 274 415 178C530 76 695 4 793 4C872 4 909 34 909 92C909 147 872 176 791 227C693 286 642 335 642 436C642 522 675 588 704 642C737 699 766 747 766 798C766 834 747 848 714 848C668 848 617 814 554 757C478 690 393 624 285 624C183 624 130 664 130 755C130 860 194 933 194 1079C194 1186 127 1265 127 1364C127 1512 315 1561 545 1561C743 1561 872 1538 1013 1538C1067 1538 1116 1547 1167 1565L1169 1561C1079 1500 1039 1394 1039 1247C1039 1153 1042 1052 1057 977L1047 975C1005 1148 904 1310 819 1396C704 1493 627 1532 569 1532C523 1532 496 1508 496 1468C496 1436 518 1393 556 1337C597 1276 636 1208 636 1105C636 868 328 842 328 743C328 708 350 694 382 694C426 694 478 726 527 772C620 849 743 937 956 937C1112 937 1188 902 1188 793C1188 683 1136 590 1136 463C1136 362 1194 303 1194 211C1194 61 993 -25 733 -25ZM612 0ZM568 1534Z" glyph-name="Sacute" horiz-adv-x="1275" unicode="&#346;" /><glyph d="M833 1657C756 1601 603 1581 494 1581C358 1581 283 1621 245 1657L251 1663C293 1634 379 1617 453 1617C577 1617 711 1665 762 1741ZM501 1536ZM504 1536ZM589 4C652 4 677 28 677 77C677 125 650 198 606 284L197 1063C133 1181 104 1294 104 1369C104 1505 226 1561 353 1561C547 1561 702 1538 848 1538C898 1538 951 1543 1001 1561L1003 1559C927 1499 873 1370 873 1199C873 1055 878 968 891 874L882 873C824 1083 737 1241 661 1349C567 1472 465 1528 342 1528C240 1528 161 1481 162 1393C162 1216 542 1244 699 989L939 518C1031 370 1055 265 1055 183C1055 54 925 -27 614 -27C437 -27 303 -4 175 -4C125 -4 72 -9 22 -27L20 -25C97 37 149 176 149 357C149 521 149 615 132 723L141 724C216 460 334 245 408 123C457 39 522 4 589 4ZM571 0ZM521 1463Z" glyph-name="Sacute.2" horiz-adv-x="1100" /><glyph d="M246 1739 183 1677C512 1666 551 1610 564 1576H573C586 1610 648 1667 948 1677L891 1739C726 1720 612 1686 581 1642C576 1635 573 1632 568 1632C564 1632 561 1635 556 1642C525 1687 433 1720 246 1739ZM568 1534ZM733 -25C533 -25 381 -4 238 -4C188 -4 139 -11 85 -29L83 -25C145 31 177 137 177 281C177 427 154 519 136 614L145 616C206 432 326 274 415 178C530 76 695 4 793 4C872 4 909 34 909 92C909 147 872 176 791 227C693 286 642 335 642 436C642 522 675 588 704 642C737 699 766 747 766 798C766 834 747 848 714 848C668 848 617 814 554 757C478 690 393 624 285 624C183 624 130 664 130 755C130 860 194 933 194 1079C194 1186 127 1265 127 1364C127 1512 315 1561 545 1561C743 1561 872 1538 1013 1538C1067 1538 1116 1547 1167 1565L1169 1561C1079 1500 1039 1394 1039 1247C1039 1153 1042 1052 1057 977L1047 975C1005 1148 904 1310 819 1396C704 1493 627 1532 569 1532C523 1532 496 1508 496 1468C496 1436 518 1393 556 1337C597 1276 636 1208 636 1105C636 868 328 842 328 743C328 708 350 694 382 694C426 694 478 726 527 772C620 849 743 937 956 937C1112 937 1188 902 1188 793C1188 683 1136 590 1136 463C1136 362 1194 303 1194 211C1194 61 993 -25 733 -25ZM612 0ZM568 1534Z" glyph-name="Scaron" horiz-adv-x="1275" unicode="&#352;" /><glyph d="M219 1741 156 1679C485 1668 524 1612 537 1578H546C559 1612 621 1669 921 1679L864 1741C699 1722 585 1688 554 1644C549 1637 546 1634 541 1634C537 1634 534 1637 529 1644C498 1689 406 1722 219 1741ZM541 1536ZM589 4C652 4 677 28 677 77C677 125 650 198 606 284L197 1063C133 1181 104 1294 104 1369C104 1505 226 1561 353 1561C547 1561 702 1538 848 1538C898 1538 951 1543 1001 1561L1003 1559C927 1499 873 1370 873 1199C873 1055 878 968 891 874L882 873C824 1083 737 1241 661 1349C567 1472 465 1528 342 1528C240 1528 161 1481 162 1393C162 1216 542 1244 699 989L939 518C1031 370 1055 265 1055 183C1055 54 925 -27 614 -27C437 -27 303 -4 175 -4C125 -4 72 -9 22 -27L20 -25C97 37 149 176 149 357C149 521 149 615 132 723L141 724C216 460 334 245 408 123C457 39 522 4 589 4ZM571 0ZM521 1463Z" glyph-name="Scaron.2" horiz-adv-x="1100" /><glyph d="M183 1577C406 1601 517 1628 556 1675C561 1681 563 1685 568 1685C573 1685 575 1681 581 1675C620 1628 756 1601 953 1577L1010 1640C660 1652 586 1706 573 1741H564C550 1706 502 1653 120 1640ZM568 1534ZM733 -25C533 -25 381 -4 238 -4C188 -4 139 -11 85 -29L83 -25C145 31 177 137 177 281C177 427 154 519 136 614L145 616C206 432 326 274 415 178C530 76 695 4 793 4C872 4 909 34 909 92C909 147 872 176 791 227C693 286 642 335 642 436C642 522 675 588 704 642C737 699 766 747 766 798C766 834 747 848 714 848C668 848 617 814 554 757C478 690 393 624 285 624C183 624 130 664 130 755C130 860 194 933 194 1079C194 1186 127 1265 127 1364C127 1512 315 1561 545 1561C743 1561 872 1538 1013 1538C1067 1538 1116 1547 1167 1565L1169 1561C1079 1500 1039 1394 1039 1247C1039 1153 1042 1052 1057 977L1047 975C1005 1148 904 1310 819 1396C704 1493 627 1532 569 1532C523 1532 496 1508 496 1468C496 1436 518 1393 556 1337C597 1276 636 1208 636 1105C636 868 328 842 328 743C328 708 350 694 382 694C426 694 478 726 527 772C620 849 743 937 956 937C1112 937 1188 902 1188 793C1188 683 1136 590 1136 463C1136 362 1194 303 1194 211C1194 61 993 -25 733 -25ZM612 0ZM568 1534Z" glyph-name="Scircumflex" horiz-adv-x="1275" unicode="&#348;" /><glyph d="M159 1579C382 1603 493 1630 532 1677C537 1683 539 1687 544 1687C549 1687 551 1683 557 1677C596 1630 732 1603 929 1579L986 1642C636 1654 562 1708 549 1743H540C526 1708 478 1655 96 1642ZM544 1536ZM589 4C652 4 677 28 677 77C677 125 650 198 606 284L197 1063C133 1181 104 1294 104 1369C104 1505 226 1561 353 1561C547 1561 702 1538 848 1538C898 1538 951 1543 1001 1561L1003 1559C927 1499 873 1370 873 1199C873 1055 878 968 891 874L882 873C824 1083 737 1241 661 1349C567 1472 465 1528 342 1528C240 1528 161 1481 162 1393C162 1216 542 1244 699 989L939 518C1031 370 1055 265 1055 183C1055 54 925 -27 614 -27C437 -27 303 -4 175 -4C125 -4 72 -9 22 -27L20 -25C97 37 149 176 149 357C149 521 149 615 132 723L141 724C216 460 334 245 408 123C457 39 522 4 589 4ZM571 0ZM521 1463Z" glyph-name="Scircumflex.2" horiz-adv-x="1100" /><glyph d="M771 1538C903 1538 995 1561 1068 1561C1195 1561 1289 1538 1365 1538C1427 1538 1481 1547 1519 1565L1521 1563C1462 1504 1427 1387 1426 1214C1427 975 1449 817 1467 649L1457 648C1378 950 1260 1221 1185 1386C1134 1488 1106 1534 1045 1534C995 1534 965 1508 965 1397V0H575V1397C575 1508 545 1534 495 1534C433 1534 407 1487 356 1386C280 1221 161 950 83 648L73 649C90 817 113 975 114 1214C113 1387 78 1504 19 1563L21 1565C59 1547 112 1538 175 1538C250 1538 344 1561 472 1561C545 1561 635 1538 771 1538ZM780 0 965 500C965 55 1039 4 1141 -25L1140 -29C1000 -8 902 0 780 0ZM760 0C638 0 539 -8 399 -29L398 -25C501 4 574 55 574 500Z" glyph-name="T" horiz-adv-x="1540" unicode="T" /><glyph d="M8 1565 6 1561C128 1527 208 1318 208 957C208 711 157 402 157 275C157 83 313 -26 679 -26C951 -26 1071 17 1071 204C1071 298 1055 530 1055 727C1055 1100 1151 1517 1249 1561L1247 1565C1127 1544 1078 1536 998 1536C907 1536 863 1561 753 1561C640 1561 520 1536 407 1536C271 1536 163 1544 8 1565ZM774 17C643 17 579 82 579 218C579 538 606 957 618 1254C630 1483 697 1540 759 1540C836 1540 866 1459 954 839C985 600 1035 329 1035 201C1035 41 917 17 774 17ZM734 1534Z" glyph-name="U" horiz-adv-x="1229" unicode="U" /><glyph d="M1063 1655C986 1599 833 1579 724 1579C588 1579 513 1619 475 1655L481 1661C523 1632 609 1615 683 1615C807 1615 941 1663 992 1739ZM731 1534ZM734 1534ZM8 1565 6 1561C128 1527 208 1318 208 957C208 711 157 402 157 275C157 83 313 -26 679 -26C951 -26 1071 17 1071 204C1071 298 1055 530 1055 727C1055 1100 1151 1517 1249 1561L1247 1565C1127 1544 1078 1536 998 1536C907 1536 863 1561 753 1561C640 1561 520 1536 407 1536C271 1536 163 1544 8 1565ZM774 17C643 17 579 82 579 218C579 538 606 957 618 1254C630 1483 697 1540 759 1540C836 1540 866 1459 954 839C985 600 1035 329 1035 201C1035 41 917 17 774 17ZM734 1534Z" glyph-name="Uacute" horiz-adv-x="1229" unicode="&#218;" /><glyph d="M8 1565 6 1561C128 1527 208 1318 208 957C208 711 157 402 157 275C157 83 313 -26 679 -26C951 -26 1071 17 1071 204C1071 298 1055 530 1055 727C1055 1100 1151 1517 1249 1561L1247 1565C1127 1544 1078 1536 998 1536C907 1536 863 1561 753 1561C640 1561 520 1536 407 1536C271 1536 163 1544 8 1565ZM774 17C643 17 579 82 579 218C579 538 606 957 618 1254C630 1483 697 1540 759 1540C836 1540 866 1459 954 839C985 600 1035 329 1035 201C1035 41 917 17 774 17ZM734 1534ZM736 1643C470 1643 365 1662 357 1724H349C349 1652 391 1579 736 1579C1081 1579 1121 1652 1121 1724H1113C1107 1662 1002 1643 736 1643ZM735 1534Z" glyph-name="Ubreve" horiz-adv-x="1229" unicode="&#364;" /><glyph d="M349 1577C572 1601 683 1628 722 1675C727 1681 729 1685 734 1685C739 1685 741 1681 747 1675C786 1628 922 1601 1119 1577L1176 1640C826 1652 752 1706 739 1741H730C716 1706 668 1653 286 1640ZM734 1534ZM8 1565 6 1561C128 1527 208 1318 208 957C208 711 157 402 157 275C157 83 313 -26 679 -26C951 -26 1071 17 1071 204C1071 298 1055 530 1055 727C1055 1100 1151 1517 1249 1561L1247 1565C1127 1544 1078 1536 998 1536C907 1536 863 1561 753 1561C640 1561 520 1536 407 1536C271 1536 163 1544 8 1565ZM774 17C643 17 579 82 579 218C579 538 606 957 618 1254C630 1483 697 1540 759 1540C836 1540 866 1459 954 839C985 600 1035 329 1035 201C1035 41 917 17 774 17ZM734 1534Z" glyph-name="Ucircumflex" horiz-adv-x="1229" unicode="&#219;" /><glyph d="M982 1618C1073 1618 1120 1634 1120 1665C1120 1694 1073 1710 982 1710C896 1710 849 1694 849 1665C849 1634 896 1618 982 1618ZM488 1618C579 1618 620 1634 620 1665C620 1694 579 1710 488 1710C397 1710 350 1694 350 1665C350 1634 397 1618 488 1618ZM735 1534ZM8 1565 6 1561C128 1527 208 1318 208 957C208 711 157 402 157 275C157 83 313 -26 679 -26C951 -26 1071 17 1071 204C1071 298 1055 530 1055 727C1055 1100 1151 1517 1249 1561L1247 1565C1127 1544 1078 1536 998 1536C907 1536 863 1561 753 1561C640 1561 520 1536 407 1536C271 1536 163 1544 8 1565ZM774 17C643 17 579 82 579 218C579 538 606 957 618 1254C630 1483 697 1540 759 1540C836 1540 866 1459 954 839C985 600 1035 329 1035 201C1035 41 917 17 774 17ZM734 1534Z" glyph-name="Udieresis" horiz-adv-x="1229" unicode="&#220;" /><glyph d="M8 1565 6 1561C128 1527 208 1318 208 957C208 711 157 402 157 275C157 83 313 -26 679 -26C951 -26 1071 17 1071 204C1071 298 1055 530 1055 727C1055 1100 1151 1517 1249 1561L1247 1565C1127 1544 1078 1536 998 1536C907 1536 863 1561 753 1561C640 1561 520 1536 407 1536C271 1536 163 1544 8 1565ZM774 17C643 17 579 82 579 218C579 538 606 957 618 1254C630 1483 697 1540 759 1540C836 1540 866 1459 954 839C985 600 1035 329 1035 201C1035 41 917 17 774 17ZM734 1534ZM403 1655C480 1599 633 1579 742 1579C878 1579 953 1619 991 1655L985 1661C943 1632 857 1615 783 1615C659 1615 525 1663 474 1739ZM735 1534Z" glyph-name="Ugrave" horiz-adv-x="1229" unicode="&#217;" /><glyph d="M8 1565 6 1561C128 1527 208 1318 208 957C208 711 157 402 157 275C157 83 313 -26 679 -26C951 -26 1071 17 1071 204C1071 298 1055 530 1055 727C1055 1100 1151 1517 1249 1561L1247 1565C1127 1544 1078 1536 998 1536C907 1536 863 1561 753 1561C640 1561 520 1536 407 1536C271 1536 163 1544 8 1565ZM774 17C643 17 579 82 579 218C579 538 606 957 618 1254C630 1483 697 1540 759 1540C836 1540 866 1459 954 839C985 600 1035 329 1035 201C1035 41 917 17 774 17ZM734 1534ZM1196 1655C1126 1602 987 1579 889 1579C763 1579 696 1621 660 1655L666 1661C704 1634 781 1615 848 1615C959 1615 1076 1666 1124 1739ZM800 1655C730 1602 591 1579 494 1579C368 1579 300 1621 264 1655L270 1661C308 1634 385 1615 452 1615C563 1615 680 1666 729 1739ZM735 1534Z" glyph-name="Uhungarumlaut" horiz-adv-x="1229" unicode="&#368;" /><glyph d="M8 1565 6 1561C128 1527 208 1318 208 957C208 711 157 402 157 275C157 83 313 -26 679 -26C951 -26 1071 17 1071 204C1071 298 1055 530 1055 727C1055 1100 1151 1517 1249 1561L1247 1565C1127 1544 1078 1536 998 1536C907 1536 863 1561 753 1561C640 1561 520 1536 407 1536C271 1536 163 1544 8 1565ZM774 17C643 17 579 82 579 218C579 538 606 957 618 1254C630 1483 697 1540 759 1540C836 1540 866 1459 954 839C985 600 1035 329 1035 201C1035 41 917 17 774 17ZM734 1534ZM360 1649C342 1659 326 1667 314 1694L320 1698C336 1683 367 1671 436 1671H1033C1101 1671 1132 1683 1148 1698L1154 1694C1142 1667 1127 1659 1109 1649C1127 1638 1142 1630 1154 1603L1148 1599C1132 1614 1101 1626 1033 1626H436C367 1626 336 1614 320 1599L314 1603C326 1630 342 1638 360 1649ZM734 1534Z" glyph-name="Umacron" horiz-adv-x="1229" unicode="&#362;" /><glyph d="M944 1659C944 1636 891 1624 737 1624C582 1624 526 1636 526 1659C526 1681 559 1694 737 1694C911 1694 944 1681 944 1659ZM435 1657C435 1618 476 1577 737 1577C996 1577 1035 1618 1035 1657C1035 1698 984 1724 737 1724C488 1724 435 1698 435 1657ZM734 1534ZM8 1565 6 1561C128 1527 208 1318 208 957C208 711 157 402 157 275C157 83 313 -26 679 -26C951 -26 1071 17 1071 204C1071 298 1055 530 1055 727C1055 1100 1151 1517 1249 1561L1247 1565C1127 1544 1078 1536 998 1536C907 1536 863 1561 753 1561C640 1561 520 1536 407 1536C271 1536 163 1544 8 1565ZM774 17C643 17 579 82 579 218C579 538 606 957 618 1254C630 1483 697 1540 759 1540C836 1540 866 1459 954 839C985 600 1035 329 1035 201C1035 41 917 17 774 17ZM734 1534Z" glyph-name="Uring" horiz-adv-x="1229" unicode="&#366;" /><glyph d="M8 1565 6 1561C128 1527 208 1318 208 957C208 711 157 402 157 275C157 83 313 -26 679 -26C951 -26 1071 17 1071 204C1071 298 1055 530 1055 727C1055 1100 1151 1517 1249 1561L1247 1565C1127 1544 1078 1536 998 1536C907 1536 863 1561 753 1561C640 1561 520 1536 407 1536C271 1536 163 1544 8 1565ZM774 17C643 17 579 82 579 218C579 538 606 957 618 1254C630 1483 697 1540 759 1540C836 1540 866 1459 954 839C985 600 1035 329 1035 201C1035 41 917 17 774 17ZM734 1534ZM466 1665C596 1665 798 1579 980 1579C1075 1579 1119 1616 1119 1654C1119 1695 1055 1717 1002 1724L999 1717C1042 1708 1054 1689 1054 1675C1054 1651 1033 1638 996 1638C866 1638 664 1724 481 1724C387 1724 343 1688 343 1649C343 1608 407 1586 460 1579L463 1586C420 1595 408 1614 408 1628C408 1652 429 1665 466 1665ZM735 1534Z" glyph-name="Utilde" horiz-adv-x="1229" unicode="&#360;" /><glyph d="M900 276 936 1038C953 1358 921 1537 805 1537C697 1537 629 1422 654 1041L702 241C709 157 746 108 799 108C858 108 892 141 900 276ZM400 1535C539 1535 667 1558 806 1558C916 1558 960 1535 1050 1535C1133 1535 1197 1545 1308 1565L1310 1561C1212 1533 1147 1479 1070 1033L951 273C899 30 839 -26 670 -26C476 -26 360 32 325 242L225 1031C178 1408 84 1532 -19 1561L-18 1565C144 1541 257 1535 400 1535Z" glyph-name="V" horiz-adv-x="1290" unicode="V" /><glyph d="M1361 1565 1360 1561C1472 1530 1567 1497 1573 1069L1582 216C1584 111 1557 77 1517 77C1469 77 1444 103 1437 209L1380 1281C1366 1487 1310 1556 1084 1556C852 1556 791 1469 786 1252L768 209C766 109 736 77 694 77C643 77 623 109 623 209L622 1030C621 1460 662 1528 785 1561L783 1566C642 1544 537 1536 408 1536C267 1536 147 1541 -12 1566L-13 1561C99 1533 175 1451 203 1032L251 264C268 59 364 -25 554 -25C738 -25 809 32 813 202L836 1248C841 1417 868 1459 925 1459C975 1459 1003 1427 1010 1303L1065 236C1078 36 1198 -25 1377 -25C1557 -25 1610 51 1631 203L1718 1071C1761 1482 1825 1535 1916 1561L1915 1565C1811 1545 1752 1536 1670 1536C1565 1536 1484 1546 1361 1565Z" glyph-name="W" horiz-adv-x="1903" unicode="W" /><glyph d="M1020 1002 994 893C980 847 974 832 958 832C942 832 931 851 912 891L777 1131C652 1412 706 1532 840 1532C1001 1532 1111 1313 1020 1002ZM1177 412C1008 717 993 845 1118 1104C1320 1479 1356 1530 1467 1561L1464 1566C1344 1545 1288 1532 1189 1532C1066 1532 1002 1559 840 1559C682 1559 616 1532 383 1532C253 1532 152 1544 7 1566L4 1561C109 1532 186 1471 349 1118C480 855 490 745 349 428C171 42 116 6 10 -27L12 -31C126 -11 180 0 255 0C405 0 470 -25 640 -25C817 -25 888 2 1103 2C1258 3 1362 -6 1515 -31L1517 -27C1399 6 1358 71 1177 412ZM460 563 489 702C502 753 513 769 531 769C552 769 563 759 590 705L741 423C896 91 837 2 669 2C490 2 374 212 460 563Z" glyph-name="X" horiz-adv-x="1499" unicode="X" /><glyph d="M873 397H481C481 525 435 697 285 1049C101 1479 88 1541 -17 1561L-15 1565C175 1553 252 1548 386 1541C602 1530 619 1510 634 1400L725 582C734 511 745 490 789 490C818 490 841 511 845 583L890 1399C897 1522 928 1529 1008 1539C1085 1549 1165 1553 1273 1565L1275 1561C1172 1537 1126 1442 1011 1028C886 596 873 501 873 397ZM481 0V465H873V0ZM666 0C545 0 446 -8 306 -29L305 -25C407 4 481 69 481 422ZM688 0 873 422C873 69 947 4 1050 -25L1048 -29C908 -8 810 0 688 0ZM735 1534Z" glyph-name="Y" horiz-adv-x="1265" unicode="Y" /><glyph d="M873 397H481C481 525 435 697 285 1049C101 1479 88 1541 -17 1561L-15 1565C175 1553 252 1548 386 1541C602 1530 619 1510 634 1400L725 582C734 511 745 490 789 490C818 490 841 511 845 583L890 1399C897 1522 928 1529 1008 1539C1085 1549 1165 1553 1273 1565L1275 1561C1172 1537 1126 1442 1011 1028C886 596 873 501 873 397ZM481 0V465H873V0ZM666 0C545 0 446 -8 306 -29L305 -25C407 4 481 69 481 422ZM688 0 873 422C873 69 947 4 1050 -25L1048 -29C908 -8 810 0 688 0ZM735 1534ZM1064 1655C987 1599 834 1579 725 1579C589 1579 514 1619 476 1655L482 1661C524 1632 610 1615 684 1615C808 1615 942 1663 993 1739ZM732 1534ZM735 1534Z" glyph-name="Yacute" horiz-adv-x="1265" unicode="&#221;" /><glyph d="M873 397H481C481 525 435 697 285 1049C101 1479 88 1541 -17 1561L-15 1565C175 1553 252 1548 386 1541C602 1530 619 1510 634 1400L725 582C734 511 745 490 789 490C818 490 841 511 845 583L890 1399C897 1522 928 1529 1008 1539C1085 1549 1165 1553 1273 1565L1275 1561C1172 1537 1126 1442 1011 1028C886 596 873 501 873 397ZM481 0V465H873V0ZM666 0C545 0 446 -8 306 -29L305 -25C407 4 481 69 481 422ZM688 0 873 422C873 69 947 4 1050 -25L1048 -29C908 -8 810 0 688 0ZM735 1534ZM350 1577C573 1601 684 1628 723 1675C728 1681 730 1685 735 1685C740 1685 742 1681 748 1675C787 1628 923 1601 1120 1577L1177 1640C827 1652 753 1706 740 1741H731C717 1706 669 1653 287 1640ZM735 1534Z" glyph-name="Ycircumflex" horiz-adv-x="1265" unicode="&#374;" /><glyph d="M873 397H481C481 525 435 697 285 1049C101 1479 88 1541 -17 1561L-15 1565C175 1553 252 1548 386 1541C602 1530 619 1510 634 1400L725 582C734 511 745 490 789 490C818 490 841 511 845 583L890 1399C897 1522 928 1529 1008 1539C1085 1549 1165 1553 1273 1565L1275 1561C1172 1537 1126 1442 1011 1028C886 596 873 501 873 397ZM481 0V465H873V0ZM666 0C545 0 446 -8 306 -29L305 -25C407 4 481 69 481 422ZM688 0 873 422C873 69 947 4 1050 -25L1048 -29C908 -8 810 0 688 0ZM735 1534ZM982 1618C1073 1618 1120 1634 1120 1665C1120 1694 1073 1710 982 1710C896 1710 849 1694 849 1665C849 1634 896 1618 982 1618ZM488 1618C579 1618 620 1634 620 1665C620 1694 579 1710 488 1710C397 1710 350 1694 350 1665C350 1634 397 1618 488 1618ZM735 1534Z" glyph-name="Ydieresis" horiz-adv-x="1265" unicode="&#376;" /><glyph d="M873 397H481C481 525 435 697 285 1049C101 1479 88 1541 -17 1561L-15 1565C175 1553 252 1548 386 1541C602 1530 619 1510 634 1400L725 582C734 511 745 490 789 490C818 490 841 511 845 583L890 1399C897 1522 928 1529 1008 1539C1085 1549 1165 1553 1273 1565L1275 1561C1172 1537 1126 1442 1011 1028C886 596 873 501 873 397ZM481 0V465H873V0ZM666 0C545 0 446 -8 306 -29L305 -25C407 4 481 69 481 422ZM688 0 873 422C873 69 947 4 1050 -25L1048 -29C908 -8 810 0 688 0ZM735 1534ZM404 1655C481 1599 634 1579 743 1579C879 1579 954 1619 992 1655L986 1661C944 1632 858 1615 784 1615C660 1615 526 1663 475 1739ZM736 1534Z" glyph-name="Ygrave" horiz-adv-x="1265" unicode="&#7922;" /><glyph d="M577 211C526 114 508 86 508 61C508 37 533 23 616 23C732 23 811 53 907 176C995 311 1062 475 1130 729L1141 728C1123 613 1123 505 1123 375C1123 161 1179 40 1256 -25L1254 -27C1204 -9 1154 0 1033 0H89C49 0 42 8 42 23C42 43 61 74 83 116L661 1296C713 1396 735 1440 735 1475C735 1499 719 1513 668 1513C603 1513 559 1484 480 1387C392 1262 308 1085 226 834L217 835C235 944 235 1046 235 1164C235 1339 201 1479 105 1559L107 1561C156 1543 209 1536 325 1536H1146C1209 1536 1219 1528 1219 1510C1219 1500 1217 1485 1203 1459Z" glyph-name="Z" horiz-adv-x="1308" unicode="Z" /><glyph d="M1011 1655C934 1599 781 1579 672 1579C536 1579 461 1619 423 1655L429 1661C471 1632 557 1615 631 1615C755 1615 889 1663 940 1739ZM679 1534ZM682 1534ZM577 211C526 114 508 86 508 61C508 37 533 23 616 23C732 23 811 53 907 176C995 311 1062 475 1130 729L1141 728C1123 613 1123 505 1123 375C1123 161 1179 40 1256 -25L1254 -27C1204 -9 1154 0 1033 0H89C49 0 42 8 42 23C42 43 61 74 83 116L661 1296C713 1396 735 1440 735 1475C735 1499 719 1513 668 1513C603 1513 559 1484 480 1387C392 1262 308 1085 226 834L217 835C235 944 235 1046 235 1164C235 1339 201 1479 105 1559L107 1561C156 1543 209 1536 325 1536H1146C1209 1536 1219 1528 1219 1510C1219 1500 1217 1485 1203 1459Z" glyph-name="Zacute" horiz-adv-x="1335" unicode="&#377;" /><glyph d="M360 1739 297 1677C626 1666 665 1610 678 1576H687C700 1610 762 1667 1062 1677L1005 1739C840 1720 726 1686 695 1642C690 1635 687 1632 682 1632C678 1632 675 1635 670 1642C639 1687 547 1720 360 1739ZM682 1534ZM577 211C526 114 508 86 508 61C508 37 533 23 616 23C732 23 811 53 907 176C995 311 1062 475 1130 729L1141 728C1123 613 1123 505 1123 375C1123 161 1179 40 1256 -25L1254 -27C1204 -9 1154 0 1033 0H89C49 0 42 8 42 23C42 43 61 74 83 116L661 1296C713 1396 735 1440 735 1475C735 1499 719 1513 668 1513C603 1513 559 1484 480 1387C392 1262 308 1085 226 834L217 835C235 944 235 1046 235 1164C235 1339 201 1479 105 1559L107 1561C156 1543 209 1536 325 1536H1146C1209 1536 1219 1528 1219 1510C1219 1500 1217 1485 1203 1459Z" glyph-name="Zcaron" horiz-adv-x="1335" unicode="&#381;" /><glyph d="M441 -26C231 -26 98 22 98 166C98 224 119 265 119 324C119 388 93 442 93 481C93 624 252 668 495 668C728 668 813 575 850 449C853 437 855 431 865 431C876 431 882 441 878 453C829 603 807 753 807 863C807 981 828 1118 828 1234C828 1306 807 1328 755 1328C687 1328 622 1278 539 1181C446 1062 348 900 291 697L282 698C301 809 299 914 299 1037C299 1214 241 1300 176 1355L179 1357C229 1339 282 1333 332 1333C448 1333 571 1356 731 1356C1067 1356 1258 1305 1258 1097C1258 920 1181 655 1181 450C1181 422 1181 392 1181 334V57L1023 0H979C861 0 827 16 827 69C827 122 881 210 881 268C881 280 876 286 868 286C863 286 856 283 852 272C790 93 662 -26 441 -26ZM821 356C821 582 682 635 500 635C441 635 406 618 406 569C406 487 542 444 542 328C542 222 462 123 462 71C462 36 484 26 534 26C628 26 821 145 821 356ZM989 0 1181 450C1181 71 1255 4 1358 -25L1356 -29C1213 -8 1113 0 989 0ZM763 1372Z" glyph-name="a" horiz-adv-x="1363" unicode="a" /><glyph d="M441 -26C231 -26 98 22 98 166C98 224 119 265 119 324C119 388 93 442 93 481C93 624 252 668 495 668C728 668 813 575 850 449C853 437 855 431 865 431C876 431 882 441 878 453C829 603 807 753 807 863C807 981 828 1118 828 1234C828 1306 807 1328 755 1328C687 1328 622 1278 539 1181C446 1062 348 900 291 697L282 698C301 809 299 914 299 1037C299 1214 241 1300 176 1355L179 1357C229 1339 282 1333 332 1333C448 1333 571 1356 731 1356C1067 1356 1258 1305 1258 1097C1258 920 1181 655 1181 450C1181 422 1181 392 1181 334V57L1023 0H979C861 0 827 16 827 69C827 122 881 210 881 268C881 280 876 286 868 286C863 286 856 283 852 272C790 93 662 -26 441 -26ZM821 356C821 582 682 635 500 635C441 635 406 618 406 569C406 487 542 444 542 328C542 222 462 123 462 71C462 36 484 26 534 26C628 26 821 145 821 356ZM989 0 1181 450C1181 71 1255 4 1358 -25L1356 -29C1213 -8 1113 0 989 0ZM763 1372ZM1092 1493C1015 1437 862 1417 753 1417C617 1417 542 1457 504 1493L510 1499C552 1470 638 1453 712 1453C836 1453 970 1501 1021 1577ZM760 1372ZM763 1372Z" glyph-name="aacute" horiz-adv-x="1363" unicode="&#225;" /><glyph d="M441 -26C231 -26 98 22 98 166C98 224 119 265 119 324C119 388 93 442 93 481C93 624 252 668 495 668C728 668 813 575 850 449C853 437 855 431 865 431C876 431 882 441 878 453C829 603 807 753 807 863C807 981 828 1118 828 1234C828 1306 807 1328 755 1328C687 1328 622 1278 539 1181C446 1062 348 900 291 697L282 698C301 809 299 914 299 1037C299 1214 241 1300 176 1355L179 1357C229 1339 282 1333 332 1333C448 1333 571 1356 731 1356C1067 1356 1258 1305 1258 1097C1258 920 1181 655 1181 450C1181 422 1181 392 1181 334V57L1023 0H979C861 0 827 16 827 69C827 122 881 210 881 268C881 280 876 286 868 286C863 286 856 283 852 272C790 93 662 -26 441 -26ZM821 356C821 582 682 635 500 635C441 635 406 618 406 569C406 487 542 444 542 328C542 222 462 123 462 71C462 36 484 26 534 26C628 26 821 145 821 356ZM989 0 1181 450C1181 71 1255 4 1358 -25L1356 -29C1213 -8 1113 0 989 0ZM763 1372ZM764 1481C498 1481 393 1500 385 1562H377C377 1490 419 1417 764 1417C1109 1417 1149 1490 1149 1562H1141C1135 1500 1030 1481 764 1481ZM763 1372Z" glyph-name="abreve" horiz-adv-x="1363" unicode="&#259;" /><glyph d="M441 -26C231 -26 98 22 98 166C98 224 119 265 119 324C119 388 93 442 93 481C93 624 252 668 495 668C728 668 813 575 850 449C853 437 855 431 865 431C876 431 882 441 878 453C829 603 807 753 807 863C807 981 828 1118 828 1234C828 1306 807 1328 755 1328C687 1328 622 1278 539 1181C446 1062 348 900 291 697L282 698C301 809 299 914 299 1037C299 1214 241 1300 176 1355L179 1357C229 1339 282 1333 332 1333C448 1333 571 1356 731 1356C1067 1356 1258 1305 1258 1097C1258 920 1181 655 1181 450C1181 422 1181 392 1181 334V57L1023 0H979C861 0 827 16 827 69C827 122 881 210 881 268C881 280 876 286 868 286C863 286 856 283 852 272C790 93 662 -26 441 -26ZM821 356C821 582 682 635 500 635C441 635 406 618 406 569C406 487 542 444 542 328C542 222 462 123 462 71C462 36 484 26 534 26C628 26 821 145 821 356ZM989 0 1181 450C1181 71 1255 4 1358 -25L1356 -29C1213 -8 1113 0 989 0ZM763 1372ZM378 1415C601 1439 712 1466 751 1513C756 1519 758 1523 763 1523C768 1523 770 1519 776 1513C815 1466 951 1439 1148 1415L1205 1478C855 1490 781 1544 768 1579H759C745 1544 697 1491 315 1478ZM763 1372Z" glyph-name="acircumflex" horiz-adv-x="1363" unicode="&#226;" /><glyph d="M703 1657C626 1601 473 1581 364 1581C228 1581 153 1621 115 1657L121 1663C163 1634 249 1617 323 1617C447 1617 581 1665 632 1741ZM371 1536ZM374 1536Z" glyph-name="acute" horiz-adv-x="816" unicode="&#180;" /><glyph d="M441 -26C231 -26 98 22 98 166C98 224 119 265 119 324C119 388 93 442 93 481C93 624 252 668 495 668C728 668 813 575 850 449C853 437 855 431 865 431C876 431 882 441 878 453C829 603 807 753 807 863C807 981 828 1118 828 1234C828 1306 807 1328 755 1328C687 1328 622 1278 539 1181C446 1062 348 900 291 697L282 698C301 809 299 914 299 1037C299 1214 241 1300 176 1355L179 1357C229 1339 282 1333 332 1333C448 1333 571 1356 731 1356C1067 1356 1258 1305 1258 1097C1258 920 1181 655 1181 450C1181 422 1181 392 1181 334V57L1023 0H979C861 0 827 16 827 69C827 122 881 210 881 268C881 280 876 286 868 286C863 286 856 283 852 272C790 93 662 -26 441 -26ZM821 356C821 582 682 635 500 635C441 635 406 618 406 569C406 487 542 444 542 328C542 222 462 123 462 71C462 36 484 26 534 26C628 26 821 145 821 356ZM989 0 1181 450C1181 71 1255 4 1358 -25L1356 -29C1213 -8 1113 0 989 0ZM763 1372ZM1010 1456C1101 1456 1148 1472 1148 1503C1148 1532 1101 1548 1010 1548C924 1548 877 1532 877 1503C877 1472 924 1456 1010 1456ZM516 1456C607 1456 648 1472 648 1503C648 1532 607 1548 516 1548C425 1548 378 1532 378 1503C378 1472 425 1456 516 1456ZM763 1372Z" glyph-name="adieresis" horiz-adv-x="1363" unicode="&#228;" /><glyph d="M441 -26C231 -26 98 22 98 166C98 224 119 265 119 324C119 388 93 442 93 481C93 624 252 668 495 668C728 668 813 575 850 449C853 437 855 431 865 431C876 431 882 441 878 453C829 603 807 753 807 863C807 981 828 1118 828 1234C828 1306 807 1328 755 1328C687 1328 622 1278 539 1181C446 1062 348 900 291 697L282 698C301 809 299 914 299 1037C299 1214 241 1300 176 1355L179 1357C229 1339 282 1333 332 1333C448 1333 571 1356 731 1356C1067 1356 1258 1305 1258 1097C1258 920 1181 655 1181 450C1181 422 1181 392 1181 334V57L1023 0H979C861 0 827 16 827 69C827 122 881 210 881 268C881 280 876 286 868 286C863 286 856 283 852 272C790 93 662 -26 441 -26ZM821 356C821 582 682 635 500 635C441 635 406 618 406 569C406 487 542 444 542 328C542 222 462 123 462 71C462 36 484 26 534 26C628 26 821 145 821 356ZM989 0 1181 450C1181 71 1255 4 1358 -25L1356 -29C1213 -8 1113 0 989 0ZM763 1372ZM432 1493C509 1437 662 1417 771 1417C907 1417 982 1457 1020 1493L1014 1499C972 1470 886 1453 812 1453C688 1453 554 1501 503 1577ZM764 1372Z" glyph-name="agrave" horiz-adv-x="1363" unicode="&#224;" /><glyph d="M441 -26C231 -26 98 22 98 166C98 224 119 265 119 324C119 388 93 442 93 481C93 624 252 668 495 668C728 668 813 575 850 449C853 437 855 431 865 431C876 431 882 441 878 453C829 603 807 753 807 863C807 981 828 1118 828 1234C828 1306 807 1328 755 1328C687 1328 622 1278 539 1181C446 1062 348 900 291 697L282 698C301 809 299 914 299 1037C299 1214 241 1300 176 1355L179 1357C229 1339 282 1333 332 1333C448 1333 571 1356 731 1356C1067 1356 1258 1305 1258 1097C1258 920 1181 655 1181 450C1181 422 1181 392 1181 334V57L1023 0H979C861 0 827 16 827 69C827 122 881 210 881 268C881 280 876 286 868 286C863 286 856 283 852 272C790 93 662 -26 441 -26ZM821 356C821 582 682 635 500 635C441 635 406 618 406 569C406 487 542 444 542 328C542 222 462 123 462 71C462 36 484 26 534 26C628 26 821 145 821 356ZM989 0 1181 450C1181 71 1255 4 1358 -25L1356 -29C1213 -8 1113 0 989 0ZM763 1372ZM389 1487C371 1497 355 1505 343 1532L349 1536C365 1521 396 1509 465 1509H1062C1130 1509 1161 1521 1177 1536L1183 1532C1171 1505 1156 1497 1138 1487C1156 1476 1171 1468 1183 1441L1177 1437C1161 1452 1130 1464 1062 1464H465C396 1464 365 1452 349 1437L343 1441C355 1468 371 1476 389 1487ZM763 1372Z" glyph-name="amacron" horiz-adv-x="1363" unicode="&#257;" /><glyph d="M441 -26C231 -26 98 22 98 166C98 224 119 265 119 324C119 388 93 442 93 481C93 624 252 668 495 668C728 668 813 575 850 449C853 437 855 431 865 431C876 431 882 441 878 453C829 603 807 753 807 863C807 981 828 1118 828 1234C828 1306 807 1328 755 1328C687 1328 622 1278 539 1181C446 1062 348 900 291 697L282 698C301 809 299 914 299 1037C299 1214 241 1300 176 1355L179 1357C229 1339 282 1333 332 1333C448 1333 571 1356 731 1356C1067 1356 1258 1305 1258 1097C1258 920 1181 655 1181 450C1181 422 1181 392 1181 334V57L1023 0H979C861 0 827 16 827 69C827 122 881 210 881 268C881 280 876 286 868 286C863 286 856 283 852 272C790 93 662 -26 441 -26ZM821 356C821 582 682 635 500 635C441 635 406 618 406 569C406 487 542 444 542 328C542 222 462 123 462 71C462 36 484 26 534 26C628 26 821 145 821 356ZM989 0 1181 450C1181 71 1255 4 1358 -25L1356 -29C1213 -8 1113 0 989 0ZM763 1372ZM973 1497C973 1474 920 1462 766 1462C611 1462 555 1474 555 1497C555 1519 588 1532 766 1532C940 1532 973 1519 973 1497ZM464 1495C464 1456 505 1415 766 1415C1025 1415 1064 1456 1064 1495C1064 1536 1013 1562 766 1562C517 1562 464 1536 464 1495ZM763 1372Z" glyph-name="aring" horiz-adv-x="1363" unicode="&#229;" /><glyph d="M161 661C384 685 495 712 534 759C539 765 541 769 546 769C551 769 553 765 559 759C598 712 734 685 931 661L988 724C638 736 564 790 551 825H542C528 790 480 737 98 724ZM546 618Z" glyph-name="asciicircum" horiz-adv-x="1086" unicode="^" /><glyph d="M441 -26C231 -26 98 22 98 166C98 224 119 265 119 324C119 388 93 442 93 481C93 624 252 668 495 668C728 668 813 575 850 449C853 437 855 431 865 431C876 431 882 441 878 453C829 603 807 753 807 863C807 981 828 1118 828 1234C828 1306 807 1328 755 1328C687 1328 622 1278 539 1181C446 1062 348 900 291 697L282 698C301 809 299 914 299 1037C299 1214 241 1300 176 1355L179 1357C229 1339 282 1333 332 1333C448 1333 571 1356 731 1356C1067 1356 1258 1305 1258 1097C1258 920 1181 655 1181 450C1181 422 1181 392 1181 334V57L1023 0H979C861 0 827 16 827 69C827 122 881 210 881 268C881 280 876 286 868 286C863 286 856 283 852 272C790 93 662 -26 441 -26ZM821 356C821 582 682 635 500 635C441 635 406 618 406 569C406 487 542 444 542 328C542 222 462 123 462 71C462 36 484 26 534 26C628 26 821 145 821 356ZM989 0 1181 450C1181 71 1255 4 1358 -25L1356 -29C1213 -8 1113 0 989 0ZM763 1372ZM495 1503C625 1503 827 1417 1009 1417C1104 1417 1148 1454 1148 1492C1148 1533 1084 1555 1031 1562L1028 1555C1071 1546 1083 1527 1083 1513C1083 1489 1062 1476 1025 1476C895 1476 693 1562 510 1562C416 1562 372 1526 372 1487C372 1446 436 1424 489 1417L492 1424C449 1433 437 1452 437 1466C437 1490 458 1503 495 1503ZM764 1372Z" glyph-name="atilde" horiz-adv-x="1363" unicode="&#227;" /><glyph d="M798 -27C642 -27 510 0 390 0H188V1479L373 1536H390C511 1536 608 1544 746 1565L747 1561C668 1535 634 1487 571 1219C546 1135 513 999 513 963C512 950 519 945 528 945C534 945 543 948 546 960C618 1208 753 1356 957 1356C1163 1356 1344 1325 1344 1144C1344 1016 1241 829 1241 673C1241 500 1321 341 1321 218C1321 32 1083 -27 798 -27ZM768 2C879 2 911 44 911 161C911 284 840 471 840 677C840 878 1020 1061 1020 1193C1020 1264 984 1312 904 1312C786 1312 578 1152 578 823V483C578 74 621 2 768 2ZM373 1536 188 1036C188 1481 114 1532 12 1561L13 1565C153 1544 251 1536 373 1536ZM373 0C251 0 152 -8 12 -29L11 -25C114 4 187 55 187 500Z" glyph-name="b" horiz-adv-x="1402" unicode="b" /><glyph d="M55 1505C39 1521 28 1535 -2 1541L-3 1535C15 1522 34 1494 48 1427L334 97C348 30 344 -2 332 -21L337 -26C361 -9 366 7 373 27C386 11 397 -1 426 -7L428 -1C410 12 390 40 376 107L90 1435C75 1504 81 1535 92 1554L88 1560C64 1543 60 1525 55 1505Z" glyph-name="backslash" horiz-adv-x="425" unicode="\" /><glyph d="M706 -85C788 -85 829 -78 853 -72L849 -45C824 -49 784 -56 740 -56C643 -56 587 -34 587 32C587 98 654 199 654 311C654 437 509 522 509 587C509 628 536 657 624 662C746 667 770 703 770 767C770 833 746 868 625 874C536 879 509 907 509 948C509 1014 654 1098 654 1224C654 1336 587 1437 587 1504C587 1571 643 1591 740 1591C784 1591 824 1584 849 1580L853 1607C829 1613 788 1620 706 1620C429 1620 236 1564 236 1432C236 1380 269 1306 269 1228C269 1153 188 1066 188 977C188 862 286 846 601 841C684 838 713 829 713 808C713 793 696 785 627 785H117C62 785 38 796 26 806L19 804C30 781 42 775 58 767C42 759 30 753 19 730L26 728C38 738 62 749 117 749H627C696 749 713 742 713 727C713 707 684 698 601 694C286 689 188 673 188 559C188 469 269 383 269 307C269 229 230 156 230 104C230 -29 426 -85 706 -85Z" glyph-name="braceleft" horiz-adv-x="871" unicode="{" /><glyph d="M165 -85C83 -85 42 -78 18 -72L22 -45C47 -49 87 -56 131 -56C228 -56 284 -34 284 32C284 98 217 199 217 311C217 437 362 522 362 587C362 628 335 657 247 662C125 667 101 703 101 767C101 833 125 868 246 874C335 879 362 907 362 948C362 1014 217 1098 217 1224C217 1336 284 1437 284 1504C284 1571 228 1591 131 1591C87 1591 47 1584 22 1580L18 1607C42 1613 83 1620 165 1620C442 1620 635 1564 635 1432C635 1380 602 1306 602 1228C602 1153 683 1066 683 977C683 862 585 846 270 841C187 838 158 829 158 808C158 793 175 785 244 785H754C809 785 833 796 845 806L852 804C841 781 829 775 813 767C829 759 841 753 852 730L845 728C833 738 809 749 754 749H244C175 749 158 742 158 727C158 707 187 698 270 694C585 689 683 673 683 559C683 469 602 383 602 307C602 229 641 156 641 104C641 -29 445 -85 165 -85Z" glyph-name="braceright" horiz-adv-x="871" unicode="}" /><glyph d="M571 -83C291 -83 95 -29 95 106C95 162 117 242 117 328C117 415 53 519 53 596C53 709 158 729 475 729C597 729 633 732 633 769C633 804 597 808 475 808C158 808 53 827 53 942C53 1018 117 1122 117 1209C117 1294 101 1375 101 1432C101 1564 295 1620 571 1620C654 1620 694 1613 718 1607L714 1580C689 1584 649 1591 605 1591C508 1591 452 1571 452 1504C452 1432 502 1324 502 1205C502 1069 374 972 374 910C374 868 401 841 487 839C643 836 662 813 662 769C662 723 643 702 487 699C401 697 374 669 374 628C374 565 502 468 502 332C502 211 452 103 452 34C452 -34 508 -56 605 -54C649 -56 689 -49 714 -44L718 -71C694 -78 654 -83 571 -83Z" glyph-name="bracketleft" horiz-adv-x="736" unicode="[" /><glyph d="M165 -83C445 -83 641 -29 641 106C641 162 619 242 619 328C619 415 683 519 683 596C683 709 578 729 261 729C139 729 103 732 103 769C103 804 139 808 261 808C578 808 683 827 683 942C683 1018 619 1122 619 1209C619 1294 635 1375 635 1432C635 1564 441 1620 165 1620C82 1620 42 1613 18 1607L22 1580C47 1584 87 1591 131 1591C228 1591 284 1571 284 1504C284 1432 234 1324 234 1205C234 1069 362 972 362 910C362 868 335 841 249 839C93 836 74 813 74 769C74 723 93 702 249 699C335 697 362 669 362 628C362 565 234 468 234 332C234 211 284 103 284 34C284 -34 228 -56 131 -54C87 -56 47 -49 22 -44L18 -71C42 -78 82 -83 165 -83Z" glyph-name="bracketright" horiz-adv-x="736" unicode="]" /><glyph d="M486 1645C220 1645 115 1664 107 1726H99C99 1654 141 1581 486 1581C831 1581 871 1654 871 1726H863C857 1664 752 1645 486 1645ZM485 1536Z" glyph-name="breve" horiz-adv-x="978" unicode="&#728;" /><glyph d="M574 1323C509 1323 461 1306 461 1252C461 1178 629 1142 629 991C629 728 93 778 93 661C93 555 626 639 626 353C626 191 444 155 444 79C444 24 486 6 572 6C668 6 735 47 805 144C870 251 957 417 1005 607L1014 606C996 508 994 413 994 291C994 128 1035 34 1122 -24L1119 -27C1068 -9 1017 -4 963 -4C870 -4 763 -27 595 -27C271 -27 66 28 66 188C66 274 134 323 134 396C134 499 60 578 60 663C60 748 157 817 157 922C157 996 121 1062 121 1138C121 1293 306 1356 592 1356C756 1356 862 1333 954 1333C1007 1333 1058 1338 1109 1356L1112 1353C1025 1294 979 1207 979 1051C979 934 979 845 997 751L988 749C941 931 862 1092 795 1192C724 1282 675 1323 574 1323ZM603 1372ZM609 0Z" glyph-name="c" horiz-adv-x="1146" unicode="c" /><glyph d="M932 1493C855 1437 702 1417 593 1417C457 1417 382 1457 344 1493L350 1499C392 1470 478 1453 552 1453C676 1453 810 1501 861 1577ZM600 1372ZM603 1372ZM574 1323C509 1323 461 1306 461 1252C461 1178 629 1142 629 991C629 728 93 778 93 661C93 555 626 639 626 353C626 191 444 155 444 79C444 24 486 6 572 6C668 6 735 47 805 144C870 251 957 417 1005 607L1014 606C996 508 994 413 994 291C994 128 1035 34 1122 -24L1119 -27C1068 -9 1017 -4 963 -4C870 -4 763 -27 595 -27C271 -27 66 28 66 188C66 274 134 323 134 396C134 499 60 578 60 663C60 748 157 817 157 922C157 996 121 1062 121 1138C121 1293 306 1356 592 1356C756 1356 862 1333 954 1333C1007 1333 1058 1338 1109 1356L1112 1353C1025 1294 979 1207 979 1051C979 934 979 845 997 751L988 749C941 931 862 1092 795 1192C724 1282 675 1323 574 1323ZM603 1372ZM609 0Z" glyph-name="cacute" horiz-adv-x="1146" unicode="&#263;" /><glyph d="M172 1741 109 1679C438 1668 477 1612 490 1578H499C512 1612 574 1669 874 1679L817 1741C652 1722 538 1688 507 1644C502 1637 499 1634 494 1634C490 1634 487 1637 482 1644C451 1689 359 1722 172 1741ZM494 1536Z" glyph-name="caron" horiz-adv-x="983" unicode="&#711;" /><glyph d="M281 1577 218 1515C547 1504 586 1448 599 1414H608C621 1448 683 1505 983 1515L926 1577C761 1558 647 1524 616 1480C611 1473 608 1470 603 1470C599 1470 596 1473 591 1480C560 1525 468 1558 281 1577ZM603 1372ZM574 1323C509 1323 461 1306 461 1252C461 1178 629 1142 629 991C629 728 93 778 93 661C93 555 626 639 626 353C626 191 444 155 444 79C444 24 486 6 572 6C668 6 735 47 805 144C870 251 957 417 1005 607L1014 606C996 508 994 413 994 291C994 128 1035 34 1122 -24L1119 -27C1068 -9 1017 -4 963 -4C870 -4 763 -27 595 -27C271 -27 66 28 66 188C66 274 134 323 134 396C134 499 60 578 60 663C60 748 157 817 157 922C157 996 121 1062 121 1138C121 1293 306 1356 592 1356C756 1356 862 1333 954 1333C1007 1333 1058 1338 1109 1356L1112 1353C1025 1294 979 1207 979 1051C979 934 979 845 997 751L988 749C941 931 862 1092 795 1192C724 1282 675 1323 574 1323ZM603 1372ZM609 0Z" glyph-name="ccaron" horiz-adv-x="1146" unicode="&#269;" /><glyph d="M574 1323C509 1323 461 1306 461 1252C461 1178 629 1142 629 991C629 728 93 778 93 661C93 555 626 639 626 353C626 191 444 155 444 79C444 24 486 6 572 6C668 6 735 47 805 144C870 251 957 417 1005 607L1014 606C996 508 994 413 994 291C994 128 1035 34 1122 -24L1119 -27C1068 -9 1017 -4 963 -4C870 -4 763 -27 595 -27C271 -27 66 28 66 188C66 274 134 323 134 396C134 499 60 578 60 663C60 748 157 817 157 922C157 996 121 1062 121 1138C121 1293 306 1356 592 1356C756 1356 862 1333 954 1333C1007 1333 1058 1338 1109 1356L1112 1353C1025 1294 979 1207 979 1051C979 934 979 845 997 751L988 749C941 931 862 1092 795 1192C724 1282 675 1323 574 1323ZM603 1372ZM609 0ZM809 -110C809 -90 792 -78 748 -78C684 -78 649 -94 602 -124C569 -146 536 -165 502 -165C457 -165 441 -126 470 -100L588 0H630L500 -111C486 -123 498 -134 511 -134C527 -134 538 -128 553 -117C623 -71 673 -49 753 -49C845 -49 870 -80 870 -118C870 -183 738 -233 525 -233C351 -233 239 -206 173 -170L249 -86C316 -153 402 -188 530 -188C685 -188 809 -149 809 -110ZM609 0Z" glyph-name="ccedilla" horiz-adv-x="1146" unicode="&#231;" /><glyph d="M218 1415C441 1439 552 1466 591 1513C596 1519 598 1523 603 1523C608 1523 610 1519 616 1513C655 1466 791 1439 988 1415L1045 1478C695 1490 621 1544 608 1579H599C585 1544 537 1491 155 1478ZM603 1372ZM574 1323C509 1323 461 1306 461 1252C461 1178 629 1142 629 991C629 728 93 778 93 661C93 555 626 639 626 353C626 191 444 155 444 79C444 24 486 6 572 6C668 6 735 47 805 144C870 251 957 417 1005 607L1014 606C996 508 994 413 994 291C994 128 1035 34 1122 -24L1119 -27C1068 -9 1017 -4 963 -4C870 -4 763 -27 595 -27C271 -27 66 28 66 188C66 274 134 323 134 396C134 499 60 578 60 663C60 748 157 817 157 922C157 996 121 1062 121 1138C121 1293 306 1356 592 1356C756 1356 862 1333 954 1333C1007 1333 1058 1338 1109 1356L1112 1353C1025 1294 979 1207 979 1051C979 934 979 845 997 751L988 749C941 931 862 1092 795 1192C724 1282 675 1323 574 1323ZM603 1372ZM609 0Z" glyph-name="ccircumflex" horiz-adv-x="1146" unicode="&#265;" /><glyph d="M714 -110C714 -90 697 -78 653 -78C589 -78 554 -94 507 -124C474 -146 441 -165 407 -165C362 -165 346 -126 375 -100L493 0H535L405 -111C391 -123 403 -134 416 -134C432 -134 443 -128 458 -117C528 -71 578 -49 658 -49C750 -49 775 -80 775 -118C775 -183 643 -233 430 -233C256 -233 144 -206 78 -170L154 -86C221 -153 307 -188 435 -188C590 -188 714 -149 714 -110ZM514 0Z" glyph-name="cedilla" horiz-adv-x="895" unicode="&#184;" /><glyph d="M161 1579C384 1603 495 1630 534 1677C539 1683 541 1687 546 1687C551 1687 553 1683 559 1677C598 1630 734 1603 931 1579L988 1642C638 1654 564 1708 551 1743H542C528 1708 480 1655 98 1642ZM546 1536Z" glyph-name="circumflex" horiz-adv-x="1086" unicode="&#710;" /><glyph d="M288 270C303 286 318 316 346 341C373 366 399 381 413 397C443 428 443 458 413 489C399 506 369 521 346 547C319 574 303 601 288 618C258 647 227 647 196 618C179 600 166 571 137 547C108 521 83 502 69 489C38 458 40 430 69 397C83 381 112 367 137 341C166 312 178 288 196 270C227 240 258 239 288 270ZM288 919C303 935 318 965 346 990C373 1015 399 1030 413 1046C443 1077 443 1107 413 1138C399 1155 369 1170 346 1196C319 1223 303 1250 288 1267C258 1296 227 1296 196 1267C179 1249 166 1220 137 1196C108 1170 83 1151 69 1138C38 1107 40 1079 69 1046C83 1030 112 1016 137 990C166 961 178 937 196 919C227 889 258 888 288 919Z" glyph-name="colon" horiz-adv-x="482" unicode=":" /><glyph d="M125 -165 129 -173C298 -143 390 -34 390 87C390 184 348 274 327 335C310 377 266 383 231 358C214 347 188 321 158 304C125 286 96 277 78 266C41 243 32 203 56 178C70 164 91 145 122 118C167 80 203 19 201 -29C200 -72 179 -125 125 -165Z" glyph-name="comma" horiz-adv-x="446" unicode="," /><glyph d="M433 -25C221 -25 61 20 61 185C61 313 165 500 165 656C165 829 85 988 85 1111C85 1297 322 1356 608 1356C722 1356 821 1342 902 1325C915 1323 921 1327 923 1333C924 1341 919 1347 908 1350C832 1366 788 1395 754 1457C728 1522 699 1547 658 1561L659 1565C798 1544 894 1536 1030 1536L1218 1499V58L1030 0H1012C849 0 819 5 819 71C819 143 893 305 893 366C893 378 888 384 880 384C874 384 866 382 862 370C790 123 654 -25 433 -25ZM501 19C620 19 827 179 827 507V846C827 1255 784 1327 637 1327C526 1327 494 1285 494 1168C494 1045 565 858 565 652C565 437 405 242 405 99C405 49 429 19 501 19ZM1033 0 1218 500C1218 55 1292 4 1394 -25L1393 -29C1253 -8 1155 0 1033 0ZM1032 1536C1154 1536 1253 1544 1393 1565L1394 1561C1291 1532 1218 1481 1218 1036Z" glyph-name="d" horiz-adv-x="1405" unicode="d" /><glyph d="M741 1620C832 1620 879 1636 879 1667C879 1696 832 1712 741 1712C655 1712 608 1696 608 1667C608 1636 655 1620 741 1620ZM247 1620C338 1620 379 1636 379 1667C379 1696 338 1712 247 1712C156 1712 109 1696 109 1667C109 1636 156 1620 247 1620ZM494 1536Z" glyph-name="dieresis" horiz-adv-x="987" unicode="&#168;" /><glyph d="M197 0V1331H588V0ZM403 0 588 500C588 55 662 4 764 -25L763 -29C623 -8 525 0 403 0ZM382 1331 197 831C197 1276 123 1327 21 1356L22 1360C162 1339 260 1331 382 1331ZM403 1331C525 1331 624 1339 764 1360L765 1356C662 1327 589 1276 589 831ZM383 0C261 0 162 -8 22 -29L21 -25C124 4 197 55 197 500ZM393 1372Z" glyph-name="dotlessi" horiz-adv-x="786" unicode="&#305;" /><glyph d="M597 1010C597 944 539 914 539 852C539 747 768 665 1050 665C1165 665 1211 677 1211 725C1211 834 755 783 755 991C755 1140 916 1175 916 1248C916 1305 848 1323 685 1323C522 1323 455 1305 455 1248C455 1176 597 1133 597 1010ZM1305 621C1257 530 1232 468 1232 404C1232 318 1305 271 1305 183C1305 28 1066 -27 685 -27C305 -27 66 28 66 192C66 269 134 315 134 381C134 492 60 576 60 663C60 748 157 823 157 936C157 1005 121 1067 121 1138C121 1293 325 1356 685 1356C1044 1356 1249 1293 1249 1138C1249 1072 1214 1014 1214 949C1214 861 1265 805 1265 735C1265 670 1229 629 1049 629C685 629 478 790 298 790C194 790 99 752 99 682C99 543 614 654 614 353C614 193 438 157 438 83C438 24 511 6 685 6C859 6 933 24 933 83C933 154 757 189 757 340C757 533 1178 521 1297 625ZM711 1372Z" glyph-name="e" horiz-adv-x="1360" unicode="e" /><glyph d="M1040 1493C963 1437 810 1417 701 1417C565 1417 490 1457 452 1493L458 1499C500 1470 586 1453 660 1453C784 1453 918 1501 969 1577ZM708 1372ZM711 1372ZM597 1010C597 944 539 914 539 852C539 747 768 665 1050 665C1165 665 1211 677 1211 725C1211 834 755 783 755 991C755 1140 916 1175 916 1248C916 1305 848 1323 685 1323C522 1323 455 1305 455 1248C455 1176 597 1133 597 1010ZM1305 621C1257 530 1232 468 1232 404C1232 318 1305 271 1305 183C1305 28 1066 -27 685 -27C305 -27 66 28 66 192C66 269 134 315 134 381C134 492 60 576 60 663C60 748 157 823 157 936C157 1005 121 1067 121 1138C121 1293 325 1356 685 1356C1044 1356 1249 1293 1249 1138C1249 1072 1214 1014 1214 949C1214 861 1265 805 1265 735C1265 670 1229 629 1049 629C685 629 478 790 298 790C194 790 99 752 99 682C99 543 614 654 614 353C614 193 438 157 438 83C438 24 511 6 685 6C859 6 933 24 933 83C933 154 757 189 757 340C757 533 1178 521 1297 625ZM711 1372Z" glyph-name="eacute" horiz-adv-x="1360" unicode="&#233;" /><glyph d="M597 1010C597 944 539 914 539 852C539 747 768 665 1050 665C1165 665 1211 677 1211 725C1211 834 755 783 755 991C755 1140 916 1175 916 1248C916 1305 848 1323 685 1323C522 1323 455 1305 455 1248C455 1176 597 1133 597 1010ZM1305 621C1257 530 1232 468 1232 404C1232 318 1305 271 1305 183C1305 28 1066 -27 685 -27C305 -27 66 28 66 192C66 269 134 315 134 381C134 492 60 576 60 663C60 748 157 823 157 936C157 1005 121 1067 121 1138C121 1293 325 1356 685 1356C1044 1356 1249 1293 1249 1138C1249 1072 1214 1014 1214 949C1214 861 1265 805 1265 735C1265 670 1229 629 1049 629C685 629 478 790 298 790C194 790 99 752 99 682C99 543 614 654 614 353C614 193 438 157 438 83C438 24 511 6 685 6C859 6 933 24 933 83C933 154 757 189 757 340C757 533 1178 521 1297 625ZM711 1372ZM712 1481C446 1481 341 1500 333 1562H325C325 1490 367 1417 712 1417C1057 1417 1097 1490 1097 1562H1089C1083 1500 978 1481 712 1481ZM711 1372Z" glyph-name="ebreve" horiz-adv-x="1360" unicode="&#277;" /><glyph d="M389 1577 326 1515C655 1504 694 1448 707 1414H716C729 1448 791 1505 1091 1515L1034 1577C869 1558 755 1524 724 1480C719 1473 716 1470 711 1470C707 1470 704 1473 699 1480C668 1525 576 1558 389 1577ZM711 1372ZM597 1010C597 944 539 914 539 852C539 747 768 665 1050 665C1165 665 1211 677 1211 725C1211 834 755 783 755 991C755 1140 916 1175 916 1248C916 1305 848 1323 685 1323C522 1323 455 1305 455 1248C455 1176 597 1133 597 1010ZM1305 621C1257 530 1232 468 1232 404C1232 318 1305 271 1305 183C1305 28 1066 -27 685 -27C305 -27 66 28 66 192C66 269 134 315 134 381C134 492 60 576 60 663C60 748 157 823 157 936C157 1005 121 1067 121 1138C121 1293 325 1356 685 1356C1044 1356 1249 1293 1249 1138C1249 1072 1214 1014 1214 949C1214 861 1265 805 1265 735C1265 670 1229 629 1049 629C685 629 478 790 298 790C194 790 99 752 99 682C99 543 614 654 614 353C614 193 438 157 438 83C438 24 511 6 685 6C859 6 933 24 933 83C933 154 757 189 757 340C757 533 1178 521 1297 625ZM711 1372Z" glyph-name="ecaron" horiz-adv-x="1360" unicode="&#283;" /><glyph d="M326 1415C549 1439 660 1466 699 1513C704 1519 706 1523 711 1523C716 1523 718 1519 724 1513C763 1466 899 1439 1096 1415L1153 1478C803 1490 729 1544 716 1579H707C693 1544 645 1491 263 1478ZM711 1372ZM597 1010C597 944 539 914 539 852C539 747 768 665 1050 665C1165 665 1211 677 1211 725C1211 834 755 783 755 991C755 1140 916 1175 916 1248C916 1305 848 1323 685 1323C522 1323 455 1305 455 1248C455 1176 597 1133 597 1010ZM1305 621C1257 530 1232 468 1232 404C1232 318 1305 271 1305 183C1305 28 1066 -27 685 -27C305 -27 66 28 66 192C66 269 134 315 134 381C134 492 60 576 60 663C60 748 157 823 157 936C157 1005 121 1067 121 1138C121 1293 325 1356 685 1356C1044 1356 1249 1293 1249 1138C1249 1072 1214 1014 1214 949C1214 861 1265 805 1265 735C1265 670 1229 629 1049 629C685 629 478 790 298 790C194 790 99 752 99 682C99 543 614 654 614 353C614 193 438 157 438 83C438 24 511 6 685 6C859 6 933 24 933 83C933 154 757 189 757 340C757 533 1178 521 1297 625ZM711 1372Z" glyph-name="ecircumflex" horiz-adv-x="1360" unicode="&#234;" /><glyph d="M958 1456C1049 1456 1096 1472 1096 1503C1096 1532 1049 1548 958 1548C872 1548 825 1532 825 1503C825 1472 872 1456 958 1456ZM464 1456C555 1456 596 1472 596 1503C596 1532 555 1548 464 1548C373 1548 326 1532 326 1503C326 1472 373 1456 464 1456ZM711 1372ZM597 1010C597 944 539 914 539 852C539 747 768 665 1050 665C1165 665 1211 677 1211 725C1211 834 755 783 755 991C755 1140 916 1175 916 1248C916 1305 848 1323 685 1323C522 1323 455 1305 455 1248C455 1176 597 1133 597 1010ZM1305 621C1257 530 1232 468 1232 404C1232 318 1305 271 1305 183C1305 28 1066 -27 685 -27C305 -27 66 28 66 192C66 269 134 315 134 381C134 492 60 576 60 663C60 748 157 823 157 936C157 1005 121 1067 121 1138C121 1293 325 1356 685 1356C1044 1356 1249 1293 1249 1138C1249 1072 1214 1014 1214 949C1214 861 1265 805 1265 735C1265 670 1229 629 1049 629C685 629 478 790 298 790C194 790 99 752 99 682C99 543 614 654 614 353C614 193 438 157 438 83C438 24 511 6 685 6C859 6 933 24 933 83C933 154 757 189 757 340C757 533 1178 521 1297 625ZM711 1372Z" glyph-name="edieresis" horiz-adv-x="1360" unicode="&#235;" /><glyph d="M597 1010C597 944 539 914 539 852C539 747 768 665 1050 665C1165 665 1211 677 1211 725C1211 834 755 783 755 991C755 1140 916 1175 916 1248C916 1305 848 1323 685 1323C522 1323 455 1305 455 1248C455 1176 597 1133 597 1010ZM1305 621C1257 530 1232 468 1232 404C1232 318 1305 271 1305 183C1305 28 1066 -27 685 -27C305 -27 66 28 66 192C66 269 134 315 134 381C134 492 60 576 60 663C60 748 157 823 157 936C157 1005 121 1067 121 1138C121 1293 325 1356 685 1356C1044 1356 1249 1293 1249 1138C1249 1072 1214 1014 1214 949C1214 861 1265 805 1265 735C1265 670 1229 629 1049 629C685 629 478 790 298 790C194 790 99 752 99 682C99 543 614 654 614 353C614 193 438 157 438 83C438 24 511 6 685 6C859 6 933 24 933 83C933 154 757 189 757 340C757 533 1178 521 1297 625ZM711 1372ZM380 1493C457 1437 610 1417 719 1417C855 1417 930 1457 968 1493L962 1499C920 1470 834 1453 760 1453C636 1453 502 1501 451 1577ZM712 1372Z" glyph-name="egrave" horiz-adv-x="1360" unicode="&#232;" /><glyph d="M689 -25C1177 -25 1320 27 1321 162C1320 279 1224 373 1225 488C1224 591 1290 620 1292 673C1290 735 1238 758 899 765C847 766 836 771 837 782C836 793 847 798 898 800C1238 806 1290 830 1291 889C1290 941 1223 967 1225 1069C1223 1176 1293 1271 1294 1382C1293 1508 1159 1561 690 1561C219 1561 84 1508 84 1382C84 1271 154 1176 154 1069C154 967 88 941 88 889C88 830 140 806 480 800C531 798 542 793 542 782C542 771 530 766 480 765C139 758 87 735 87 673C87 620 153 591 153 488C153 373 58 279 58 162C58 27 200 -25 689 -25ZM689 7C474 7 430 28 430 79C430 172 624 252 624 452C624 587 491 639 270 654C181 666 148 674 148 693C148 721 295 739 686 739C1081 739 1229 721 1231 693C1229 674 1197 666 1109 654C887 639 753 587 755 452C753 252 947 172 948 79C947 28 904 7 689 7ZM687 824C295 824 149 842 149 869C149 888 181 896 271 908C508 923 625 978 625 1100C625 1284 452 1361 452 1455C452 1504 488 1528 690 1528C887 1528 925 1504 926 1455C925 1361 753 1284 754 1100C753 978 869 923 1108 908C1196 896 1229 888 1230 869C1229 842 1081 824 687 824Z" glyph-name="eight" horiz-adv-x="1379" unicode="8" /><glyph d="M288 -4C303 12 318 42 346 67C373 92 399 107 413 123C443 154 443 184 413 215C399 232 369 247 346 273C319 300 303 327 288 344C258 373 227 373 196 344C179 326 166 297 137 273C108 247 83 228 69 215C38 184 40 156 69 123C83 107 112 93 137 67C166 38 178 14 196 -4C227 -34 258 -35 288 -4ZM769 -4C784 12 799 42 827 67C854 92 880 107 894 123C924 154 924 184 894 215C880 232 850 247 827 273C800 300 784 327 769 344C739 373 708 373 677 344C660 326 647 297 618 273C589 247 564 228 550 215C519 184 521 156 550 123C564 107 593 93 618 67C647 38 659 14 677 -4C708 -34 739 -35 769 -4ZM1250 -4C1265 12 1280 42 1308 67C1335 92 1361 107 1375 123C1405 154 1405 184 1375 215C1361 232 1331 247 1308 273C1281 300 1265 327 1250 344C1220 373 1189 373 1158 344C1141 326 1128 297 1099 273C1070 247 1045 228 1031 215C1000 184 1002 156 1031 123C1045 107 1074 93 1099 67C1128 38 1140 14 1158 -4C1189 -34 1220 -35 1250 -4Z" glyph-name="ellipsis" horiz-adv-x="1444" unicode="&#8230;" /><glyph d="M597 1010C597 944 539 914 539 852C539 747 768 665 1050 665C1165 665 1211 677 1211 725C1211 834 755 783 755 991C755 1140 916 1175 916 1248C916 1305 848 1323 685 1323C522 1323 455 1305 455 1248C455 1176 597 1133 597 1010ZM1305 621C1257 530 1232 468 1232 404C1232 318 1305 271 1305 183C1305 28 1066 -27 685 -27C305 -27 66 28 66 192C66 269 134 315 134 381C134 492 60 576 60 663C60 748 157 823 157 936C157 1005 121 1067 121 1138C121 1293 325 1356 685 1356C1044 1356 1249 1293 1249 1138C1249 1072 1214 1014 1214 949C1214 861 1265 805 1265 735C1265 670 1229 629 1049 629C685 629 478 790 298 790C194 790 99 752 99 682C99 543 614 654 614 353C614 193 438 157 438 83C438 24 511 6 685 6C859 6 933 24 933 83C933 154 757 189 757 340C757 533 1178 521 1297 625ZM711 1372ZM337 1487C319 1497 303 1505 291 1532L297 1536C313 1521 344 1509 413 1509H1010C1078 1509 1109 1521 1125 1536L1131 1532C1119 1505 1104 1497 1086 1487C1104 1476 1119 1468 1131 1441L1125 1437C1109 1452 1078 1464 1010 1464H413C344 1464 313 1452 297 1437L291 1441C303 1468 319 1476 337 1487ZM711 1372Z" glyph-name="emacron" horiz-adv-x="1360" unicode="&#275;" /><glyph d="M82 791C64 801 48 809 36 836L42 840C58 825 89 813 158 813H1746C1814 813 1845 825 1861 840L1867 836C1855 809 1840 801 1822 791C1840 780 1855 772 1867 745L1861 741C1845 756 1814 768 1746 768H158C89 768 58 756 42 741L36 745C48 772 64 780 82 791Z" glyph-name="emdash" horiz-adv-x="1903" unicode="&#8212;" /><glyph d="M82 791C64 801 48 809 36 836L42 840C58 825 89 813 158 813H789C857 813 888 825 904 840L910 836C898 809 883 801 865 791C883 780 898 772 910 745L904 741C888 756 857 768 789 768H158C89 768 58 756 42 741L36 745C48 772 64 780 82 791Z" glyph-name="endash" horiz-adv-x="946" unicode="&#8211;" /><glyph d="M339 1561C569 1561 631 1490 630 1343C629 1228 543 1028 477 875C436 761 393 563 378 428H362L363 1134C363 1175 355 1190 339 1190C323 1190 316 1175 316 1134V428H300C285 563 242 762 201 876C135 1029 50 1228 48 1343C47 1490 109 1561 339 1561ZM386 -4C401 12 416 42 444 67C471 92 497 107 511 123C541 154 541 184 511 215C497 232 467 247 444 273C417 300 401 327 386 344C356 373 325 373 294 344C277 326 264 297 235 273C206 247 181 228 167 215C136 184 138 156 167 123C181 107 210 93 235 67C264 38 276 14 294 -4C325 -34 356 -35 386 -4Z" glyph-name="exclam" horiz-adv-x="678" unicode="!" /><glyph d="M360 -234C130 -234 68 -163 69 -16C70 99 156 299 222 452C263 566 306 764 321 899H337L336 193C336 152 344 137 360 137C376 137 383 152 383 193V899H399C414 764 457 565 498 451C564 298 649 99 651 -16C652 -163 590 -234 360 -234ZM313 1331C298 1315 283 1285 255 1260C228 1235 202 1220 188 1204C158 1173 158 1143 188 1112C202 1095 232 1080 255 1054C282 1027 298 1000 313 983C343 954 374 954 405 983C422 1001 435 1030 464 1054C493 1080 518 1099 532 1112C563 1143 561 1171 532 1204C518 1220 489 1234 464 1260C435 1289 423 1313 405 1331C374 1361 343 1362 313 1331Z" glyph-name="exclamdown" horiz-adv-x="697" unicode="&#161;" /><glyph d="M743 0H352V1047L743 957ZM1070 1152C1058 1134 1045 1127 1031 1119C1045 1111 1058 1105 1068 1083L1062 1081C1049 1091 1025 1101 972 1101H137C82 1101 58 1091 45 1081L39 1083C49 1105 62 1111 78 1119C62 1127 49 1133 39 1156L45 1158C58 1148 82 1137 137 1137H889C929 1137 952 1140 952 1159C952 1176 940 1193 837 1224C634 1283 371 1339 158 1339C116 1339 94 1325 94 1294C94 1268 121 1242 232 1229C677 1181 743 1134 743 957L352 1025C352 1161 326 1183 182 1203C45 1223 -9 1287 -9 1397C-9 1498 62 1561 232 1561C351 1561 808 1534 1043 1561L1047 1554C975 1502 959 1415 959 1322C959 1204 981 1149 1029 1150C1043 1150 1053 1152 1065 1156ZM557 0 742 500C742 55 816 4 918 -25L917 -29C777 -8 679 0 557 0ZM538 0C416 0 317 -8 177 -29L176 -25C279 4 352 55 352 500Z" glyph-name="f" horiz-adv-x="1060" unicode="f" /><glyph d="M209 832C209 827 212 824 217 824C222 824 227 828 233 835C456 1111 601 1150 814 1150C1032 1150 1126 1101 1126 988C1126 870 1038 756 1038 589C1038 393 1119 302 1119 182C1119 56 1021 -25 751 -25C563 -25 421 -4 301 -4C236 -4 186 -11 146 -28L142 -25C192 28 210 157 211 320C210 481 198 582 182 684L190 685C240 466 365 309 477 191C595 79 733 16 858 16C962 15 1022 54 1022 107C1022 250 592 313 592 604C591 819 720 943 720 1046C720 1085 697 1098 667 1098C590 1098 460 1051 265 819C253 802 233 793 208 793C187 793 171 803 171 821C171 850 200 890 200 1006C200 1134 167 1290 167 1460C167 1530 194 1561 240 1561C286 1561 303 1534 317 1459C331 1387 347 1380 371 1380C468 1380 467 1561 640 1561C780 1561 933 1546 1065 1546C1103 1546 1133 1556 1142 1564L1146 1561L1112 1370C1090 1247 1039 1235 863 1245L489 1258C339 1267 309 1282 280 1454C273 1499 262 1524 240 1524C212 1524 205 1502 205 1469C205 1284 237 1126 237 1008C237 898 209 844 209 832Z" glyph-name="five" horiz-adv-x="1231" unicode="5" /><glyph d="M612 0V522H1002V0ZM150 537H460C856 537 966 699 966 1029V1313C966 1462 916 1518 780 1518C677 1518 637 1469 637 1396C637 1253 735 1034 735 859C735 676 617 618 207 594C91 583 48 573 48 556C48 544 58 537 150 537ZM150 508C39 508 13 521 13 557C13 602 92 612 221 636C293 653 368 695 368 807C368 942 234 1126 234 1321C234 1466 357 1561 715 1561C962 1561 1002 1473 1002 1313V544H1096C1149 544 1173 555 1186 565L1192 563C1182 540 1169 534 1155 526C1169 518 1182 512 1192 489L1186 487C1173 497 1149 508 1096 508H1002ZM817 0 1002 500C1002 55 1076 4 1178 -25L1177 -29C1037 -8 939 0 817 0ZM797 0C675 0 576 -8 436 -29L435 -25C538 4 611 55 611 500Z" glyph-name="four" horiz-adv-x="1212" unicode="4" /><glyph d="M462 -233C187 -233 52 -140 52 -3C52 157 206 211 555 260C844 298 902 327 925 366C935 380 931 388 919 389C912 389 903 386 892 377C829 335 709 294 499 294C293 294 95 325 95 488C95 573 160 698 160 795C160 916 119 1028 119 1112C119 1297 356 1356 642 1356C798 1356 930 1331 1049 1331H1252V744C1252 586 1309 466 1309 332C1309 76 904 -233 462 -233ZM590 10C1087 10 1167 51 1167 154C1167 233 1126 294 1039 380C939 476 861 563 861 729V847C861 1255 818 1327 671 1327C561 1327 528 1285 528 1169C528 1081 567 947 567 820C567 663 419 531 419 431C419 377 455 327 551 327C621 327 769 346 849 390C876 410 901 420 927 419C961 416 974 391 962 363C940 308 861 272 610 230C451 199 389 148 389 100C389 48 434 10 590 10ZM1066 1331C1188 1331 1286 1339 1426 1360L1428 1356C1325 1327 1252 1280 1252 857Z" glyph-name="g" horiz-adv-x="1417" unicode="g" /><glyph d="M106 1657C183 1601 336 1581 445 1581C581 1581 656 1621 694 1657L688 1663C646 1634 560 1617 486 1617C362 1617 228 1665 177 1741ZM438 1536Z" glyph-name="grave" horiz-adv-x="816" unicode="`" /><glyph d="M1082 0C967 0 864 -25 750 -25C638 -25 529 0 397 0H203V1477L391 1535H409C572 1535 602 1531 602 1464C602 1343 527 1070 527 965C527 952 533 946 542 946C548 946 558 949 561 960C633 1208 768 1356 988 1356C1193 1356 1348 1310 1348 1143C1348 1009 1266 812 1266 496V0ZM876 250V420C876 953 1016 1094 1016 1232C1016 1281 990 1312 919 1312C801 1312 594 1152 594 823V481C594 72 617 -4 744 -4C811 -4 876 53 876 250ZM389 1535 204 1035C204 1480 130 1531 28 1560L29 1564C169 1543 267 1535 389 1535ZM1081 0 1266 500C1266 55 1340 4 1442 -25L1441 -29C1301 -8 1203 0 1081 0ZM389 0C267 0 168 -8 28 -29L27 -25C130 4 203 55 203 500Z" glyph-name="h" horiz-adv-x="1463" unicode="h" /><glyph d="M1026 1657C956 1604 817 1581 719 1581C593 1581 526 1623 490 1657L496 1663C534 1636 611 1617 678 1617C789 1617 906 1668 954 1741ZM630 1657C560 1604 421 1581 324 1581C198 1581 130 1623 94 1657L100 1663C138 1636 215 1617 282 1617C393 1617 510 1668 559 1741ZM565 1536Z" glyph-name="hungarumlaut" horiz-adv-x="1106" unicode="&#733;" /><glyph d="M82 791C64 801 48 809 36 836L42 840C58 825 89 813 158 813H329C397 813 428 825 444 840L450 836C438 809 424 801 405 791C424 780 438 772 450 745L444 741C428 756 397 768 329 768H158C89 768 58 756 42 741L36 745C48 772 64 780 82 791Z" glyph-name="hyphen" horiz-adv-x="486" unicode="-" /><glyph d="M390 1298C578 1298 666 1346 666 1441C666 1533 578 1583 390 1583C210 1583 119 1533 119 1441C119 1346 210 1298 390 1298ZM197 0V1234H588V0ZM403 0 588 500C588 55 662 4 764 -25L763 -29C623 -8 525 0 403 0ZM382 1234 197 734C197 1179 123 1230 21 1259L22 1263C162 1242 260 1234 382 1234ZM403 1234C525 1234 624 1242 764 1263L765 1259C662 1230 589 1179 589 734ZM383 0C261 0 162 -8 22 -29L21 -25C124 4 197 55 197 500Z" glyph-name="i" horiz-adv-x="786" unicode="i" /><glyph d="M722 1493C645 1437 492 1417 383 1417C247 1417 172 1457 134 1493L140 1499C182 1470 268 1453 342 1453C466 1453 600 1501 651 1577ZM390 1372ZM393 1372ZM197 0V1331H588V0ZM403 0 588 500C588 55 662 4 764 -25L763 -29C623 -8 525 0 403 0ZM382 1331 197 831C197 1276 123 1327 21 1356L22 1360C162 1339 260 1331 382 1331ZM403 1331C525 1331 624 1339 764 1360L765 1356C662 1327 589 1276 589 831ZM383 0C261 0 162 -8 22 -29L21 -25C124 4 197 55 197 500ZM393 1372Z" glyph-name="iacute" horiz-adv-x="786" unicode="&#237;" /><glyph d="M197 0V1331H588V0ZM403 0 588 500C588 55 662 4 764 -25L763 -29C623 -8 525 0 403 0ZM382 1331 197 831C197 1276 123 1327 21 1356L22 1360C162 1339 260 1331 382 1331ZM403 1331C525 1331 624 1339 764 1360L765 1356C662 1327 589 1276 589 831ZM383 0C261 0 162 -8 22 -29L21 -25C124 4 197 55 197 500ZM393 1372ZM394 1481C128 1481 23 1500 15 1562H7C7 1490 49 1417 394 1417C739 1417 779 1490 779 1562H771C765 1500 660 1481 394 1481ZM393 1372Z" glyph-name="ibreve" horiz-adv-x="786" unicode="&#301;" /><glyph d="M8 1415C231 1439 342 1466 381 1513C386 1519 388 1523 393 1523C398 1523 400 1519 406 1513C445 1466 581 1439 778 1415L835 1478C485 1490 411 1544 398 1579H389C375 1544 327 1491 -55 1478ZM393 1372ZM197 0V1331H588V0ZM403 0 588 500C588 55 662 4 764 -25L763 -29C623 -8 525 0 403 0ZM382 1331 197 831C197 1276 123 1327 21 1356L22 1360C162 1339 260 1331 382 1331ZM403 1331C525 1331 624 1339 764 1360L765 1356C662 1327 589 1276 589 831ZM383 0C261 0 162 -8 22 -29L21 -25C124 4 197 55 197 500ZM393 1372Z" glyph-name="icircumflex" horiz-adv-x="786" unicode="&#238;" /><glyph d="M640 1456C731 1456 778 1472 778 1503C778 1532 731 1548 640 1548C554 1548 507 1532 507 1503C507 1472 554 1456 640 1456ZM146 1456C237 1456 278 1472 278 1503C278 1532 237 1548 146 1548C55 1548 8 1532 8 1503C8 1472 55 1456 146 1456ZM393 1372ZM197 0V1331H588V0ZM403 0 588 500C588 55 662 4 764 -25L763 -29C623 -8 525 0 403 0ZM382 1331 197 831C197 1276 123 1327 21 1356L22 1360C162 1339 260 1331 382 1331ZM403 1331C525 1331 624 1339 764 1360L765 1356C662 1327 589 1276 589 831ZM383 0C261 0 162 -8 22 -29L21 -25C124 4 197 55 197 500ZM393 1372Z" glyph-name="idieresis" horiz-adv-x="786" unicode="&#239;" /><glyph d="M197 0V1331H588V0ZM403 0 588 500C588 55 662 4 764 -25L763 -29C623 -8 525 0 403 0ZM382 1331 197 831C197 1276 123 1327 21 1356L22 1360C162 1339 260 1331 382 1331ZM403 1331C525 1331 624 1339 764 1360L765 1356C662 1327 589 1276 589 831ZM383 0C261 0 162 -8 22 -29L21 -25C124 4 197 55 197 500ZM393 1372ZM62 1493C139 1437 292 1417 401 1417C537 1417 612 1457 650 1493L644 1499C602 1470 516 1453 442 1453C318 1453 184 1501 133 1577ZM394 1372Z" glyph-name="igrave" horiz-adv-x="786" unicode="&#236;" /><glyph d="M197 0V1331H588V0ZM403 0 588 500C588 55 662 4 764 -25L763 -29C623 -8 525 0 403 0ZM382 1331 197 831C197 1276 123 1327 21 1356L22 1360C162 1339 260 1331 382 1331ZM403 1331C525 1331 624 1339 764 1360L765 1356C662 1327 589 1276 589 831ZM383 0C261 0 162 -8 22 -29L21 -25C124 4 197 55 197 500ZM393 1372ZM125 1503C255 1503 457 1417 639 1417C734 1417 778 1454 778 1492C778 1533 714 1555 661 1562L658 1555C701 1546 713 1527 713 1513C713 1489 692 1476 655 1476C525 1476 323 1562 140 1562C46 1562 2 1526 2 1487C2 1446 66 1424 119 1417L122 1424C79 1433 67 1452 67 1466C67 1490 88 1503 125 1503ZM394 1372Z" glyph-name="itilde" horiz-adv-x="786" unicode="&#297;" /><glyph d="M450 1298C638 1298 726 1346 726 1441C726 1533 638 1583 450 1583C270 1583 179 1533 179 1441C179 1346 270 1298 450 1298ZM309 -233C99 -233 44 -184 44 -51C44 54 145 372 135 613C135 663 128 707 113 751H144C157 717 169 668 169 613C176 364 77 41 77 -57C77 -146 129 -185 212 -185C298 -185 344 -142 344 -49C344 65 259 484 259 701V1234H650V750C650 444 740 142 740 -6C740 -153 620 -233 309 -233ZM445 1234 260 734C260 1179 186 1230 84 1259L85 1263C225 1242 323 1234 445 1234ZM465 1234C587 1234 686 1242 826 1263L827 1259C724 1230 651 1179 651 734Z" glyph-name="j" horiz-adv-x="850" unicode="j" /><glyph d="M188 0V1536H578V0ZM1164 -26C910 -26 755 15 755 175C755 428 1230 744 1232 874C1233 899 1223 913 1194 913C1132 913 1025 860 838 592C820 565 802 549 767 549C729 549 706 571 730 611C781 699 835 842 869 1018C901 1188 898 1318 731 1356L732 1360C916 1332 1007 1331 1136 1331C1282 1331 1396 1331 1546 1360L1549 1356C1298 1303 1195 1206 1035 999C895 811 847 735 761 601C752 587 758 580 769 580C785 580 790 586 800 600C1009 912 1122 961 1245 961C1350 961 1408 915 1408 826C1408 588 1147 183 1147 78C1147 36 1164 10 1249 10C1346 10 1405 49 1405 137C1405 225 1363 296 1223 324L1240 346C1377 317 1439 238 1439 139C1439 17 1362 -26 1164 -26ZM373 1536 188 1036C188 1481 114 1532 12 1561L13 1565C153 1544 251 1536 373 1536ZM390 0 575 500C575 55 649 4 751 -25L750 -29C610 -8 512 0 390 0ZM373 0C251 0 152 -8 12 -29L11 -25C114 4 187 55 187 500ZM393 1536C515 1536 614 1544 754 1565L755 1561C652 1532 579 1481 579 1036Z" glyph-name="k" horiz-adv-x="1542" unicode="k" /><glyph d="M197 0V1536H588V0ZM400 0 585 500C585 55 659 4 761 -25L760 -29C620 -8 522 0 400 0ZM382 1536 197 1036C197 1481 123 1532 21 1561L22 1565C162 1544 260 1536 382 1536ZM403 1536C525 1536 624 1544 764 1565L765 1561C662 1532 589 1481 589 1036ZM383 0C261 0 162 -8 22 -29L21 -25C124 4 197 55 197 500Z" glyph-name="l" horiz-adv-x="786" unicode="l" /><glyph d="M1750 0C1636 0 1533 -25 1419 -25C1307 -25 1198 0 1066 0H872V893L1063 905L1000 1217L1068 1334C1233 1334 1271 1310 1271 1248C1271 1179 1196 1024 1196 965C1196 952 1203 946 1212 946C1218 946 1227 949 1230 960C1302 1208 1437 1356 1661 1356C1871 1356 2021 1306 2021 1143C2021 1009 1938 790 1938 496V0ZM1545 250V420C1545 953 1685 1094 1685 1234C1685 1283 1659 1312 1589 1312C1470 1312 1263 1152 1263 823V481C1263 72 1287 -4 1413 -4C1480 -4 1545 53 1545 250ZM385 0H197V496C197 790 114 1009 114 1143C114 1306 264 1356 474 1356C698 1356 833 1208 905 960C908 949 917 946 923 946C933 946 939 952 939 965C939 1024 864 1179 864 1248C864 1310 902 1334 1068 1334L1135 1217L1079 905L1263 893V0H1069C937 0 828 -25 716 -25C602 -25 499 0 385 0ZM590 250C590 53 655 -4 722 -4C848 -4 872 72 872 481V823C872 1152 665 1312 546 1312C476 1312 450 1283 450 1234C450 1094 590 953 590 420ZM1753 0 1938 500C1938 55 2012 4 2114 -25L2113 -29C1973 -8 1875 0 1753 0ZM382 0C260 0 161 -8 21 -29L20 -25C123 4 196 55 196 500Z" glyph-name="m" horiz-adv-x="2135" unicode="m" /><glyph d="M141 1651C123 1661 107 1669 95 1696L101 1700C117 1685 148 1673 217 1673H814C882 1673 913 1685 929 1700L935 1696C923 1669 908 1661 890 1651C908 1640 923 1632 935 1605L929 1601C913 1616 882 1628 814 1628H217C148 1628 117 1616 101 1601L95 1605C107 1632 123 1640 141 1651ZM515 1536Z" glyph-name="macron" horiz-adv-x="1030" unicode="&#175;" /><glyph d="M1082 0C967 0 864 -25 750 -25C638 -25 529 0 397 0H203V1272L391 1331H409C572 1331 602 1326 602 1259C602 1187 527 1026 527 965C527 952 533 946 542 946C548 946 558 949 561 960C633 1208 768 1356 988 1356C1202 1356 1352 1306 1352 1143C1352 1009 1270 789 1270 496V0ZM876 250V420C876 953 1016 1094 1016 1234C1016 1283 990 1312 919 1312C801 1312 594 1152 594 823V481C594 72 617 -4 744 -4C811 -4 876 53 876 250ZM389 1331 204 831C204 1276 130 1327 28 1356L29 1360C169 1339 267 1331 389 1331ZM1084 0 1269 500C1269 55 1343 4 1445 -25L1444 -29C1304 -8 1206 0 1084 0ZM389 0C267 0 168 -8 28 -29L27 -25C130 4 203 55 203 500ZM896 1372Z" glyph-name="n" horiz-adv-x="1465" unicode="n" /><glyph d="M1225 1493C1148 1437 995 1417 886 1417C750 1417 675 1457 637 1493L643 1499C685 1470 771 1453 845 1453C969 1453 1103 1501 1154 1577ZM893 1372ZM896 1372ZM1082 0C967 0 864 -25 750 -25C638 -25 529 0 397 0H203V1272L391 1331H409C572 1331 602 1326 602 1259C602 1187 527 1026 527 965C527 952 533 946 542 946C548 946 558 949 561 960C633 1208 768 1356 988 1356C1202 1356 1352 1306 1352 1143C1352 1009 1270 789 1270 496V0ZM876 250V420C876 953 1016 1094 1016 1234C1016 1283 990 1312 919 1312C801 1312 594 1152 594 823V481C594 72 617 -4 744 -4C811 -4 876 53 876 250ZM389 1331 204 831C204 1276 130 1327 28 1356L29 1360C169 1339 267 1331 389 1331ZM1084 0 1269 500C1269 55 1343 4 1445 -25L1444 -29C1304 -8 1206 0 1084 0ZM389 0C267 0 168 -8 28 -29L27 -25C130 4 203 55 203 500ZM896 1372Z" glyph-name="nacute" horiz-adv-x="1465" unicode="&#324;" /><glyph d="M574 1577 511 1515C840 1504 879 1448 892 1414H901C914 1448 976 1505 1276 1515L1219 1577C1054 1558 940 1524 909 1480C904 1473 901 1470 896 1470C892 1470 889 1473 884 1480C853 1525 761 1558 574 1577ZM896 1372ZM1082 0C967 0 864 -25 750 -25C638 -25 529 0 397 0H203V1272L391 1331H409C572 1331 602 1326 602 1259C602 1187 527 1026 527 965C527 952 533 946 542 946C548 946 558 949 561 960C633 1208 768 1356 988 1356C1202 1356 1352 1306 1352 1143C1352 1009 1270 789 1270 496V0ZM876 250V420C876 953 1016 1094 1016 1234C1016 1283 990 1312 919 1312C801 1312 594 1152 594 823V481C594 72 617 -4 744 -4C811 -4 876 53 876 250ZM389 1331 204 831C204 1276 130 1327 28 1356L29 1360C169 1339 267 1331 389 1331ZM1084 0 1269 500C1269 55 1343 4 1445 -25L1444 -29C1304 -8 1206 0 1084 0ZM389 0C267 0 168 -8 28 -29L27 -25C130 4 203 55 203 500ZM896 1372Z" glyph-name="ncaron" horiz-adv-x="1465" unicode="&#328;" /><glyph d="M783 -25C1131 -25 1342 38 1342 192C1342 290 1269 375 1269 470C1269 591 1353 672 1353 763C1353 859 1265 954 1265 1076C1265 1170 1319 1231 1319 1318C1319 1503 1079 1561 700 1561C349 1561 129 1503 129 1318C129 1231 183 1170 183 1079C183 969 144 887 144 820C144 691 359 656 682 656C995 656 1083 709 1082 778C1082 869 948 943 948 985C948 996 957 1002 977 1002C1066 1002 1320 855 1320 765C1320 636 762 693 762 401C762 217 947 172 947 82C947 26 910 7 844 7C705 7 522 66 409 184C325 292 223 447 174 635L164 633C176 556 182 485 182 367C182 183 137 41 60 -24L63 -26C113 -9 160 -3 207 -3C360 -3 525 -25 783 -25ZM676 687C394 687 199 713 199 799C199 919 658 832 658 1142C658 1325 488 1366 488 1451C488 1510 551 1528 700 1528C860 1528 928 1510 928 1451C928 1366 765 1325 765 1142C765 909 1045 880 1045 778C1045 722 959 687 676 687Z" glyph-name="nine" horiz-adv-x="1411" unicode="9" /><glyph d="M1082 0C967 0 864 -25 750 -25C638 -25 529 0 397 0H203V1272L391 1331H409C572 1331 602 1326 602 1259C602 1187 527 1026 527 965C527 952 533 946 542 946C548 946 558 949 561 960C633 1208 768 1356 988 1356C1202 1356 1352 1306 1352 1143C1352 1009 1270 789 1270 496V0ZM876 250V420C876 953 1016 1094 1016 1234C1016 1283 990 1312 919 1312C801 1312 594 1152 594 823V481C594 72 617 -4 744 -4C811 -4 876 53 876 250ZM389 1331 204 831C204 1276 130 1327 28 1356L29 1360C169 1339 267 1331 389 1331ZM1084 0 1269 500C1269 55 1343 4 1445 -25L1444 -29C1304 -8 1206 0 1084 0ZM389 0C267 0 168 -8 28 -29L27 -25C130 4 203 55 203 500ZM896 1372ZM628 1503C758 1503 960 1417 1142 1417C1237 1417 1281 1454 1281 1492C1281 1533 1217 1555 1164 1562L1161 1555C1204 1546 1216 1527 1216 1513C1216 1489 1195 1476 1158 1476C1028 1476 826 1562 643 1562C549 1562 505 1526 505 1487C505 1446 569 1424 622 1417L625 1424C582 1433 570 1452 570 1466C570 1490 591 1503 628 1503ZM897 1372Z" glyph-name="ntilde" horiz-adv-x="1465" unicode="&#241;" /><glyph d="M694 -26C309 -26 66 29 66 193C66 271 134 316 134 383C134 494 60 577 60 664C60 748 157 823 157 936C157 1005 121 1067 121 1138C121 1293 329 1356 694 1356C1060 1356 1269 1293 1269 1138C1269 1067 1233 1005 1233 936C1233 823 1331 748 1331 664C1331 577 1257 494 1257 383C1257 316 1325 271 1325 193C1325 29 1082 -26 694 -26ZM694 7C876 7 953 25 953 84C953 159 777 194 777 354C777 640 1298 555 1298 662C1298 779 774 729 774 991C774 1140 936 1175 936 1248C936 1305 865 1323 694 1323C525 1323 455 1305 455 1248C455 1175 616 1140 616 991C616 729 93 779 93 662C93 555 614 640 614 354C614 194 438 159 438 84C438 25 514 7 694 7ZM694 1372Z" glyph-name="o" horiz-adv-x="1391" unicode="o" /><glyph d="M1022 1493C945 1437 792 1417 683 1417C547 1417 472 1457 434 1493L440 1499C482 1470 568 1453 642 1453C766 1453 900 1501 951 1577ZM690 1372ZM693 1372ZM694 -26C309 -26 66 29 66 193C66 271 134 316 134 383C134 494 60 577 60 664C60 748 157 823 157 936C157 1005 121 1067 121 1138C121 1293 329 1356 694 1356C1060 1356 1269 1293 1269 1138C1269 1067 1233 1005 1233 936C1233 823 1331 748 1331 664C1331 577 1257 494 1257 383C1257 316 1325 271 1325 193C1325 29 1082 -26 694 -26ZM694 7C876 7 953 25 953 84C953 159 777 194 777 354C777 640 1298 555 1298 662C1298 779 774 729 774 991C774 1140 936 1175 936 1248C936 1305 865 1323 694 1323C525 1323 455 1305 455 1248C455 1175 616 1140 616 991C616 729 93 779 93 662C93 555 614 640 614 354C614 194 438 159 438 84C438 25 514 7 694 7ZM694 1372Z" glyph-name="oacute" horiz-adv-x="1391" unicode="&#243;" /><glyph d="M694 -26C309 -26 66 29 66 193C66 271 134 316 134 383C134 494 60 577 60 664C60 748 157 823 157 936C157 1005 121 1067 121 1138C121 1293 329 1356 694 1356C1060 1356 1269 1293 1269 1138C1269 1067 1233 1005 1233 936C1233 823 1331 748 1331 664C1331 577 1257 494 1257 383C1257 316 1325 271 1325 193C1325 29 1082 -26 694 -26ZM694 7C876 7 953 25 953 84C953 159 777 194 777 354C777 640 1298 555 1298 662C1298 779 774 729 774 991C774 1140 936 1175 936 1248C936 1305 865 1323 694 1323C525 1323 455 1305 455 1248C455 1175 616 1140 616 991C616 729 93 779 93 662C93 555 614 640 614 354C614 194 438 159 438 84C438 25 514 7 694 7ZM694 1372ZM695 1481C429 1481 324 1500 316 1562H308C308 1490 350 1417 695 1417C1040 1417 1080 1490 1080 1562H1072C1066 1500 961 1481 695 1481ZM694 1372Z" glyph-name="obreve" horiz-adv-x="1391" unicode="&#335;" /><glyph d="M309 1415C532 1439 643 1466 682 1513C687 1519 689 1523 694 1523C699 1523 701 1519 707 1513C746 1466 882 1439 1079 1415L1136 1478C786 1490 712 1544 699 1579H690C676 1544 628 1491 246 1478ZM694 1372ZM694 -26C309 -26 66 29 66 193C66 271 134 316 134 383C134 494 60 577 60 664C60 748 157 823 157 936C157 1005 121 1067 121 1138C121 1293 329 1356 694 1356C1060 1356 1269 1293 1269 1138C1269 1067 1233 1005 1233 936C1233 823 1331 748 1331 664C1331 577 1257 494 1257 383C1257 316 1325 271 1325 193C1325 29 1082 -26 694 -26ZM694 7C876 7 953 25 953 84C953 159 777 194 777 354C777 640 1298 555 1298 662C1298 779 774 729 774 991C774 1140 936 1175 936 1248C936 1305 865 1323 694 1323C525 1323 455 1305 455 1248C455 1175 616 1140 616 991C616 729 93 779 93 662C93 555 614 640 614 354C614 194 438 159 438 84C438 25 514 7 694 7ZM694 1372Z" glyph-name="ocircumflex" horiz-adv-x="1391" unicode="&#244;" /><glyph d="M941 1456C1032 1456 1079 1472 1079 1503C1079 1532 1032 1548 941 1548C855 1548 808 1532 808 1503C808 1472 855 1456 941 1456ZM447 1456C538 1456 579 1472 579 1503C579 1532 538 1548 447 1548C356 1548 309 1532 309 1503C309 1472 356 1456 447 1456ZM694 1372ZM694 -26C309 -26 66 29 66 193C66 271 134 316 134 383C134 494 60 577 60 664C60 748 157 823 157 936C157 1005 121 1067 121 1138C121 1293 329 1356 694 1356C1060 1356 1269 1293 1269 1138C1269 1067 1233 1005 1233 936C1233 823 1331 748 1331 664C1331 577 1257 494 1257 383C1257 316 1325 271 1325 193C1325 29 1082 -26 694 -26ZM694 7C876 7 953 25 953 84C953 159 777 194 777 354C777 640 1298 555 1298 662C1298 779 774 729 774 991C774 1140 936 1175 936 1248C936 1305 865 1323 694 1323C525 1323 455 1305 455 1248C455 1175 616 1140 616 991C616 729 93 779 93 662C93 555 614 640 614 354C614 194 438 159 438 84C438 25 514 7 694 7ZM694 1372Z" glyph-name="odieresis" horiz-adv-x="1391" unicode="&#246;" /><glyph d="M694 -26C309 -26 66 29 66 193C66 271 134 316 134 383C134 494 60 577 60 664C60 748 157 823 157 936C157 1005 121 1067 121 1138C121 1293 329 1356 694 1356C1060 1356 1269 1293 1269 1138C1269 1067 1233 1005 1233 936C1233 823 1331 748 1331 664C1331 577 1257 494 1257 383C1257 316 1325 271 1325 193C1325 29 1082 -26 694 -26ZM694 7C876 7 953 25 953 84C953 159 777 194 777 354C777 640 1298 555 1298 662C1298 779 774 729 774 991C774 1140 936 1175 936 1248C936 1305 865 1323 694 1323C525 1323 455 1305 455 1248C455 1175 616 1140 616 991C616 729 93 779 93 662C93 555 614 640 614 354C614 194 438 159 438 84C438 25 514 7 694 7ZM694 1372ZM362 1493C439 1437 592 1417 701 1417C837 1417 912 1457 950 1493L944 1499C902 1470 816 1453 742 1453C618 1453 484 1501 433 1577ZM694 1372Z" glyph-name="ograve" horiz-adv-x="1391" unicode="&#242;" /><glyph d="M1155 1493C1085 1440 946 1417 848 1417C722 1417 655 1459 619 1493L625 1499C663 1472 740 1453 807 1453C918 1453 1035 1504 1083 1577ZM759 1493C689 1440 550 1417 453 1417C327 1417 259 1459 223 1493L229 1499C267 1472 344 1453 411 1453C522 1453 639 1504 688 1577ZM694 1372ZM694 -26C309 -26 66 29 66 193C66 271 134 316 134 383C134 494 60 577 60 664C60 748 157 823 157 936C157 1005 121 1067 121 1138C121 1293 329 1356 694 1356C1060 1356 1269 1293 1269 1138C1269 1067 1233 1005 1233 936C1233 823 1331 748 1331 664C1331 577 1257 494 1257 383C1257 316 1325 271 1325 193C1325 29 1082 -26 694 -26ZM694 7C876 7 953 25 953 84C953 159 777 194 777 354C777 640 1298 555 1298 662C1298 779 774 729 774 991C774 1140 936 1175 936 1248C936 1305 865 1323 694 1323C525 1323 455 1305 455 1248C455 1175 616 1140 616 991C616 729 93 779 93 662C93 555 614 640 614 354C614 194 438 159 438 84C438 25 514 7 694 7ZM694 1372Z" glyph-name="ohungarumlaut" horiz-adv-x="1391" unicode="&#337;" /><glyph d="M320 1487C302 1497 286 1505 274 1532L280 1536C296 1521 327 1509 396 1509H993C1061 1509 1092 1521 1108 1536L1114 1532C1102 1505 1087 1497 1069 1487C1087 1476 1102 1468 1114 1441L1108 1437C1092 1452 1061 1464 993 1464H396C327 1464 296 1452 280 1437L274 1441C286 1468 302 1476 320 1487ZM694 1372ZM694 -26C309 -26 66 29 66 193C66 271 134 316 134 383C134 494 60 577 60 664C60 748 157 823 157 936C157 1005 121 1067 121 1138C121 1293 329 1356 694 1356C1060 1356 1269 1293 1269 1138C1269 1067 1233 1005 1233 936C1233 823 1331 748 1331 664C1331 577 1257 494 1257 383C1257 316 1325 271 1325 193C1325 29 1082 -26 694 -26ZM694 7C876 7 953 25 953 84C953 159 777 194 777 354C777 640 1298 555 1298 662C1298 779 774 729 774 991C774 1140 936 1175 936 1248C936 1305 865 1323 694 1323C525 1323 455 1305 455 1248C455 1175 616 1140 616 991C616 729 93 779 93 662C93 555 614 640 614 354C614 194 438 159 438 84C438 25 514 7 694 7ZM694 1372Z" glyph-name="omacron" horiz-adv-x="1391" unicode="&#333;" /><glyph d="M184 0V508L578 521V0ZM126 748 122 754C182 806 195 973 195 1083C195 1216 146 1337 146 1401C146 1515 235 1561 382 1561C525 1561 578 1502 578 1378V508L184 503C184 669 246 786 401 1036C509 1207 533 1331 533 1416C533 1495 483 1522 411 1522C328 1522 305 1483 305 1429C305 1382 327 1283 327 1175C327 1006 264 810 126 748ZM392 0 577 500C577 55 651 4 753 -25L752 -29C612 -8 514 0 392 0ZM370 0C248 0 149 -8 9 -29L8 -25C111 4 184 55 184 500Z" glyph-name="one" horiz-adv-x="762" unicode="1" /><glyph d="M694 -26C309 -26 66 29 66 193C66 271 134 316 134 383C134 494 60 577 60 664C60 748 157 823 157 936C157 1005 121 1067 121 1138C121 1293 329 1356 694 1356C1060 1356 1269 1293 1269 1138C1269 1067 1233 1005 1233 936C1233 823 1331 748 1331 664C1331 577 1257 494 1257 383C1257 316 1325 271 1325 193C1325 29 1082 -26 694 -26ZM694 7C876 7 953 25 953 84C953 159 777 194 777 354C777 640 1298 555 1298 662C1298 779 774 729 774 991C774 1140 936 1175 936 1248C936 1305 865 1323 694 1323C525 1323 455 1305 455 1248C455 1175 616 1140 616 991C616 729 93 779 93 662C93 555 614 640 614 354C614 194 438 159 438 84C438 25 514 7 694 7ZM694 1372ZM425 1503C555 1503 757 1417 939 1417C1034 1417 1078 1454 1078 1492C1078 1533 1014 1555 961 1562L958 1555C1001 1546 1013 1527 1013 1513C1013 1489 992 1476 955 1476C825 1476 623 1562 440 1562C346 1562 302 1526 302 1487C302 1446 366 1424 419 1417L422 1424C379 1433 367 1452 367 1466C367 1490 388 1503 425 1503ZM694 1372Z" glyph-name="otilde" horiz-adv-x="1391" unicode="&#245;" /><glyph d="M972 1356C1184 1356 1344 1311 1344 1146C1344 1018 1240 831 1240 675C1240 502 1320 343 1320 220C1320 34 1083 -25 797 -25C683 -25 584 -11 503 6C490 8 484 4 482 -2C481 -10 486 -16 497 -19C573 -35 617 -64 651 -126C677 -191 706 -216 747 -230L746 -234C607 -213 511 -205 375 -205L187 -168V1273L375 1331H393C556 1331 586 1326 586 1260C586 1188 512 1026 512 965C512 953 517 947 525 947C531 947 539 949 543 961C615 1208 751 1356 972 1356ZM904 1312C785 1312 578 1152 578 824V485C578 76 621 4 768 4C879 4 911 46 911 163C911 286 840 473 840 679C840 894 1000 1089 1000 1232C1000 1282 976 1312 904 1312ZM372 1331 187 831C187 1276 113 1327 11 1356L12 1360C152 1339 250 1331 372 1331ZM373 -205C251 -205 152 -213 12 -234L11 -230C114 -201 187 -150 187 295Z" glyph-name="p" horiz-adv-x="1405" unicode="p" /><glyph d="M561 -87C255 -87 73 -25 73 160C73 265 146 343 146 450C146 577 53 665 53 768C53 870 146 959 146 1084C146 1191 73 1269 73 1374C73 1559 256 1621 561 1621C643 1621 684 1614 708 1608L704 1581C678 1585 639 1592 595 1592C476 1592 427 1570 427 1509C427 1408 616 1361 616 1162C616 818 86 904 86 768C86 631 616 717 616 372C616 173 427 126 427 25C427 -36 476 -58 595 -58C639 -58 678 -51 704 -47L708 -74C684 -80 643 -87 561 -87ZM647 0Z" glyph-name="parenleft" horiz-adv-x="727" unicode="(" /><glyph d="M166 -87C472 -87 654 -25 654 160C654 265 581 343 581 450C581 577 674 665 674 768C674 870 581 959 581 1084C581 1191 654 1269 654 1374C654 1559 471 1621 166 1621C84 1621 43 1614 19 1608L23 1581C49 1585 88 1592 132 1592C251 1592 300 1570 300 1509C300 1408 111 1361 111 1162C111 818 641 904 641 768C641 631 111 717 111 372C111 173 300 126 300 25C300 -36 251 -58 132 -58C88 -58 49 -51 23 -47L19 -74C43 -80 84 -87 166 -87ZM80 0Z" glyph-name="parenright" horiz-adv-x="727" unicode=")" /><glyph d="M391 32C371 21 358 11 328 13V19C349 27 373 49 404 110L1099 1448C1130 1508 1132 1540 1127 1560L1132 1565C1152 1542 1152 1525 1154 1504C1170 1517 1184 1525 1213 1523L1214 1517C1194 1509 1168 1487 1137 1426L443 90C411 28 409 -4 414 -24L409 -29C390 -6 391 13 391 32ZM413 671C119 671 53 751 53 844C54 989 300 1019 300 1116C300 1213 54 1243 53 1389C53 1481 119 1561 413 1561C707 1561 773 1481 773 1389C773 1243 526 1213 526 1116C526 1019 708 989 709 844C709 751 654 671 413 671ZM413 704C467 704 486 753 486 1116C486 1480 467 1528 413 1528C359 1528 339 1480 339 1116C339 753 359 704 413 704ZM1129 -25C835 -25 769 55 769 148C770 293 1016 323 1016 420C1016 518 834 547 833 692C833 785 888 865 1129 865C1423 865 1489 785 1489 693C1489 547 1242 518 1242 420C1242 323 1488 293 1489 148C1489 55 1423 -25 1129 -25ZM1129 8C1183 8 1202 57 1202 420C1202 784 1183 832 1129 832C1075 832 1055 784 1055 420C1055 57 1075 8 1129 8Z" glyph-name="percent" horiz-adv-x="1542" unicode="%" /><glyph d="M288 -4C303 12 318 42 346 67C373 92 399 107 413 123C443 154 443 184 413 215C399 232 369 247 346 273C319 300 303 327 288 344C258 373 227 373 196 344C179 326 166 297 137 273C108 247 83 228 69 215C38 184 40 156 69 123C83 107 112 93 137 67C166 38 178 14 196 -4C227 -34 258 -35 288 -4Z" glyph-name="period" horiz-adv-x="482" unicode="." /><glyph d="M288 662C303 678 318 708 346 733C373 758 399 773 413 789C443 820 443 850 413 881C399 898 369 913 346 939C319 966 303 993 288 1010C258 1039 227 1039 196 1010C179 992 166 963 137 939C108 913 83 894 69 881C38 850 40 822 69 789C83 773 112 759 137 733C166 704 178 680 196 662C227 632 258 631 288 662Z" glyph-name="periodcentered" horiz-adv-x="482" unicode="&#183;" /><glyph d="M634 1358C790 1358 922 1331 1042 1331H1244V-148L1059 -205H1042C921 -205 824 -213 686 -234L685 -230C764 -204 798 -156 861 112C886 196 919 332 919 368C920 381 913 386 904 386C898 386 889 383 886 371C814 123 679 -25 475 -25C269 -25 88 6 88 187C88 315 191 502 191 658C191 831 111 990 111 1113C111 1299 349 1358 634 1358ZM664 1329C553 1329 521 1287 521 1170C521 1047 592 860 592 654C592 453 412 270 412 138C412 67 448 19 528 19C646 19 854 179 854 508V848C854 1257 811 1329 664 1329ZM1059 -205 1244 295C1244 -150 1318 -201 1420 -230L1419 -234C1279 -213 1181 -205 1059 -205ZM1059 1331C1181 1331 1280 1339 1420 1360L1421 1356C1318 1327 1245 1276 1245 831Z" glyph-name="q" horiz-adv-x="1432" unicode="q" /><glyph d="M437 813C546 774 684 676 684 551C684 473 620 432 529 432C333 432 173 500 173 668C173 915 633 1324 633 1477C633 1518 614 1532 562 1532C504 1532 417 1477 347 1384C278 1275 190 1095 137 895H123C136 974 141 1047 141 1168C141 1352 89 1492 11 1559L14 1561C64 1543 117 1538 167 1538C273 1538 390 1561 552 1561C818 1561 975 1509 975 1371C975 1124 460 788 460 577C460 503 483 467 541 467C603 467 646 490 646 555C646 657 521 755 398 793ZM532 -4C547 12 562 42 590 67C617 92 643 107 657 123C687 154 687 184 657 215C643 232 613 247 590 273C563 300 547 327 532 344C502 373 471 373 440 344C423 326 410 297 381 273C352 247 327 228 313 215C282 184 284 156 313 123C327 107 356 93 381 67C410 38 422 14 440 -4C471 -34 502 -35 532 -4Z" glyph-name="question" horiz-adv-x="982" unicode="?" /><glyph d="M545 719C436 758 298 856 298 981C298 1059 362 1100 453 1100C649 1100 809 1032 809 864C809 617 349 208 349 55C349 14 368 0 420 0C478 0 565 55 635 148C704 257 792 437 845 637H859C846 558 841 485 841 364C841 180 893 40 971 -27L968 -29C918 -11 865 -6 815 -6C709 -6 592 -29 430 -29C164 -29 7 23 7 161C7 408 522 744 522 955C522 1029 499 1065 441 1065C379 1065 336 1042 336 977C336 875 461 777 584 739ZM450 1536C435 1520 420 1490 392 1465C365 1440 339 1425 325 1409C295 1378 295 1348 325 1317C339 1300 369 1285 392 1259C419 1232 435 1205 450 1188C480 1159 511 1159 542 1188C559 1206 572 1235 601 1259C630 1285 655 1304 669 1317C700 1348 698 1376 669 1409C655 1425 626 1439 601 1465C572 1494 560 1518 542 1536C511 1566 480 1567 450 1536Z" glyph-name="questiondown" horiz-adv-x="982" unicode="&#191;" /><glyph d="M246 743C280 1169 434 1299 434 1362C434 1379 428 1395 411 1412C398 1425 372 1441 344 1469C315 1492 301 1521 285 1540C270 1554 255 1561 241 1561C226 1561 211 1554 197 1540C180 1521 167 1492 137 1469C110 1441 83 1425 70 1412C54 1395 47 1379 47 1362C47 1299 202 1169 236 743ZM685 743C719 1169 873 1299 873 1362C873 1379 867 1395 850 1412C837 1425 811 1441 783 1469C754 1492 740 1521 724 1540C709 1554 694 1561 680 1561C665 1561 650 1554 636 1540C619 1521 606 1492 576 1469C549 1441 522 1425 509 1412C493 1395 486 1379 486 1362C486 1299 641 1169 675 743Z" glyph-name="quotedbl" horiz-adv-x="920" unicode="&quot;" /><glyph d="M511 -166 515 -174C684 -144 776 -35 776 86C776 183 734 273 713 334C696 376 652 382 617 357C600 346 574 320 544 303C511 285 482 276 464 265C427 242 418 202 442 177C456 163 477 144 508 117C553 79 589 18 587 -30C586 -73 565 -126 511 -166ZM125 -166 129 -174C298 -144 390 -35 390 86C390 183 348 273 327 334C310 376 266 382 231 357C214 346 188 320 158 303C125 285 96 276 78 265C41 242 32 202 56 177C70 163 91 144 122 117C167 79 203 18 201 -30C200 -73 179 -126 125 -166Z" glyph-name="quotedblbase" horiz-adv-x="832" unicode="&#8222;" /><glyph d="M321 1553 317 1561C148 1531 56 1422 56 1301C56 1204 98 1114 119 1053C136 1011 180 1005 215 1030C232 1041 258 1067 288 1084C321 1102 350 1111 368 1122C405 1145 414 1185 390 1210C376 1224 355 1243 324 1270C279 1308 243 1369 245 1417C246 1460 267 1513 321 1553ZM707 1553 703 1561C534 1531 442 1422 442 1301C442 1204 484 1114 505 1053C522 1011 566 1005 601 1030C618 1041 644 1067 674 1084C707 1102 736 1111 754 1122C791 1145 800 1185 776 1210C762 1224 741 1243 710 1270C665 1308 629 1369 631 1417C632 1460 653 1513 707 1553Z" glyph-name="quotedblleft" horiz-adv-x="831" unicode="&#8220;" /><glyph d="M511 1163 515 1155C684 1185 776 1294 776 1415C776 1512 734 1602 713 1663C696 1705 652 1711 617 1686C600 1675 574 1649 544 1632C511 1614 482 1605 464 1594C427 1571 418 1531 442 1506C456 1492 477 1473 508 1446C553 1408 589 1347 587 1299C586 1256 565 1203 511 1163ZM125 1163 129 1155C298 1185 390 1294 390 1415C390 1512 348 1602 327 1663C310 1705 266 1711 231 1686C214 1675 188 1649 158 1632C125 1614 96 1605 78 1594C41 1571 32 1531 56 1506C70 1492 91 1473 122 1446C167 1408 203 1347 201 1299C200 1256 179 1203 125 1163Z" glyph-name="quotedblright" horiz-adv-x="832" unicode="&#8221;" /><glyph d="M321 1553 317 1561C148 1531 56 1422 56 1301C56 1204 98 1114 119 1053C136 1011 180 1005 215 1030C232 1041 258 1067 288 1084C321 1102 350 1111 368 1122C405 1145 414 1185 390 1210C376 1224 355 1243 324 1270C279 1308 243 1369 245 1417C246 1460 267 1513 321 1553Z" glyph-name="quoteleft" horiz-adv-x="446" unicode="&#8216;" /><glyph d="M125 1162 129 1154C298 1184 390 1293 390 1414C390 1511 348 1601 327 1662C310 1704 266 1710 231 1685C214 1674 188 1648 158 1631C125 1613 96 1604 78 1593C41 1570 32 1530 56 1505C70 1491 91 1472 122 1445C167 1407 203 1346 201 1298C200 1255 179 1202 125 1162Z" glyph-name="quoteright" horiz-adv-x="446" unicode="&#8217;" /><glyph d="M125 -165 129 -173C298 -143 390 -34 390 87C390 184 348 274 327 335C310 377 266 383 231 358C214 347 188 321 158 304C125 286 96 277 78 266C41 243 32 203 56 178C70 164 91 145 122 118C167 80 203 19 201 -29C200 -72 179 -125 125 -165Z" glyph-name="quotesinglbase" horiz-adv-x="446" unicode="&#8218;" /><glyph d="M246 743C280 1169 434 1299 434 1362C434 1379 428 1395 411 1412C398 1425 372 1441 344 1469C315 1492 301 1521 285 1540C270 1554 255 1561 241 1561C226 1561 211 1554 197 1540C180 1521 167 1492 137 1469C110 1441 83 1425 70 1412C54 1395 47 1379 47 1362C47 1299 202 1169 236 743Z" glyph-name="quotesingle" horiz-adv-x="481" unicode="'" /><glyph d="M896 1310C778 1310 594 1138 594 823V0H203V1273L391 1331H409C570 1331 597 1326 597 1259C597 1187 527 1026 527 965C527 952 533 946 542 946C548 946 558 949 561 960C632 1209 749 1356 963 1356C1107 1356 1210 1303 1210 1147C1210 989 1110 730 1110 554C1110 494 1124 464 1192 457V449C781 425 709 462 709 573C709 765 970 1077 970 1228C970 1281 950 1310 896 1310ZM391 1331 206 831C206 1276 132 1327 30 1356L31 1360C171 1339 269 1331 391 1331ZM409 0 594 500C594 55 668 4 770 -25L769 -29C629 -8 531 0 409 0ZM389 0C267 0 168 -8 28 -29L27 -25C130 4 203 55 203 500Z" glyph-name="r" horiz-adv-x="1257" unicode="r" /><glyph d="M622 1661C622 1638 569 1626 415 1626C260 1626 204 1638 204 1661C204 1683 237 1696 415 1696C589 1696 622 1683 622 1661ZM113 1659C113 1620 154 1579 415 1579C674 1579 713 1620 713 1659C713 1700 662 1726 415 1726C166 1726 113 1700 113 1659ZM412 1536Z" glyph-name="ring" horiz-adv-x="835" unicode="&#730;" /><glyph d="M593 4C646 4 669 28 669 77C669 166 581 308 406 587C234 868 144 1038 144 1165C144 1300 272 1356 430 1356C617 1356 790 1333 913 1333C966 1333 1017 1338 1068 1356L1071 1353C983 1294 939 1201 939 1020C939 910 938 813 956 710L947 709C906 875 819 1016 754 1093C648 1224 496 1298 360 1298C288 1298 189 1274 189 1171C189 976 579 1122 772 813C925 539 1057 346 1057 190C1057 61 964 -27 610 -27C426 -27 308 -4 204 -4C150 -4 112 -9 61 -27L58 -24C144 34 178 128 178 310C178 452 180 577 160 706L169 707C218 508 289 335 345 228C431 83 507 4 593 4ZM622 0ZM572 1331Z" glyph-name="s" horiz-adv-x="1132" unicode="s" /><glyph d="M901 1452C824 1396 671 1376 562 1376C426 1376 351 1416 313 1452L319 1458C361 1429 447 1412 521 1412C645 1412 779 1460 830 1536ZM569 1331ZM572 1331ZM593 4C646 4 669 28 669 77C669 166 581 308 406 587C234 868 144 1038 144 1165C144 1300 272 1356 430 1356C617 1356 790 1333 913 1333C966 1333 1017 1338 1068 1356L1071 1353C983 1294 939 1201 939 1020C939 910 938 813 956 710L947 709C906 875 819 1016 754 1093C648 1224 496 1298 360 1298C288 1298 189 1274 189 1171C189 976 579 1122 772 813C925 539 1057 346 1057 190C1057 61 964 -27 610 -27C426 -27 308 -4 204 -4C150 -4 112 -9 61 -27L58 -24C144 34 178 128 178 310C178 452 180 577 160 706L169 707C218 508 289 335 345 228C431 83 507 4 593 4ZM622 0ZM572 1331Z" glyph-name="sacute" horiz-adv-x="1132" unicode="&#347;" /><glyph d="M249 1536 186 1474C515 1463 554 1407 567 1373H576C589 1407 651 1464 951 1474L894 1536C729 1517 615 1483 584 1439C579 1432 576 1429 571 1429C567 1429 564 1432 559 1439C528 1484 436 1517 249 1536ZM571 1331ZM593 4C646 4 669 28 669 77C669 166 581 308 406 587C234 868 144 1038 144 1165C144 1300 272 1356 430 1356C617 1356 790 1333 913 1333C966 1333 1017 1338 1068 1356L1071 1353C983 1294 939 1201 939 1020C939 910 938 813 956 710L947 709C906 875 819 1016 754 1093C648 1224 496 1298 360 1298C288 1298 189 1274 189 1171C189 976 579 1122 772 813C925 539 1057 346 1057 190C1057 61 964 -27 610 -27C426 -27 308 -4 204 -4C150 -4 112 -9 61 -27L58 -24C144 34 178 128 178 310C178 452 180 577 160 706L169 707C218 508 289 335 345 228C431 83 507 4 593 4ZM622 0ZM572 1331Z" glyph-name="scaron" horiz-adv-x="1132" unicode="&#353;" /><glyph d="M187 1374C410 1398 521 1425 560 1472C565 1478 567 1482 572 1482C577 1482 579 1478 585 1472C624 1425 760 1398 957 1374L1014 1437C664 1449 590 1503 577 1538H568C554 1503 506 1450 124 1437ZM572 1331ZM593 4C646 4 669 28 669 77C669 166 581 308 406 587C234 868 144 1038 144 1165C144 1300 272 1356 430 1356C617 1356 790 1333 913 1333C966 1333 1017 1338 1068 1356L1071 1353C983 1294 939 1201 939 1020C939 910 938 813 956 710L947 709C906 875 819 1016 754 1093C648 1224 496 1298 360 1298C288 1298 189 1274 189 1171C189 976 579 1122 772 813C925 539 1057 346 1057 190C1057 61 964 -27 610 -27C426 -27 308 -4 204 -4C150 -4 112 -9 61 -27L58 -24C144 34 178 128 178 310C178 452 180 577 160 706L169 707C218 508 289 335 345 228C431 83 507 4 593 4ZM622 0ZM572 1331Z" glyph-name="scircumflex" horiz-adv-x="1132" unicode="&#349;" /><glyph d="M157 -165 161 -173C330 -143 422 -34 422 87C422 184 380 274 359 335C342 377 298 383 263 358C246 347 220 321 190 304C157 286 128 277 110 266C73 243 64 203 88 178C102 164 123 145 154 118C199 80 235 19 233 -29C232 -72 211 -125 157 -165ZM288 608C303 624 318 654 346 679C373 704 399 719 413 735C443 766 443 796 413 827C399 844 369 859 346 885C319 912 303 939 288 956C258 985 227 985 196 956C179 938 166 909 137 885C108 859 83 840 69 827C38 796 40 768 69 735C83 719 112 705 137 679C166 650 178 626 196 608C227 578 258 577 288 608Z" glyph-name="semicolon" horiz-adv-x="488" unicode=";" /><glyph d="M0 0 185 500C185 55 259 4 361 -25L360 -29C220 -8 122 0 0 0Z" glyph-name="serifdroit" horiz-adv-x="403" /><glyph d="M403 0C281 0 182 -8 42 -29L41 -25C144 4 217 55 217 500Z" glyph-name="serifgauche" horiz-adv-x="403" /><glyph d="M351 0V853L741 885V0ZM6 1177 2 1182C38 1214 60 1285 60 1366C60 1448 43 1529 2 1561L4 1565C321 1531 805 1561 969 1561C1141 1561 1179 1499 1179 1408C1179 1285 1105 1231 946 1190C755 1138 741 1072 741 870L351 853C351 1068 471 1130 937 1225C1017 1245 1038 1262 1038 1289C1038 1314 1019 1320 945 1320C719 1320 347 1290 6 1177ZM150 904C134 912 121 918 111 941L117 943C130 933 154 922 209 922H910C963 922 987 933 1000 943L1006 941C996 918 983 912 969 904C983 896 996 890 1006 867L1000 865C987 875 963 886 910 886H209C154 886 130 875 117 865L111 867C121 890 134 896 150 904ZM556 0 741 500C741 55 815 4 917 -25L916 -29C776 -8 678 0 556 0ZM536 0C414 0 315 -8 175 -29L174 -25C277 4 350 55 350 500Z" glyph-name="seven" horiz-adv-x="1176" unicode="7" /><glyph d="M725 -25C1109 -25 1351 33 1351 217C1351 305 1274 365 1274 456C1274 567 1320 648 1320 715C1320 844 1091 879 747 879C426 879 335 826 336 758C336 665 469 591 469 549C469 538 461 533 441 533C352 533 98 680 98 770C98 899 662 842 662 1134C662 1318 490 1363 490 1453C490 1510 531 1529 595 1529C681 1529 785 1469 884 1349C948 1251 1050 1092 1099 900L1110 902C1097 979 1092 1050 1092 1168C1092 1352 1137 1495 1213 1560L1210 1562C1160 1544 1113 1538 1066 1538C959 1538 842 1561 660 1561C334 1561 135 1498 135 1343C135 1245 175 1161 175 1078C175 945 65 863 65 772C65 677 153 581 153 460C153 365 76 305 76 217C76 33 328 -25 725 -25ZM725 8C546 8 471 26 471 84C471 169 659 210 659 393C659 627 373 655 373 757C373 813 461 848 752 848C1055 848 1265 822 1265 737C1265 616 767 703 767 393C767 210 956 169 956 84C956 26 887 8 725 8Z" glyph-name="six" horiz-adv-x="1409" unicode="6" /><glyph d="M55 29C39 13 28 -1 -2 -7L-3 -1C15 12 34 40 48 107L334 1437C348 1504 344 1536 332 1555L337 1560C361 1543 366 1527 373 1507C386 1523 397 1535 426 1541L428 1535C410 1522 390 1494 376 1427L90 99C75 30 81 -1 92 -20L88 -26C64 -9 60 9 55 29Z" glyph-name="slash" horiz-adv-x="425" unicode="/" /><glyph glyph-name="space" horiz-adv-x="494" unicode=" " /><glyph d="M587 1295C459 1295 398 1318 398 1368C398 1423 465 1457 465 1486C465 1509 447 1515 402 1515C253 1515 214 1476 214 1436C214 1315 600 1261 600 983C600 676 529 276 529 158C529 65 574 21 660 21C743 21 796 59 796 149C796 247 697 570 703 819C703 874 716 924 728 957H759C744 914 737 870 737 819C728 578 828 260 828 158C828 22 773 -27 564 -27C252 -27 134 53 132 200C131 342 213 620 213 906C213 1208 158 1271 158 1416C158 1487 190 1561 449 1561C617 1561 654 1539 654 1498C654 1438 448 1416 448 1367C448 1341 478 1331 548 1331H750C803 1331 828 1342 840 1352L846 1350C836 1327 823 1321 809 1313C823 1305 836 1299 846 1276L840 1274C828 1284 803 1295 750 1295ZM55 1313C39 1321 26 1327 16 1350L22 1352C35 1342 59 1331 114 1331H234V1295H114C59 1295 35 1284 22 1274L16 1276C26 1299 39 1305 55 1313Z" glyph-name="t" horiz-adv-x="891" unicode="t" /><glyph d="M562 1561C881 1561 1029 1513 1029 1397C1029 1300 980 1213 980 1115C980 1011 1095 929 1095 853C1095 816 1072 790 1016 790C783 790 468 820 309 820C202 820 174 808 174 778C174 750 203 738 308 738C468 738 784 769 1015 769C1074 769 1095 750 1095 705C1095 625 1004 526 1004 421C1004 314 1082 243 1082 141C1082 23 912 -25 554 -25C392 -25 291 -4 200 -4C149 -4 97 -11 47 -28L44 -25C97 26 113 147 113 301C113 472 93 580 70 692L79 693C136 482 241 297 318 182C404 73 497 4 591 4C647 4 687 24 687 74C687 178 530 231 530 429C530 573 646 632 813 660C1010 688 1050 699 1050 723C1050 740 1039 744 991 744C788 744 540 711 297 711C178 711 144 737 144 778C144 819 174 846 297 846C542 846 789 815 992 815C1039 815 1050 820 1050 836C1050 858 1007 873 828 897C639 925 523 983 523 1120C523 1299 665 1370 665 1473C665 1513 636 1532 573 1532C500 1532 407 1477 326 1371C255 1265 170 1099 121 908L112 910C129 1001 129 1090 129 1203C129 1387 98 1504 22 1561L25 1564C76 1546 127 1538 180 1538C289 1538 411 1561 562 1561Z" glyph-name="three" horiz-adv-x="1158" unicode="3" /><glyph d="M220 1667C350 1667 552 1581 734 1581C829 1581 873 1618 873 1656C873 1697 809 1719 756 1726L753 1719C796 1710 808 1691 808 1677C808 1653 787 1640 750 1640C620 1640 418 1726 235 1726C141 1726 97 1690 97 1651C97 1610 161 1588 214 1581L217 1588C174 1597 162 1616 162 1630C162 1654 183 1667 220 1667ZM489 1536Z" glyph-name="tilde" horiz-adv-x="977" unicode="&#732;" /><glyph d="M616 1532C555 1532 480 1470 380 1339C320 1239 234 1076 156 842L147 843C164 936 164 1046 164 1168C164 1352 133 1502 66 1561L70 1564C118 1547 168 1538 216 1538C334 1538 467 1561 634 1561C918 1561 1131 1524 1131 1300C1131 867 514 828 252 383C200 292 112 108 112 24C112 14 114 8 125 8C135 8 140 15 145 28C355 661 687 689 875 689C1036 689 1107 658 1107 554C1107 393 828 202 828 84C828 47 853 32 887 32C1000 32 1090 163 1090 293C1090 363 1061 419 985 462L1004 485C1082 444 1125 375 1125 283C1125 140 1055 -25 786 -25C495 -25 352 12 352 134C352 239 440 348 639 442C804 524 876 575 876 618C877 642 863 653 813 653C668 653 354 551 179 21C169 -10 147 -25 119 -25C93 -25 76 -11 76 22C76 99 156 291 208 387C450 855 682 1221 682 1460C682 1511 663 1532 616 1532Z" glyph-name="two" horiz-adv-x="1209" unicode="2" /><glyph d="M8 1360 6 1356C122 1325 189 1164 200 839C206 638 155 368 157 272C159 81 313 -26 679 -26C928 -26 1040 18 1039 204C1039 273 1020 526 1024 693C1031 1037 1130 1329 1217 1356L1215 1360C1097 1339 1047 1331 969 1331C890 1331 832 1355 727 1355C625 1355 517 1331 414 1331C275 1331 165 1338 8 1360ZM915 830C951 592 1003 305 1003 201C1003 41 900 17 774 17C643 17 579 82 579 218C579 387 602 810 615 1049C631 1276 681 1334 733 1334C806 1334 840 1259 915 830ZM723 1372Z" glyph-name="u" horiz-adv-x="1197" unicode="u" /><glyph d="M1052 1493C975 1437 822 1417 713 1417C577 1417 502 1457 464 1493L470 1499C512 1470 598 1453 672 1453C796 1453 930 1501 981 1577ZM720 1372ZM723 1372ZM8 1360 6 1356C122 1325 189 1164 200 839C206 638 155 368 157 272C159 81 313 -26 679 -26C928 -26 1040 18 1039 204C1039 273 1020 526 1024 693C1031 1037 1130 1329 1217 1356L1215 1360C1097 1339 1047 1331 969 1331C890 1331 832 1355 727 1355C625 1355 517 1331 414 1331C275 1331 165 1338 8 1360ZM915 830C951 592 1003 305 1003 201C1003 41 900 17 774 17C643 17 579 82 579 218C579 387 602 810 615 1049C631 1276 681 1334 733 1334C806 1334 840 1259 915 830ZM723 1372Z" glyph-name="uacute" horiz-adv-x="1197" unicode="&#250;" /><glyph d="M8 1360 6 1356C122 1325 189 1164 200 839C206 638 155 368 157 272C159 81 313 -26 679 -26C928 -26 1040 18 1039 204C1039 273 1020 526 1024 693C1031 1037 1130 1329 1217 1356L1215 1360C1097 1339 1047 1331 969 1331C890 1331 832 1355 727 1355C625 1355 517 1331 414 1331C275 1331 165 1338 8 1360ZM915 830C951 592 1003 305 1003 201C1003 41 900 17 774 17C643 17 579 82 579 218C579 387 602 810 615 1049C631 1276 681 1334 733 1334C806 1334 840 1259 915 830ZM723 1372ZM724 1481C458 1481 353 1500 345 1562H337C337 1490 379 1417 724 1417C1069 1417 1109 1490 1109 1562H1101C1095 1500 990 1481 724 1481ZM723 1372Z" glyph-name="ubreve" horiz-adv-x="1197" unicode="&#365;" /><glyph d="M338 1415C561 1439 672 1466 711 1513C716 1519 718 1523 723 1523C728 1523 730 1519 736 1513C775 1466 911 1439 1108 1415L1165 1478C815 1490 741 1544 728 1579H719C705 1544 657 1491 275 1478ZM723 1372ZM8 1360 6 1356C122 1325 189 1164 200 839C206 638 155 368 157 272C159 81 313 -26 679 -26C928 -26 1040 18 1039 204C1039 273 1020 526 1024 693C1031 1037 1130 1329 1217 1356L1215 1360C1097 1339 1047 1331 969 1331C890 1331 832 1355 727 1355C625 1355 517 1331 414 1331C275 1331 165 1338 8 1360ZM915 830C951 592 1003 305 1003 201C1003 41 900 17 774 17C643 17 579 82 579 218C579 387 602 810 615 1049C631 1276 681 1334 733 1334C806 1334 840 1259 915 830ZM723 1372Z" glyph-name="ucircumflex" horiz-adv-x="1197" unicode="&#251;" /><glyph d="M970 1456C1061 1456 1108 1472 1108 1503C1108 1532 1061 1548 970 1548C884 1548 837 1532 837 1503C837 1472 884 1456 970 1456ZM476 1456C567 1456 608 1472 608 1503C608 1532 567 1548 476 1548C385 1548 338 1532 338 1503C338 1472 385 1456 476 1456ZM723 1372ZM8 1360 6 1356C122 1325 189 1164 200 839C206 638 155 368 157 272C159 81 313 -26 679 -26C928 -26 1040 18 1039 204C1039 273 1020 526 1024 693C1031 1037 1130 1329 1217 1356L1215 1360C1097 1339 1047 1331 969 1331C890 1331 832 1355 727 1355C625 1355 517 1331 414 1331C275 1331 165 1338 8 1360ZM915 830C951 592 1003 305 1003 201C1003 41 900 17 774 17C643 17 579 82 579 218C579 387 602 810 615 1049C631 1276 681 1334 733 1334C806 1334 840 1259 915 830ZM723 1372Z" glyph-name="udieresis" horiz-adv-x="1197" unicode="&#252;" /><glyph d="M8 1360 6 1356C122 1325 189 1164 200 839C206 638 155 368 157 272C159 81 313 -26 679 -26C928 -26 1040 18 1039 204C1039 273 1020 526 1024 693C1031 1037 1130 1329 1217 1356L1215 1360C1097 1339 1047 1331 969 1331C890 1331 832 1355 727 1355C625 1355 517 1331 414 1331C275 1331 165 1338 8 1360ZM915 830C951 592 1003 305 1003 201C1003 41 900 17 774 17C643 17 579 82 579 218C579 387 602 810 615 1049C631 1276 681 1334 733 1334C806 1334 840 1259 915 830ZM723 1372ZM391 1493C468 1437 621 1417 730 1417C866 1417 941 1457 979 1493L973 1499C931 1470 845 1453 771 1453C647 1453 513 1501 462 1577ZM723 1372Z" glyph-name="ugrave" horiz-adv-x="1197" unicode="&#249;" /><glyph d="M8 1360 6 1356C122 1325 189 1164 200 839C206 638 155 368 157 272C159 81 313 -26 679 -26C928 -26 1040 18 1039 204C1039 273 1020 526 1024 693C1031 1037 1130 1329 1217 1356L1215 1360C1097 1339 1047 1331 969 1331C890 1331 832 1355 727 1355C625 1355 517 1331 414 1331C275 1331 165 1338 8 1360ZM915 830C951 592 1003 305 1003 201C1003 41 900 17 774 17C643 17 579 82 579 218C579 387 602 810 615 1049C631 1276 681 1334 733 1334C806 1334 840 1259 915 830ZM723 1372ZM1184 1493C1114 1440 975 1417 877 1417C751 1417 684 1459 648 1493L654 1499C692 1472 769 1453 836 1453C947 1453 1064 1504 1112 1577ZM788 1493C718 1440 579 1417 482 1417C356 1417 288 1459 252 1493L258 1499C296 1472 373 1453 440 1453C551 1453 668 1504 717 1577ZM723 1372Z" glyph-name="uhungarumlaut" horiz-adv-x="1197" unicode="&#369;" /><glyph d="M8 1360 6 1356C122 1325 189 1164 200 839C206 638 155 368 157 272C159 81 313 -26 679 -26C928 -26 1040 18 1039 204C1039 273 1020 526 1024 693C1031 1037 1130 1329 1217 1356L1215 1360C1097 1339 1047 1331 969 1331C890 1331 832 1355 727 1355C625 1355 517 1331 414 1331C275 1331 165 1338 8 1360ZM915 830C951 592 1003 305 1003 201C1003 41 900 17 774 17C643 17 579 82 579 218C579 387 602 810 615 1049C631 1276 681 1334 733 1334C806 1334 840 1259 915 830ZM723 1372ZM349 1487C331 1497 315 1505 303 1532L309 1536C325 1521 356 1509 425 1509H1022C1090 1509 1121 1521 1137 1536L1143 1532C1131 1505 1116 1497 1098 1487C1116 1476 1131 1468 1143 1441L1137 1437C1121 1452 1090 1464 1022 1464H425C356 1464 325 1452 309 1437L303 1441C315 1468 331 1476 349 1487ZM723 1372Z" glyph-name="umacron" horiz-adv-x="1197" unicode="&#363;" /><glyph d="M82 -131C64 -121 48 -113 36 -86L42 -82C58 -97 89 -109 158 -109H1746C1814 -109 1845 -97 1861 -82L1867 -86C1855 -113 1840 -121 1822 -131C1840 -142 1855 -150 1867 -177L1861 -181C1845 -166 1814 -154 1746 -154H158C89 -154 58 -166 42 -181L36 -177C48 -150 64 -142 82 -131Z" glyph-name="underscore" horiz-adv-x="1903" unicode="_" /><glyph d="M932 1497C932 1474 879 1462 725 1462C570 1462 514 1474 514 1497C514 1519 547 1532 725 1532C899 1532 932 1519 932 1497ZM423 1495C423 1456 464 1415 725 1415C984 1415 1023 1456 1023 1495C1023 1536 972 1562 725 1562C476 1562 423 1536 423 1495ZM722 1372ZM8 1360 6 1356C122 1325 189 1164 200 839C206 638 155 368 157 272C159 81 313 -26 679 -26C928 -26 1040 18 1039 204C1039 273 1020 526 1024 693C1031 1037 1130 1329 1217 1356L1215 1360C1097 1339 1047 1331 969 1331C890 1331 832 1355 727 1355C625 1355 517 1331 414 1331C275 1331 165 1338 8 1360ZM915 830C951 592 1003 305 1003 201C1003 41 900 17 774 17C643 17 579 82 579 218C579 387 602 810 615 1049C631 1276 681 1334 733 1334C806 1334 840 1259 915 830ZM723 1372Z" glyph-name="uring" horiz-adv-x="1197" unicode="&#367;" /><glyph d="M8 1360 6 1356C122 1325 189 1164 200 839C206 638 155 368 157 272C159 81 313 -26 679 -26C928 -26 1040 18 1039 204C1039 273 1020 526 1024 693C1031 1037 1130 1329 1217 1356L1215 1360C1097 1339 1047 1331 969 1331C890 1331 832 1355 727 1355C625 1355 517 1331 414 1331C275 1331 165 1338 8 1360ZM915 830C951 592 1003 305 1003 201C1003 41 900 17 774 17C643 17 579 82 579 218C579 387 602 810 615 1049C631 1276 681 1334 733 1334C806 1334 840 1259 915 830ZM723 1372ZM454 1503C584 1503 786 1417 968 1417C1063 1417 1107 1454 1107 1492C1107 1533 1043 1555 990 1562L987 1555C1030 1546 1042 1527 1042 1513C1042 1489 1021 1476 984 1476C854 1476 652 1562 469 1562C375 1562 331 1526 331 1487C331 1446 395 1424 448 1417L451 1424C408 1433 396 1452 396 1466C396 1490 417 1503 454 1503ZM723 1372Z" glyph-name="utilde" horiz-adv-x="1197" unicode="&#361;" /><glyph d="M-23 1357 -29 1353C68 1326 128 1285 224 842L352 210C401 22 519 -27 654 -27C798 -27 872 38 937 213L1104 823C1235 1262 1260 1326 1357 1353L1355 1357C1233 1336 1170 1328 1099 1328C991 1328 909 1354 789 1354C646 1354 522 1328 379 1328C241 1328 133 1334 -23 1357ZM942 829 890 253C879 157 840 133 796 133C752 133 731 151 719 214L626 862C559 1285 705 1327 795 1327C915 1327 987 1279 942 829Z" glyph-name="v" horiz-adv-x="1328" unicode="v" /><glyph d="M1382 1362 1380 1357C1492 1325 1585 1293 1593 864L1604 214C1606 109 1577 75 1535 75C1485 75 1461 101 1452 207L1395 1076C1377 1282 1323 1351 1091 1351C859 1351 800 1264 793 1047L775 207C772 107 741 75 697 75C644 75 623 107 623 207L622 825C621 1255 662 1323 785 1356L783 1361C642 1339 537 1331 408 1331C267 1331 147 1336 -12 1361L-13 1356C99 1328 163 1245 203 827L253 269C277 58 365 -27 560 -27C746 -27 815 30 821 200L843 1043C849 1214 876 1256 933 1256C983 1256 1008 1224 1018 1098L1072 234C1088 34 1208 -27 1392 -27C1577 -27 1626 51 1652 201L1741 866C1799 1275 1849 1331 1939 1357L1938 1362C1834 1342 1775 1331 1692 1331C1586 1331 1505 1343 1382 1362Z" glyph-name="w" horiz-adv-x="1925" unicode="w" /><glyph d="M1048 852 1020 755C1004 712 998 699 983 699C967 699 956 716 938 754L803 975C686 1225 743 1328 877 1328C1046 1328 1152 1132 1048 852ZM1182 361C1033 612 1035 726 1148 943C1349 1289 1395 1328 1505 1356L1503 1361C1383 1341 1325 1330 1226 1330C1103 1330 1040 1355 879 1355C720 1355 653 1330 420 1330C290 1330 189 1341 44 1361L42 1357C145 1329 223 1277 374 964C494 741 499 642 354 376C167 35 109 3 2 -27L4 -31C119 -12 173 -2 248 -2C398 -2 462 -25 632 -25C809 -25 882 0 1097 0C1252 1 1355 -8 1507 -31L1509 -27C1394 3 1351 58 1182 361ZM471 492 504 615C519 663 529 677 547 677C568 677 578 668 605 619L746 371C891 79 830 2 662 2C484 2 375 185 471 492Z" glyph-name="x" horiz-adv-x="1498" unicode="x" /><glyph d="M591 1069 592 1211C592 1299 552 1321 398 1327C273 1332 173 1338 30 1360L29 1356C132 1327 211 1247 213 965C216 734 150 590 150 488C150 325 322 294 502 294C699 294 810 337 869 377C880 386 889 389 897 389C909 388 913 380 903 366C879 327 821 298 532 260C201 213 55 157 55 -3C55 -140 191 -233 465 -233C883 -233 1287 76 1287 332C1287 467 1229 589 1229 748V863C1229 1281 1303 1327 1405 1356L1404 1360C1246 1337 1137 1330 999 1320C875 1311 838 1288 838 1206V747C838 565 915 479 1015 384C1102 296 1145 234 1145 154C1145 51 1065 10 568 10C432 10 392 48 392 100C392 148 447 202 587 230C838 272 917 308 939 363C952 391 938 416 904 419C879 420 854 410 826 390C755 350 658 328 567 328C504 328 481 364 481 405C481 566 591 753 591 1069ZM713 1372Z" glyph-name="y" horiz-adv-x="1394" unicode="y" /><glyph d="M591 1069 592 1211C592 1299 552 1321 398 1327C273 1332 173 1338 30 1360L29 1356C132 1327 211 1247 213 965C216 734 150 590 150 488C150 325 322 294 502 294C699 294 810 337 869 377C880 386 889 389 897 389C909 388 913 380 903 366C879 327 821 298 532 260C201 213 55 157 55 -3C55 -140 191 -233 465 -233C883 -233 1287 76 1287 332C1287 467 1229 589 1229 748V863C1229 1281 1303 1327 1405 1356L1404 1360C1246 1337 1137 1330 999 1320C875 1311 838 1288 838 1206V747C838 565 915 479 1015 384C1102 296 1145 234 1145 154C1145 51 1065 10 568 10C432 10 392 48 392 100C392 148 447 202 587 230C838 272 917 308 939 363C952 391 938 416 904 419C879 420 854 410 826 390C755 350 658 328 567 328C504 328 481 364 481 405C481 566 591 753 591 1069ZM713 1372ZM1041 1493C964 1437 811 1417 702 1417C566 1417 491 1457 453 1493L459 1499C501 1470 587 1453 661 1453C785 1453 919 1501 970 1577ZM709 1372ZM712 1372Z" glyph-name="yacute" horiz-adv-x="1394" unicode="&#253;" /><glyph d="M591 1069 592 1211C592 1299 552 1321 398 1327C273 1332 173 1338 30 1360L29 1356C132 1327 211 1247 213 965C216 734 150 590 150 488C150 325 322 294 502 294C699 294 810 337 869 377C880 386 889 389 897 389C909 388 913 380 903 366C879 327 821 298 532 260C201 213 55 157 55 -3C55 -140 191 -233 465 -233C883 -233 1287 76 1287 332C1287 467 1229 589 1229 748V863C1229 1281 1303 1327 1405 1356L1404 1360C1246 1337 1137 1330 999 1320C875 1311 838 1288 838 1206V747C838 565 915 479 1015 384C1102 296 1145 234 1145 154C1145 51 1065 10 568 10C432 10 392 48 392 100C392 148 447 202 587 230C838 272 917 308 939 363C952 391 938 416 904 419C879 420 854 410 826 390C755 350 658 328 567 328C504 328 481 364 481 405C481 566 591 753 591 1069ZM713 1372ZM328 1415C551 1439 662 1466 701 1513C706 1519 708 1523 713 1523C718 1523 720 1519 726 1513C765 1466 901 1439 1098 1415L1155 1478C805 1490 731 1544 718 1579H709C695 1544 647 1491 265 1478ZM713 1372Z" glyph-name="ycircumflex" horiz-adv-x="1394" unicode="&#375;" /><glyph d="M591 1069 592 1211C592 1299 552 1321 398 1327C273 1332 173 1338 30 1360L29 1356C132 1327 211 1247 213 965C216 734 150 590 150 488C150 325 322 294 502 294C699 294 810 337 869 377C880 386 889 389 897 389C909 388 913 380 903 366C879 327 821 298 532 260C201 213 55 157 55 -3C55 -140 191 -233 465 -233C883 -233 1287 76 1287 332C1287 467 1229 589 1229 748V863C1229 1281 1303 1327 1405 1356L1404 1360C1246 1337 1137 1330 999 1320C875 1311 838 1288 838 1206V747C838 565 915 479 1015 384C1102 296 1145 234 1145 154C1145 51 1065 10 568 10C432 10 392 48 392 100C392 148 447 202 587 230C838 272 917 308 939 363C952 391 938 416 904 419C879 420 854 410 826 390C755 350 658 328 567 328C504 328 481 364 481 405C481 566 591 753 591 1069ZM713 1372ZM960 1456C1051 1456 1098 1472 1098 1503C1098 1532 1051 1548 960 1548C874 1548 827 1532 827 1503C827 1472 874 1456 960 1456ZM466 1456C557 1456 598 1472 598 1503C598 1532 557 1548 466 1548C375 1548 328 1532 328 1503C328 1472 375 1456 466 1456ZM713 1372Z" glyph-name="ydieresis" horiz-adv-x="1394" unicode="&#255;" /><glyph d="M591 1069 592 1211C592 1299 552 1321 398 1327C273 1332 173 1338 30 1360L29 1356C132 1327 211 1247 213 965C216 734 150 590 150 488C150 325 322 294 502 294C699 294 810 337 869 377C880 386 889 389 897 389C909 388 913 380 903 366C879 327 821 298 532 260C201 213 55 157 55 -3C55 -140 191 -233 465 -233C883 -233 1287 76 1287 332C1287 467 1229 589 1229 748V863C1229 1281 1303 1327 1405 1356L1404 1360C1246 1337 1137 1330 999 1320C875 1311 838 1288 838 1206V747C838 565 915 479 1015 384C1102 296 1145 234 1145 154C1145 51 1065 10 568 10C432 10 392 48 392 100C392 148 447 202 587 230C838 272 917 308 939 363C952 391 938 416 904 419C879 420 854 410 826 390C755 350 658 328 567 328C504 328 481 364 481 405C481 566 591 753 591 1069ZM713 1372ZM381 1493C458 1437 611 1417 720 1417C856 1417 931 1457 969 1493L963 1499C921 1470 835 1453 761 1453C637 1453 503 1501 452 1577ZM713 1372Z" glyph-name="ygrave" horiz-adv-x="1394" unicode="&#7923;" /><glyph d="M585 211C527 118 514 86 514 61C514 37 538 23 616 23C715 23 805 60 907 189C992 317 1065 468 1130 708L1141 706C1124 598 1123 496 1123 375C1123 161 1180 41 1256 -24L1254 -27C1204 -9 1154 0 1033 0C1010 0 134 0 89 0C49 0 41 8 41 23C41 45 64 86 89 127L647 1091C704 1187 722 1235 722 1270C722 1294 707 1308 662 1308C596 1308 552 1279 473 1182C387 1060 300 888 220 643L210 644C228 749 228 847 228 959C228 1135 195 1274 98 1354L101 1356C150 1338 202 1331 319 1331C339 1331 1100 1331 1140 1331C1203 1331 1214 1323 1214 1306C1214 1292 1204 1264 1190 1238Z" glyph-name="z" horiz-adv-x="1308" unicode="z" /><glyph d="M720 -26C320 -26 66 32 66 217C66 305 144 365 144 456C144 581 53 677 53 772C53 867 164 951 164 1080C164 1170 121 1250 121 1343C121 1498 339 1561 720 1561C1102 1561 1321 1498 1321 1343C1321 1250 1278 1170 1278 1080C1278 951 1389 867 1389 772C1389 677 1299 581 1299 456C1299 365 1376 305 1376 217C1376 32 1123 -26 720 -26ZM720 7C902 7 979 25 979 84C979 170 790 210 790 393C790 747 1356 641 1356 770C1356 904 787 850 787 1149C787 1327 962 1367 962 1453C962 1510 890 1528 720 1528C551 1528 481 1510 481 1453C481 1367 655 1327 655 1149C655 850 86 904 86 770C86 641 652 747 652 393C652 210 464 170 464 84C464 25 540 7 720 7ZM719 1534Z" glyph-name="zero" horiz-adv-x="1443" unicode="0" /></font>
</defs>
</svg>
